<?xml version="1.0" standalone="no"?>
<!DOCTYPE svg PUBLIC "-//W3C//DTD SVG 1.1//EN" "http://www.w3.org/Graphics/SVG/1.1/DTD/svg11.dtd" >
<svg xmlns="http://www.w3.org/2000/svg" xmlns:xlink="http://www.w3.org/1999/xlink" version="1.1">
<metadata></metadata>
<defs>
<font id="segment14regular" horiz-adv-x="1331" >
<font-face units-per-em="2048" ascent="1638" descent="-410" />
<missing-glyph horiz-adv-x="500" />
<glyph horiz-adv-x="0" />
<glyph horiz-adv-x="682" />
<glyph unicode=" " />
<glyph unicode="!" d="M133 1536q0 8 8.5 14t22.5 6h799q51 0 51 -24q0 -20 -33 -57t-49 -37h-31q-22 0 -40 -14.5t-32 -14.5h-215q-20 0 -41 12.5t-41 12.5q-23 0 -48.5 -12.5t-32.5 -12.5h-123q-20 0 -51 22.5t-52 22.5q-39 0 -65.5 33t-26.5 49zM203 1229l6 164q2 15 11.5 28t19.5 13 q20 0 41 -41l112 -236q2 -5 9 -17.5t9.5 -17t7 -14.5t6.5 -17t3.5 -16.5t1.5 -19.5l-8 -154q-1 -15 -9 -28t-16 -13q-15 0 -41 41l-129 232q-24 39 -24 96zM420 1198l8 133q3 35 34.5 58.5t59.5 23.5q25 0 48.5 -21.5t23.5 -50.5l-14 -235q-1 -18 -16.5 -64t-16.5 -79 l-4 -72q-2 -20 -15.5 -46t-31.5 -26t-36 23t-18 39l9 143q0 29 -15.5 83t-15.5 91z" />
<glyph unicode="&#x22;" d="M49 901l25 512q3 32 13 57t22 25q17 0 49 -44t32 -79l-8 -164q0 -30 20.5 -71t20.5 -72l-6 -123q-3 -43 -34.5 -78t-69.5 -35q-29 0 -46.5 23t-17.5 49zM420 1198l8 133q3 35 34.5 58.5t59.5 23.5q25 0 48.5 -21.5t23.5 -50.5l-14 -235q-1 -18 -16.5 -64t-16.5 -79 l-4 -72q-2 -20 -15.5 -46t-31.5 -26t-36 23t-18 39l9 143q0 29 -15.5 83t-15.5 91z" />
<glyph unicode="#" d="M41 20q0 5 4.5 10.5t18.5 18.5t18 17q1 1 6.5 5.5t7 5.5t7 5t8.5 5.5t8.5 4.5t9.5 4.5t10 3t12 2t13 0.5q19 0 57.5 26t65.5 26h41q44 0 79.5 -15.5t63.5 -15.5q33 0 58.5 15.5t43.5 15.5h144q36 0 62 -10t40 -20.5t21 -10.5q30 0 61 -31q41 -41 41 -62q0 -7 -13 -13.5 t-28 -6.5h-829q-14 0 -22.5 6t-8.5 14zM141 778q0 32 30.5 57t68.5 25h102q38 0 68 -25t30 -57t-31 -57t-71 -25h-94q-40 0 -71.5 25t-31.5 57zM379 225l6 123q3 47 19 88t16 76l4 61q2 35 4.5 58t8.5 44.5t17 31.5t27 10q23 0 37 -51t14 -93q0 -24 5.5 -77.5t5.5 -85.5 l-6 -185q-2 -32 -24 -57t-52 -25q-27 0 -54.5 29t-27.5 53zM420 1198l8 133q3 35 34.5 58.5t59.5 23.5q25 0 48.5 -21.5t23.5 -50.5l-14 -235q-1 -18 -16.5 -64t-16.5 -79l-4 -72q-2 -20 -15.5 -46t-31.5 -26t-36 23t-18 39l9 143q0 29 -15.5 83t-15.5 91zM530 778 q0 32 30.5 57t68.5 25h205q38 0 68 -25t30 -57t-31.5 -57t-71.5 -25h-196q-40 0 -71.5 25t-31.5 57zM840 451l8 163q3 47 42 80t62 33q24 0 45 -30t21 -62l-27 -512q-1 -18 -11 -29.5t-22 -11.5q-35 0 -62.5 34.5t-27.5 67.5l6 123q0 27 -17 72.5t-17 71.5zM868 922l9 174 q2 19 24.5 62.5t24.5 70.5l6 164q3 27 45 59.5t57 32.5q11 0 20 -15.5t9 -35.5l-33 -574q-1 -17 -20.5 -29t-44.5 -12q-18 0 -57.5 37.5t-39.5 65.5z" />
<glyph unicode="$" d="M41 20q0 5 4.5 10.5t18.5 18.5t18 17q1 1 6.5 5.5t7 5.5t7 5t8.5 5.5t8.5 4.5t9.5 4.5t10 3t12 2t13 0.5q19 0 57.5 26t65.5 26h41q44 0 79.5 -15.5t63.5 -15.5q33 0 58.5 15.5t43.5 15.5h144q36 0 62 -10t40 -20.5t21 -10.5q30 0 61 -31q41 -41 41 -62q0 -7 -13 -13.5 t-28 -6.5h-829q-14 0 -22.5 6t-8.5 14zM49 901l25 512q3 32 13 57t22 25q17 0 49 -44t32 -79l-8 -164q0 -30 20.5 -71t20.5 -72l-6 -123q-3 -43 -34.5 -78t-69.5 -35q-29 0 -46.5 23t-17.5 49zM133 1536q0 8 8.5 14t22.5 6h799q51 0 51 -24q0 -20 -33 -57t-49 -37h-31 q-22 0 -40 -14.5t-32 -14.5h-215q-20 0 -41 12.5t-41 12.5q-23 0 -48.5 -12.5t-32.5 -12.5h-123q-20 0 -51 22.5t-52 22.5q-39 0 -65.5 33t-26.5 49zM141 778q0 32 30.5 57t68.5 25h102q38 0 68 -25t30 -57t-31 -57t-71 -25h-94q-40 0 -71.5 25t-31.5 57zM379 225l6 123 q3 47 19 88t16 76l4 61q2 35 4.5 58t8.5 44.5t17 31.5t27 10q23 0 37 -51t14 -93q0 -24 5.5 -77.5t5.5 -85.5l-6 -185q-2 -32 -24 -57t-52 -25q-27 0 -54.5 29t-27.5 53zM420 1198l8 133q3 35 34.5 58.5t59.5 23.5q25 0 48.5 -21.5t23.5 -50.5l-14 -235q-1 -18 -16.5 -64 t-16.5 -79l-4 -72q-2 -20 -15.5 -46t-31.5 -26t-36 23t-18 39l9 143q0 29 -15.5 83t-15.5 91zM530 778q0 32 30.5 57t68.5 25h205q38 0 68 -25t30 -57t-31.5 -57t-71.5 -25h-196q-40 0 -71.5 25t-31.5 57zM840 451l8 163q3 47 42 80t62 33q24 0 45 -30t21 -62l-27 -512 q-1 -18 -11 -29.5t-22 -11.5q-35 0 -62.5 34.5t-27.5 67.5l6 123q0 27 -17 72.5t-17 71.5z" />
<glyph unicode="%" d="M41 20q0 5 4.5 10.5t18.5 18.5t18 17q1 1 6.5 5.5t7 5.5t7 5t8.5 5.5t8.5 4.5t9.5 4.5t10 3t12 2t13 0.5q19 0 57.5 26t65.5 26h41q44 0 79.5 -15.5t63.5 -15.5q33 0 58.5 15.5t43.5 15.5h144q36 0 62 -10t40 -20.5t21 -10.5q30 0 61 -31q41 -41 41 -62q0 -7 -13 -13.5 t-28 -6.5h-829q-14 0 -22.5 6t-8.5 14zM49 901l25 512q3 32 13 57t22 25q17 0 49 -44t32 -79l-8 -164q0 -30 20.5 -71t20.5 -72l-6 -123q-3 -43 -34.5 -78t-69.5 -35q-29 0 -46.5 23t-17.5 49zM133 1536q0 8 8.5 14t22.5 6h799q51 0 51 -24q0 -20 -33 -57t-49 -37h-31 q-22 0 -40 -14.5t-32 -14.5h-215q-20 0 -41 12.5t-41 12.5q-23 0 -48.5 -12.5t-32.5 -12.5h-123q-20 0 -51 22.5t-52 22.5q-39 0 -65.5 33t-26.5 49zM141 778q0 32 30.5 57t68.5 25h102q38 0 68 -25t30 -57t-31 -57t-71 -25h-94q-40 0 -71.5 25t-31.5 57zM147 164l7 133 q2 22 7.5 39t10 25.5t15 23t14.5 21.5l133 225q3 4 12.5 17.5t16 21t17 15t21.5 7.5q6 0 10.5 -13t4.5 -28l-10 -159q-4 -45 -25 -66l-154 -262q-9 -18 -25.5 -29.5t-31.5 -11.5q-23 0 -23 41zM379 225l6 123q3 47 19 88t16 76l4 61q2 35 4.5 58t8.5 44.5t17 31.5t27 10 q23 0 37 -51t14 -93q0 -24 5.5 -77.5t5.5 -85.5l-6 -185q-2 -32 -24 -57t-52 -25q-27 0 -54.5 29t-27.5 53zM420 1198l8 133q3 35 34.5 58.5t59.5 23.5q25 0 48.5 -21.5t23.5 -50.5l-14 -235q-1 -18 -16.5 -64t-16.5 -79l-4 -72q-2 -20 -15.5 -46t-31.5 -26t-36 23t-18 39 l9 143q0 29 -15.5 83t-15.5 91zM530 778q0 32 30.5 57t68.5 25h205q38 0 68 -25t30 -57t-31.5 -57t-71.5 -25h-196q-40 0 -71.5 25t-31.5 57zM559 922q6 57 45 102l221 334q33 51 58 51q15 0 23.5 -20.5t8.5 -51.5l-6 -102q-1 -9 -2 -17t-3 -15t-3.5 -12.5t-4.5 -12t-5 -10 t-6 -9.5t-6 -8.5t-6.5 -9t-6.5 -8.5l-139 -222q-26 -37 -65 -37h-58q-45 0 -45 48zM840 451l8 163q3 47 42 80t62 33q24 0 45 -30t21 -62l-27 -512q-1 -18 -11 -29.5t-22 -11.5q-35 0 -62.5 34.5t-27.5 67.5l6 123q0 27 -17 72.5t-17 71.5z" />
<glyph unicode="&#x26;" d="M6 92l27 553q3 32 28 57t52 25q31 0 57.5 -32t26.5 -70l-9 -164q-2 -33 -22.5 -69.5t-22.5 -53.5l-8 -174q-3 -34 -38 -68.5t-54 -34.5q-12 0 -24.5 8.5t-12.5 22.5zM41 20q0 5 4.5 10.5t18.5 18.5t18 17q1 1 6.5 5.5t7 5.5t7 5t8.5 5.5t8.5 4.5t9.5 4.5t10 3t12 2 t13 0.5q19 0 57.5 26t65.5 26h41q44 0 79.5 -15.5t63.5 -15.5q33 0 58.5 15.5t43.5 15.5h144q36 0 62 -10t40 -20.5t21 -10.5q30 0 61 -31q41 -41 41 -62q0 -7 -13 -13.5t-28 -6.5h-829q-14 0 -22.5 6t-8.5 14zM133 1536q0 8 8.5 14t22.5 6h799q51 0 51 -24q0 -20 -33 -57 t-49 -37h-31q-22 0 -40 -14.5t-32 -14.5h-215q-20 0 -41 12.5t-41 12.5q-23 0 -48.5 -12.5t-32.5 -12.5h-123q-20 0 -51 22.5t-52 22.5q-39 0 -65.5 33t-26.5 49zM141 778q0 32 30.5 57t68.5 25h102q38 0 68 -25t30 -57t-31 -57t-71 -25h-94q-40 0 -71.5 25t-31.5 57z M203 1229l6 164q2 15 11.5 28t19.5 13q20 0 41 -41l112 -236q2 -5 9 -17.5t9.5 -17t7 -14.5t6.5 -17t3.5 -16.5t1.5 -19.5l-8 -154q-1 -15 -9 -28t-16 -13q-15 0 -41 41l-129 232q-24 39 -24 96zM420 1198l8 133q3 35 34.5 58.5t59.5 23.5q25 0 48.5 -21.5t23.5 -50.5 l-14 -235q-1 -18 -16.5 -64t-16.5 -79l-4 -72q-2 -20 -15.5 -46t-31.5 -26t-36 23t-18 39l9 143q0 29 -15.5 83t-15.5 91zM547 610l2 41q1 14 10.5 22.5t20.5 8.5h57q18 0 30.5 -6.5t19.5 -15.5l7 -9l123 -225q41 -75 41 -115l-6 -123q-3 -22 -12 -36.5t-17 -14.5 q-7 0 -20 8.5t-19 18.5l-211 368q-11 20 -15 29t-7.5 21.5t-3.5 27.5zM840 451l8 163q3 47 42 80t62 33q24 0 45 -30t21 -62l-27 -512q-1 -18 -11 -29.5t-22 -11.5q-35 0 -62.5 34.5t-27.5 67.5l6 123q0 27 -17 72.5t-17 71.5z" />
<glyph unicode="(" d="M547 610l2 41q1 14 10.5 22.5t20.5 8.5h57q18 0 30.5 -6.5t19.5 -15.5l7 -9l123 -225q41 -75 41 -115l-6 -123q-3 -22 -12 -36.5t-17 -14.5q-7 0 -20 8.5t-19 18.5l-211 368q-11 20 -15 29t-7.5 21.5t-3.5 27.5zM559 922q6 57 45 102l221 334q33 51 58 51 q15 0 23.5 -20.5t8.5 -51.5l-6 -102q-1 -9 -2 -17t-3 -15t-3.5 -12.5t-4.5 -12t-5 -10t-6 -9.5t-6 -8.5t-6.5 -9t-6.5 -8.5l-139 -222q-26 -37 -65 -37h-58q-45 0 -45 48z" />
<glyph unicode=")" d="M147 164l7 133q2 22 7.5 39t10 25.5t15 23t14.5 21.5l133 225q3 4 12.5 17.5t16 21t17 15t21.5 7.5q6 0 10.5 -13t4.5 -28l-10 -159q-4 -45 -25 -66l-154 -262q-9 -18 -25.5 -29.5t-31.5 -11.5q-23 0 -23 41zM203 1229l6 164q2 15 11.5 28t19.5 13q20 0 41 -41l112 -236 q2 -5 9 -17.5t9.5 -17t7 -14.5t6.5 -17t3.5 -16.5t1.5 -19.5l-8 -154q-1 -15 -9 -28t-16 -13q-15 0 -41 41l-129 232q-24 39 -24 96z" />
<glyph unicode="*" d="M141 778q0 32 30.5 57t68.5 25h102q38 0 68 -25t30 -57t-31 -57t-71 -25h-94q-40 0 -71.5 25t-31.5 57zM147 164l7 133q2 22 7.5 39t10 25.5t15 23t14.5 21.5l133 225q3 4 12.5 17.5t16 21t17 15t21.5 7.5q6 0 10.5 -13t4.5 -28l-10 -159q-4 -45 -25 -66l-154 -262 q-9 -18 -25.5 -29.5t-31.5 -11.5q-23 0 -23 41zM203 1229l6 164q2 15 11.5 28t19.5 13q20 0 41 -41l112 -236q2 -5 9 -17.5t9.5 -17t7 -14.5t6.5 -17t3.5 -16.5t1.5 -19.5l-8 -154q-1 -15 -9 -28t-16 -13q-15 0 -41 41l-129 232q-24 39 -24 96zM379 225l6 123q3 47 19 88 t16 76l4 61q2 35 4.5 58t8.5 44.5t17 31.5t27 10q23 0 37 -51t14 -93q0 -24 5.5 -77.5t5.5 -85.5l-6 -185q-2 -32 -24 -57t-52 -25q-27 0 -54.5 29t-27.5 53zM420 1198l8 133q3 35 34.5 58.5t59.5 23.5q25 0 48.5 -21.5t23.5 -50.5l-14 -235q-1 -18 -16.5 -64t-16.5 -79 l-4 -72q-2 -20 -15.5 -46t-31.5 -26t-36 23t-18 39l9 143q0 29 -15.5 83t-15.5 91zM530 778q0 32 30.5 57t68.5 25h205q38 0 68 -25t30 -57t-31.5 -57t-71.5 -25h-196q-40 0 -71.5 25t-31.5 57zM547 610l2 41q1 14 10.5 22.5t20.5 8.5h57q18 0 30.5 -6.5t19.5 -15.5l7 -9 l123 -225q41 -75 41 -115l-6 -123q-3 -22 -12 -36.5t-17 -14.5q-7 0 -20 8.5t-19 18.5l-211 368q-11 20 -15 29t-7.5 21.5t-3.5 27.5zM559 922q6 57 45 102l221 334q33 51 58 51q15 0 23.5 -20.5t8.5 -51.5l-6 -102q-1 -9 -2 -17t-3 -15t-3.5 -12.5t-4.5 -12t-5 -10t-6 -9.5 t-6 -8.5t-6.5 -9t-6.5 -8.5l-139 -222q-26 -37 -65 -37h-58q-45 0 -45 48z" />
<glyph unicode="+" d="M141 778q0 32 30.5 57t68.5 25h102q38 0 68 -25t30 -57t-31 -57t-71 -25h-94q-40 0 -71.5 25t-31.5 57zM379 225l6 123q3 47 19 88t16 76l4 61q2 35 4.5 58t8.5 44.5t17 31.5t27 10q23 0 37 -51t14 -93q0 -24 5.5 -77.5t5.5 -85.5l-6 -185q-2 -32 -24 -57t-52 -25 q-27 0 -54.5 29t-27.5 53zM420 1198l8 133q3 35 34.5 58.5t59.5 23.5q25 0 48.5 -21.5t23.5 -50.5l-14 -235q-1 -18 -16.5 -64t-16.5 -79l-4 -72q-2 -20 -15.5 -46t-31.5 -26t-36 23t-18 39l9 143q0 29 -15.5 83t-15.5 91zM530 778q0 32 30.5 57t68.5 25h205q38 0 68 -25 t30 -57t-31.5 -57t-71.5 -25h-196q-40 0 -71.5 25t-31.5 57z" />
<glyph unicode="," d="M147 164l7 133q2 22 7.5 39t10 25.5t15 23t14.5 21.5l133 225q3 4 12.5 17.5t16 21t17 15t21.5 7.5q6 0 10.5 -13t4.5 -28l-10 -159q-4 -45 -25 -66l-154 -262q-9 -18 -25.5 -29.5t-31.5 -11.5q-23 0 -23 41z" />
<glyph unicode="-" d="M141 778q0 32 30.5 57t68.5 25h102q38 0 68 -25t30 -57t-31 -57t-71 -25h-94q-40 0 -71.5 25t-31.5 57zM530 778q0 32 30.5 57t68.5 25h205q38 0 68 -25t30 -57t-31.5 -57t-71.5 -25h-196q-40 0 -71.5 25t-31.5 57z" />
<glyph unicode="." d="M141 778q0 32 30.5 57t68.5 25h102q38 0 68 -25t30 -57t-31 -57t-71 -25h-94q-40 0 -71.5 25t-31.5 57zM530 778q0 32 30.5 57t68.5 25h205q38 0 68 -25t30 -57t-31.5 -57t-71.5 -25h-196q-40 0 -71.5 25t-31.5 57z" />
<glyph unicode="/" d="M147 164l7 133q2 22 7.5 39t10 25.5t15 23t14.5 21.5l133 225q3 4 12.5 17.5t16 21t17 15t21.5 7.5q6 0 10.5 -13t4.5 -28l-10 -159q-4 -45 -25 -66l-154 -262q-9 -18 -25.5 -29.5t-31.5 -11.5q-23 0 -23 41zM559 922q6 57 45 102l221 334q33 51 58 51q15 0 23.5 -20.5 t8.5 -51.5l-6 -102q-1 -9 -2 -17t-3 -15t-3.5 -12.5t-4.5 -12t-5 -10t-6 -9.5t-6 -8.5t-6.5 -9t-6.5 -8.5l-139 -222q-26 -37 -65 -37h-58q-45 0 -45 48z" />
<glyph unicode="0" d="M6 92l27 553q3 32 28 57t52 25q31 0 57.5 -32t26.5 -70l-9 -164q-2 -33 -22.5 -69.5t-22.5 -53.5l-8 -174q-3 -34 -38 -68.5t-54 -34.5q-12 0 -24.5 8.5t-12.5 22.5zM41 20q0 5 4.5 10.5t18.5 18.5t18 17q1 1 6.5 5.5t7 5.5t7 5t8.5 5.5t8.5 4.5t9.5 4.5t10 3t12 2 t13 0.5q19 0 57.5 26t65.5 26h41q44 0 79.5 -15.5t63.5 -15.5q33 0 58.5 15.5t43.5 15.5h144q36 0 62 -10t40 -20.5t21 -10.5q30 0 61 -31q41 -41 41 -62q0 -7 -13 -13.5t-28 -6.5h-829q-14 0 -22.5 6t-8.5 14zM49 901l25 512q3 32 13 57t22 25q17 0 49 -44t32 -79l-8 -164 q0 -30 20.5 -71t20.5 -72l-6 -123q-3 -43 -34.5 -78t-69.5 -35q-29 0 -46.5 23t-17.5 49zM133 1536q0 8 8.5 14t22.5 6h799q51 0 51 -24q0 -20 -33 -57t-49 -37h-31q-22 0 -40 -14.5t-32 -14.5h-215q-20 0 -41 12.5t-41 12.5q-23 0 -48.5 -12.5t-32.5 -12.5h-123 q-20 0 -51 22.5t-52 22.5q-39 0 -65.5 33t-26.5 49zM147 164l7 133q2 22 7.5 39t10 25.5t15 23t14.5 21.5l133 225q3 4 12.5 17.5t16 21t17 15t21.5 7.5q6 0 10.5 -13t4.5 -28l-10 -159q-4 -45 -25 -66l-154 -262q-9 -18 -25.5 -29.5t-31.5 -11.5q-23 0 -23 41zM559 922 q6 57 45 102l221 334q33 51 58 51q15 0 23.5 -20.5t8.5 -51.5l-6 -102q-1 -9 -2 -17t-3 -15t-3.5 -12.5t-4.5 -12t-5 -10t-6 -9.5t-6 -8.5t-6.5 -9t-6.5 -8.5l-139 -222q-26 -37 -65 -37h-58q-45 0 -45 48zM840 451l8 163q3 47 42 80t62 33q24 0 45 -30t21 -62l-27 -512 q-1 -18 -11 -29.5t-22 -11.5q-35 0 -62.5 34.5t-27.5 67.5l6 123q0 27 -17 72.5t-17 71.5zM868 922l9 174q2 19 24.5 62.5t24.5 70.5l6 164q3 27 45 59.5t57 32.5q11 0 20 -15.5t9 -35.5l-33 -574q-1 -17 -20.5 -29t-44.5 -12q-18 0 -57.5 37.5t-39.5 65.5z" />
<glyph unicode="1" d="M379 225l6 123q3 47 19 88t16 76l4 61q2 35 4.5 58t8.5 44.5t17 31.5t27 10q23 0 37 -51t14 -93q0 -24 5.5 -77.5t5.5 -85.5l-6 -185q-2 -32 -24 -57t-52 -25q-27 0 -54.5 29t-27.5 53zM420 1198l8 133q3 35 34.5 58.5t59.5 23.5q25 0 48.5 -21.5t23.5 -50.5l-14 -235 q-1 -18 -16.5 -64t-16.5 -79l-4 -72q-2 -20 -15.5 -46t-31.5 -26t-36 23t-18 39l9 143q0 29 -15.5 83t-15.5 91z" />
<glyph unicode="2" d="M6 92l27 553q3 32 28 57t52 25q31 0 57.5 -32t26.5 -70l-9 -164q-2 -33 -22.5 -69.5t-22.5 -53.5l-8 -174q-3 -34 -38 -68.5t-54 -34.5q-12 0 -24.5 8.5t-12.5 22.5zM41 20q0 5 4.5 10.5t18.5 18.5t18 17q1 1 6.5 5.5t7 5.5t7 5t8.5 5.5t8.5 4.5t9.5 4.5t10 3t12 2 t13 0.5q19 0 57.5 26t65.5 26h41q44 0 79.5 -15.5t63.5 -15.5q33 0 58.5 15.5t43.5 15.5h144q36 0 62 -10t40 -20.5t21 -10.5q30 0 61 -31q41 -41 41 -62q0 -7 -13 -13.5t-28 -6.5h-829q-14 0 -22.5 6t-8.5 14zM133 1536q0 8 8.5 14t22.5 6h799q51 0 51 -24q0 -20 -33 -57 t-49 -37h-31q-22 0 -40 -14.5t-32 -14.5h-215q-20 0 -41 12.5t-41 12.5q-23 0 -48.5 -12.5t-32.5 -12.5h-123q-20 0 -51 22.5t-52 22.5q-39 0 -65.5 33t-26.5 49zM141 778q0 32 30.5 57t68.5 25h102q38 0 68 -25t30 -57t-31 -57t-71 -25h-94q-40 0 -71.5 25t-31.5 57z M530 778q0 32 30.5 57t68.5 25h205q38 0 68 -25t30 -57t-31.5 -57t-71.5 -25h-196q-40 0 -71.5 25t-31.5 57zM868 922l9 174q2 19 24.5 62.5t24.5 70.5l6 164q3 27 45 59.5t57 32.5q11 0 20 -15.5t9 -35.5l-33 -574q-1 -17 -20.5 -29t-44.5 -12q-18 0 -57.5 37.5t-39.5 65.5 z" />
<glyph unicode="3" d="M41 20q0 5 4.5 10.5t18.5 18.5t18 17q1 1 6.5 5.5t7 5.5t7 5t8.5 5.5t8.5 4.5t9.5 4.5t10 3t12 2t13 0.5q19 0 57.5 26t65.5 26h41q44 0 79.5 -15.5t63.5 -15.5q33 0 58.5 15.5t43.5 15.5h144q36 0 62 -10t40 -20.5t21 -10.5q30 0 61 -31q41 -41 41 -62q0 -7 -13 -13.5 t-28 -6.5h-829q-14 0 -22.5 6t-8.5 14zM133 1536q0 8 8.5 14t22.5 6h799q51 0 51 -24q0 -20 -33 -57t-49 -37h-31q-22 0 -40 -14.5t-32 -14.5h-215q-20 0 -41 12.5t-41 12.5q-23 0 -48.5 -12.5t-32.5 -12.5h-123q-20 0 -51 22.5t-52 22.5q-39 0 -65.5 33t-26.5 49zM141 778 q0 32 30.5 57t68.5 25h102q38 0 68 -25t30 -57t-31 -57t-71 -25h-94q-40 0 -71.5 25t-31.5 57zM530 778q0 32 30.5 57t68.5 25h205q38 0 68 -25t30 -57t-31.5 -57t-71.5 -25h-196q-40 0 -71.5 25t-31.5 57zM840 451l8 163q3 47 42 80t62 33q24 0 45 -30t21 -62l-27 -512 q-1 -18 -11 -29.5t-22 -11.5q-35 0 -62.5 34.5t-27.5 67.5l6 123q0 27 -17 72.5t-17 71.5zM868 922l9 174q2 19 24.5 62.5t24.5 70.5l6 164q3 27 45 59.5t57 32.5q11 0 20 -15.5t9 -35.5l-33 -574q-1 -17 -20.5 -29t-44.5 -12q-18 0 -57.5 37.5t-39.5 65.5z" />
<glyph unicode="4" d="M49 901l25 512q3 32 13 57t22 25q17 0 49 -44t32 -79l-8 -164q0 -30 20.5 -71t20.5 -72l-6 -123q-3 -43 -34.5 -78t-69.5 -35q-29 0 -46.5 23t-17.5 49zM141 778q0 32 30.5 57t68.5 25h102q38 0 68 -25t30 -57t-31 -57t-71 -25h-94q-40 0 -71.5 25t-31.5 57zM530 778 q0 32 30.5 57t68.5 25h205q38 0 68 -25t30 -57t-31.5 -57t-71.5 -25h-196q-40 0 -71.5 25t-31.5 57zM840 451l8 163q3 47 42 80t62 33q24 0 45 -30t21 -62l-27 -512q-1 -18 -11 -29.5t-22 -11.5q-35 0 -62.5 34.5t-27.5 67.5l6 123q0 27 -17 72.5t-17 71.5zM868 922l9 174 q2 19 24.5 62.5t24.5 70.5l6 164q3 27 45 59.5t57 32.5q11 0 20 -15.5t9 -35.5l-33 -574q-1 -17 -20.5 -29t-44.5 -12q-18 0 -57.5 37.5t-39.5 65.5z" />
<glyph unicode="5" d="M41 20q0 5 4.5 10.5t18.5 18.5t18 17q1 1 6.5 5.5t7 5.5t7 5t8.5 5.5t8.5 4.5t9.5 4.5t10 3t12 2t13 0.5q19 0 57.5 26t65.5 26h41q44 0 79.5 -15.5t63.5 -15.5q33 0 58.5 15.5t43.5 15.5h144q36 0 62 -10t40 -20.5t21 -10.5q30 0 61 -31q41 -41 41 -62q0 -7 -13 -13.5 t-28 -6.5h-829q-14 0 -22.5 6t-8.5 14zM49 901l25 512q3 32 13 57t22 25q17 0 49 -44t32 -79l-8 -164q0 -30 20.5 -71t20.5 -72l-6 -123q-3 -43 -34.5 -78t-69.5 -35q-29 0 -46.5 23t-17.5 49zM133 1536q0 8 8.5 14t22.5 6h799q51 0 51 -24q0 -20 -33 -57t-49 -37h-31 q-22 0 -40 -14.5t-32 -14.5h-215q-20 0 -41 12.5t-41 12.5q-23 0 -48.5 -12.5t-32.5 -12.5h-123q-20 0 -51 22.5t-52 22.5q-39 0 -65.5 33t-26.5 49zM141 778q0 32 30.5 57t68.5 25h102q38 0 68 -25t30 -57t-31 -57t-71 -25h-94q-40 0 -71.5 25t-31.5 57zM530 778 q0 32 30.5 57t68.5 25h205q38 0 68 -25t30 -57t-31.5 -57t-71.5 -25h-196q-40 0 -71.5 25t-31.5 57zM840 451l8 163q3 47 42 80t62 33q24 0 45 -30t21 -62l-27 -512q-1 -18 -11 -29.5t-22 -11.5q-35 0 -62.5 34.5t-27.5 67.5l6 123q0 27 -17 72.5t-17 71.5z" />
<glyph unicode="6" d="M6 92l27 553q3 32 28 57t52 25q31 0 57.5 -32t26.5 -70l-9 -164q-2 -33 -22.5 -69.5t-22.5 -53.5l-8 -174q-3 -34 -38 -68.5t-54 -34.5q-12 0 -24.5 8.5t-12.5 22.5zM41 20q0 5 4.5 10.5t18.5 18.5t18 17q1 1 6.5 5.5t7 5.5t7 5t8.5 5.5t8.5 4.5t9.5 4.5t10 3t12 2 t13 0.5q19 0 57.5 26t65.5 26h41q44 0 79.5 -15.5t63.5 -15.5q33 0 58.5 15.5t43.5 15.5h144q36 0 62 -10t40 -20.5t21 -10.5q30 0 61 -31q41 -41 41 -62q0 -7 -13 -13.5t-28 -6.5h-829q-14 0 -22.5 6t-8.5 14zM49 901l25 512q3 32 13 57t22 25q17 0 49 -44t32 -79l-8 -164 q0 -30 20.5 -71t20.5 -72l-6 -123q-3 -43 -34.5 -78t-69.5 -35q-29 0 -46.5 23t-17.5 49zM133 1536q0 8 8.5 14t22.5 6h799q51 0 51 -24q0 -20 -33 -57t-49 -37h-31q-22 0 -40 -14.5t-32 -14.5h-215q-20 0 -41 12.5t-41 12.5q-23 0 -48.5 -12.5t-32.5 -12.5h-123 q-20 0 -51 22.5t-52 22.5q-39 0 -65.5 33t-26.5 49zM141 778q0 32 30.5 57t68.5 25h102q38 0 68 -25t30 -57t-31 -57t-71 -25h-94q-40 0 -71.5 25t-31.5 57zM530 778q0 32 30.5 57t68.5 25h205q38 0 68 -25t30 -57t-31.5 -57t-71.5 -25h-196q-40 0 -71.5 25t-31.5 57z M840 451l8 163q3 47 42 80t62 33q24 0 45 -30t21 -62l-27 -512q-1 -18 -11 -29.5t-22 -11.5q-35 0 -62.5 34.5t-27.5 67.5l6 123q0 27 -17 72.5t-17 71.5z" />
<glyph unicode="7" d="M133 1536q0 8 8.5 14t22.5 6h799q51 0 51 -24q0 -20 -33 -57t-49 -37h-31q-22 0 -40 -14.5t-32 -14.5h-215q-20 0 -41 12.5t-41 12.5q-23 0 -48.5 -12.5t-32.5 -12.5h-123q-20 0 -51 22.5t-52 22.5q-39 0 -65.5 33t-26.5 49zM840 451l8 163q3 47 42 80t62 33q24 0 45 -30 t21 -62l-27 -512q-1 -18 -11 -29.5t-22 -11.5q-35 0 -62.5 34.5t-27.5 67.5l6 123q0 27 -17 72.5t-17 71.5zM868 922l9 174q2 19 24.5 62.5t24.5 70.5l6 164q3 27 45 59.5t57 32.5q11 0 20 -15.5t9 -35.5l-33 -574q-1 -17 -20.5 -29t-44.5 -12q-18 0 -57.5 37.5t-39.5 65.5z " />
<glyph unicode="8" d="M6 92l27 553q3 32 28 57t52 25q31 0 57.5 -32t26.5 -70l-9 -164q-2 -33 -22.5 -69.5t-22.5 -53.5l-8 -174q-3 -34 -38 -68.5t-54 -34.5q-12 0 -24.5 8.5t-12.5 22.5zM41 20q0 5 4.5 10.5t18.5 18.5t18 17q1 1 6.5 5.5t7 5.5t7 5t8.5 5.5t8.5 4.5t9.5 4.5t10 3t12 2 t13 0.5q19 0 57.5 26t65.5 26h41q44 0 79.5 -15.5t63.5 -15.5q33 0 58.5 15.5t43.5 15.5h144q36 0 62 -10t40 -20.5t21 -10.5q30 0 61 -31q41 -41 41 -62q0 -7 -13 -13.5t-28 -6.5h-829q-14 0 -22.5 6t-8.5 14zM49 901l25 512q3 32 13 57t22 25q17 0 49 -44t32 -79l-8 -164 q0 -30 20.5 -71t20.5 -72l-6 -123q-3 -43 -34.5 -78t-69.5 -35q-29 0 -46.5 23t-17.5 49zM133 1536q0 8 8.5 14t22.5 6h799q51 0 51 -24q0 -20 -33 -57t-49 -37h-31q-22 0 -40 -14.5t-32 -14.5h-215q-20 0 -41 12.5t-41 12.5q-23 0 -48.5 -12.5t-32.5 -12.5h-123 q-20 0 -51 22.5t-52 22.5q-39 0 -65.5 33t-26.5 49zM141 778q0 32 30.5 57t68.5 25h102q38 0 68 -25t30 -57t-31 -57t-71 -25h-94q-40 0 -71.5 25t-31.5 57zM530 778q0 32 30.5 57t68.5 25h205q38 0 68 -25t30 -57t-31.5 -57t-71.5 -25h-196q-40 0 -71.5 25t-31.5 57z M840 451l8 163q3 47 42 80t62 33q24 0 45 -30t21 -62l-27 -512q-1 -18 -11 -29.5t-22 -11.5q-35 0 -62.5 34.5t-27.5 67.5l6 123q0 27 -17 72.5t-17 71.5zM868 922l9 174q2 19 24.5 62.5t24.5 70.5l6 164q3 27 45 59.5t57 32.5q11 0 20 -15.5t9 -35.5l-33 -574 q-1 -17 -20.5 -29t-44.5 -12q-18 0 -57.5 37.5t-39.5 65.5z" />
<glyph unicode="9" d="M41 20q0 5 4.5 10.5t18.5 18.5t18 17q1 1 6.5 5.5t7 5.5t7 5t8.5 5.5t8.5 4.5t9.5 4.5t10 3t12 2t13 0.5q19 0 57.5 26t65.5 26h41q44 0 79.5 -15.5t63.5 -15.5q33 0 58.5 15.5t43.5 15.5h144q36 0 62 -10t40 -20.5t21 -10.5q30 0 61 -31q41 -41 41 -62q0 -7 -13 -13.5 t-28 -6.5h-829q-14 0 -22.5 6t-8.5 14zM49 901l25 512q3 32 13 57t22 25q17 0 49 -44t32 -79l-8 -164q0 -30 20.5 -71t20.5 -72l-6 -123q-3 -43 -34.5 -78t-69.5 -35q-29 0 -46.5 23t-17.5 49zM133 1536q0 8 8.5 14t22.5 6h799q51 0 51 -24q0 -20 -33 -57t-49 -37h-31 q-22 0 -40 -14.5t-32 -14.5h-215q-20 0 -41 12.5t-41 12.5q-23 0 -48.5 -12.5t-32.5 -12.5h-123q-20 0 -51 22.5t-52 22.5q-39 0 -65.5 33t-26.5 49zM141 778q0 32 30.5 57t68.5 25h102q38 0 68 -25t30 -57t-31 -57t-71 -25h-94q-40 0 -71.5 25t-31.5 57zM530 778 q0 32 30.5 57t68.5 25h205q38 0 68 -25t30 -57t-31.5 -57t-71.5 -25h-196q-40 0 -71.5 25t-31.5 57zM840 451l8 163q3 47 42 80t62 33q24 0 45 -30t21 -62l-27 -512q-1 -18 -11 -29.5t-22 -11.5q-35 0 -62.5 34.5t-27.5 67.5l6 123q0 27 -17 72.5t-17 71.5zM868 922l9 174 q2 19 24.5 62.5t24.5 70.5l6 164q3 27 45 59.5t57 32.5q11 0 20 -15.5t9 -35.5l-33 -574q-1 -17 -20.5 -29t-44.5 -12q-18 0 -57.5 37.5t-39.5 65.5z" />
<glyph unicode=":" d="M133 1536q0 8 8.5 14t22.5 6h799q51 0 51 -24q0 -20 -33 -57t-49 -37h-31q-22 0 -40 -14.5t-32 -14.5h-215q-20 0 -41 12.5t-41 12.5q-23 0 -48.5 -12.5t-32.5 -12.5h-123q-20 0 -51 22.5t-52 22.5q-39 0 -65.5 33t-26.5 49z" />
<glyph unicode=";" d="M133 1536q0 8 8.5 14t22.5 6h799q51 0 51 -24q0 -20 -33 -57t-49 -37h-31q-22 0 -40 -14.5t-32 -14.5h-215q-20 0 -41 12.5t-41 12.5q-23 0 -48.5 -12.5t-32.5 -12.5h-123q-20 0 -51 22.5t-52 22.5q-39 0 -65.5 33t-26.5 49zM147 164l7 133q2 22 7.5 39t10 25.5t15 23 t14.5 21.5l133 225q3 4 12.5 17.5t16 21t17 15t21.5 7.5q6 0 10.5 -13t4.5 -28l-10 -159q-4 -45 -25 -66l-154 -262q-9 -18 -25.5 -29.5t-31.5 -11.5q-23 0 -23 41z" />
<glyph unicode="&#x3c;" d="M41 20q0 5 4.5 10.5t18.5 18.5t18 17q1 1 6.5 5.5t7 5.5t7 5t8.5 5.5t8.5 4.5t9.5 4.5t10 3t12 2t13 0.5q19 0 57.5 26t65.5 26h41q44 0 79.5 -15.5t63.5 -15.5q33 0 58.5 15.5t43.5 15.5h144q36 0 62 -10t40 -20.5t21 -10.5q30 0 61 -31q41 -41 41 -62q0 -7 -13 -13.5 t-28 -6.5h-829q-14 0 -22.5 6t-8.5 14zM147 164l7 133q2 22 7.5 39t10 25.5t15 23t14.5 21.5l133 225q3 4 12.5 17.5t16 21t17 15t21.5 7.5q6 0 10.5 -13t4.5 -28l-10 -159q-4 -45 -25 -66l-154 -262q-9 -18 -25.5 -29.5t-31.5 -11.5q-23 0 -23 41zM559 922q6 57 45 102 l221 334q33 51 58 51q15 0 23.5 -20.5t8.5 -51.5l-6 -102q-1 -9 -2 -17t-3 -15t-3.5 -12.5t-4.5 -12t-5 -10t-6 -9.5t-6 -8.5t-6.5 -9t-6.5 -8.5l-139 -222q-26 -37 -65 -37h-58q-45 0 -45 48z" />
<glyph unicode="=" d="M41 20q0 5 4.5 10.5t18.5 18.5t18 17q1 1 6.5 5.5t7 5.5t7 5t8.5 5.5t8.5 4.5t9.5 4.5t10 3t12 2t13 0.5q19 0 57.5 26t65.5 26h41q44 0 79.5 -15.5t63.5 -15.5q33 0 58.5 15.5t43.5 15.5h144q36 0 62 -10t40 -20.5t21 -10.5q30 0 61 -31q41 -41 41 -62q0 -7 -13 -13.5 t-28 -6.5h-829q-14 0 -22.5 6t-8.5 14zM141 778q0 32 30.5 57t68.5 25h102q38 0 68 -25t30 -57t-31 -57t-71 -25h-94q-40 0 -71.5 25t-31.5 57zM530 778q0 32 30.5 57t68.5 25h205q38 0 68 -25t30 -57t-31.5 -57t-71.5 -25h-196q-40 0 -71.5 25t-31.5 57z" />
<glyph unicode="&#x3e;" d="M41 20q0 5 4.5 10.5t18.5 18.5t18 17q1 1 6.5 5.5t7 5.5t7 5t8.5 5.5t8.5 4.5t9.5 4.5t10 3t12 2t13 0.5q19 0 57.5 26t65.5 26h41q44 0 79.5 -15.5t63.5 -15.5q33 0 58.5 15.5t43.5 15.5h144q36 0 62 -10t40 -20.5t21 -10.5q30 0 61 -31q41 -41 41 -62q0 -7 -13 -13.5 t-28 -6.5h-829q-14 0 -22.5 6t-8.5 14zM203 1229l6 164q2 15 11.5 28t19.5 13q20 0 41 -41l112 -236q2 -5 9 -17.5t9.5 -17t7 -14.5t6.5 -17t3.5 -16.5t1.5 -19.5l-8 -154q-1 -15 -9 -28t-16 -13q-15 0 -41 41l-129 232q-24 39 -24 96zM547 610l2 41q1 14 10.5 22.5 t20.5 8.5h57q18 0 30.5 -6.5t19.5 -15.5l7 -9l123 -225q41 -75 41 -115l-6 -123q-3 -22 -12 -36.5t-17 -14.5q-7 0 -20 8.5t-19 18.5l-211 368q-11 20 -15 29t-7.5 21.5t-3.5 27.5z" />
<glyph unicode="?" d="M133 1536q0 8 8.5 14t22.5 6h799q51 0 51 -24q0 -20 -33 -57t-49 -37h-31q-22 0 -40 -14.5t-32 -14.5h-215q-20 0 -41 12.5t-41 12.5q-23 0 -48.5 -12.5t-32.5 -12.5h-123q-20 0 -51 22.5t-52 22.5q-39 0 -65.5 33t-26.5 49zM379 225l6 123q3 47 19 88t16 76l4 61 q2 35 4.5 58t8.5 44.5t17 31.5t27 10q23 0 37 -51t14 -93q0 -24 5.5 -77.5t5.5 -85.5l-6 -185q-2 -32 -24 -57t-52 -25q-27 0 -54.5 29t-27.5 53zM530 778q0 32 30.5 57t68.5 25h205q38 0 68 -25t30 -57t-31.5 -57t-71.5 -25h-196q-40 0 -71.5 25t-31.5 57zM868 922l9 174 q2 19 24.5 62.5t24.5 70.5l6 164q3 27 45 59.5t57 32.5q11 0 20 -15.5t9 -35.5l-33 -574q-1 -17 -20.5 -29t-44.5 -12q-18 0 -57.5 37.5t-39.5 65.5z" />
<glyph unicode="@" d="M6 92l27 553q3 32 28 57t52 25q31 0 57.5 -32t26.5 -70l-9 -164q-2 -33 -22.5 -69.5t-22.5 -53.5l-8 -174q-3 -34 -38 -68.5t-54 -34.5q-12 0 -24.5 8.5t-12.5 22.5zM41 20q0 5 4.5 10.5t18.5 18.5t18 17q1 1 6.5 5.5t7 5.5t7 5t8.5 5.5t8.5 4.5t9.5 4.5t10 3t12 2 t13 0.5q19 0 57.5 26t65.5 26h41q44 0 79.5 -15.5t63.5 -15.5q33 0 58.5 15.5t43.5 15.5h144q36 0 62 -10t40 -20.5t21 -10.5q30 0 61 -31q41 -41 41 -62q0 -7 -13 -13.5t-28 -6.5h-829q-14 0 -22.5 6t-8.5 14zM133 1536q0 8 8.5 14t22.5 6h799q51 0 51 -24q0 -20 -33 -57 t-49 -37h-31q-22 0 -40 -14.5t-32 -14.5h-215q-20 0 -41 12.5t-41 12.5q-23 0 -48.5 -12.5t-32.5 -12.5h-123q-20 0 -51 22.5t-52 22.5q-39 0 -65.5 33t-26.5 49zM141 778q0 32 30.5 57t68.5 25h102q38 0 68 -25t30 -57t-31 -57t-71 -25h-94q-40 0 -71.5 25t-31.5 57z M379 225l6 123q3 47 19 88t16 76l4 61q2 35 4.5 58t8.5 44.5t17 31.5t27 10q23 0 37 -51t14 -93q0 -24 5.5 -77.5t5.5 -85.5l-6 -185q-2 -32 -24 -57t-52 -25q-27 0 -54.5 29t-27.5 53zM840 451l8 163q3 47 42 80t62 33q24 0 45 -30t21 -62l-27 -512q-1 -18 -11 -29.5 t-22 -11.5q-35 0 -62.5 34.5t-27.5 67.5l6 123q0 27 -17 72.5t-17 71.5zM868 922l9 174q2 19 24.5 62.5t24.5 70.5l6 164q3 27 45 59.5t57 32.5q11 0 20 -15.5t9 -35.5l-33 -574q-1 -17 -20.5 -29t-44.5 -12q-18 0 -57.5 37.5t-39.5 65.5z" />
<glyph unicode="A" d="M6 92l27 553q3 32 28 57t52 25q31 0 57.5 -32t26.5 -70l-9 -164q-2 -33 -22.5 -69.5t-22.5 -53.5l-8 -174q-3 -34 -38 -68.5t-54 -34.5q-12 0 -24.5 8.5t-12.5 22.5zM49 901l25 512q3 32 13 57t22 25q17 0 49 -44t32 -79l-8 -164q0 -30 20.5 -71t20.5 -72l-6 -123 q-3 -43 -34.5 -78t-69.5 -35q-29 0 -46.5 23t-17.5 49zM133 1536q0 8 8.5 14t22.5 6h799q51 0 51 -24q0 -20 -33 -57t-49 -37h-31q-22 0 -40 -14.5t-32 -14.5h-215q-20 0 -41 12.5t-41 12.5q-23 0 -48.5 -12.5t-32.5 -12.5h-123q-20 0 -51 22.5t-52 22.5q-39 0 -65.5 33 t-26.5 49zM141 778q0 32 30.5 57t68.5 25h102q38 0 68 -25t30 -57t-31 -57t-71 -25h-94q-40 0 -71.5 25t-31.5 57zM530 778q0 32 30.5 57t68.5 25h205q38 0 68 -25t30 -57t-31.5 -57t-71.5 -25h-196q-40 0 -71.5 25t-31.5 57zM840 451l8 163q3 47 42 80t62 33q24 0 45 -30 t21 -62l-27 -512q-1 -18 -11 -29.5t-22 -11.5q-35 0 -62.5 34.5t-27.5 67.5l6 123q0 27 -17 72.5t-17 71.5zM868 922l9 174q2 19 24.5 62.5t24.5 70.5l6 164q3 27 45 59.5t57 32.5q11 0 20 -15.5t9 -35.5l-33 -574q-1 -17 -20.5 -29t-44.5 -12q-18 0 -57.5 37.5t-39.5 65.5z " />
<glyph unicode="B" d="M41 20q0 5 4.5 10.5t18.5 18.5t18 17q1 1 6.5 5.5t7 5.5t7 5t8.5 5.5t8.5 4.5t9.5 4.5t10 3t12 2t13 0.5q19 0 57.5 26t65.5 26h41q44 0 79.5 -15.5t63.5 -15.5q33 0 58.5 15.5t43.5 15.5h144q36 0 62 -10t40 -20.5t21 -10.5q30 0 61 -31q41 -41 41 -62q0 -7 -13 -13.5 t-28 -6.5h-829q-14 0 -22.5 6t-8.5 14zM133 1536q0 8 8.5 14t22.5 6h799q51 0 51 -24q0 -20 -33 -57t-49 -37h-31q-22 0 -40 -14.5t-32 -14.5h-215q-20 0 -41 12.5t-41 12.5q-23 0 -48.5 -12.5t-32.5 -12.5h-123q-20 0 -51 22.5t-52 22.5q-39 0 -65.5 33t-26.5 49zM379 225 l6 123q3 47 19 88t16 76l4 61q2 35 4.5 58t8.5 44.5t17 31.5t27 10q23 0 37 -51t14 -93q0 -24 5.5 -77.5t5.5 -85.5l-6 -185q-2 -32 -24 -57t-52 -25q-27 0 -54.5 29t-27.5 53zM420 1198l8 133q3 35 34.5 58.5t59.5 23.5q25 0 48.5 -21.5t23.5 -50.5l-14 -235 q-1 -18 -16.5 -64t-16.5 -79l-4 -72q-2 -20 -15.5 -46t-31.5 -26t-36 23t-18 39l9 143q0 29 -15.5 83t-15.5 91zM530 778q0 32 30.5 57t68.5 25h205q38 0 68 -25t30 -57t-31.5 -57t-71.5 -25h-196q-40 0 -71.5 25t-31.5 57zM840 451l8 163q3 47 42 80t62 33q24 0 45 -30 t21 -62l-27 -512q-1 -18 -11 -29.5t-22 -11.5q-35 0 -62.5 34.5t-27.5 67.5l6 123q0 27 -17 72.5t-17 71.5zM868 922l9 174q2 19 24.5 62.5t24.5 70.5l6 164q3 27 45 59.5t57 32.5q11 0 20 -15.5t9 -35.5l-33 -574q-1 -17 -20.5 -29t-44.5 -12q-18 0 -57.5 37.5t-39.5 65.5z " />
<glyph unicode="C" d="M6 92l27 553q3 32 28 57t52 25q31 0 57.5 -32t26.5 -70l-9 -164q-2 -33 -22.5 -69.5t-22.5 -53.5l-8 -174q-3 -34 -38 -68.5t-54 -34.5q-12 0 -24.5 8.5t-12.5 22.5zM41 20q0 5 4.5 10.5t18.5 18.5t18 17q1 1 6.5 5.5t7 5.5t7 5t8.5 5.5t8.5 4.5t9.5 4.5t10 3t12 2 t13 0.5q19 0 57.5 26t65.5 26h41q44 0 79.5 -15.5t63.5 -15.5q33 0 58.5 15.5t43.5 15.5h144q36 0 62 -10t40 -20.5t21 -10.5q30 0 61 -31q41 -41 41 -62q0 -7 -13 -13.5t-28 -6.5h-829q-14 0 -22.5 6t-8.5 14zM49 901l25 512q3 32 13 57t22 25q17 0 49 -44t32 -79l-8 -164 q0 -30 20.5 -71t20.5 -72l-6 -123q-3 -43 -34.5 -78t-69.5 -35q-29 0 -46.5 23t-17.5 49zM133 1536q0 8 8.5 14t22.5 6h799q51 0 51 -24q0 -20 -33 -57t-49 -37h-31q-22 0 -40 -14.5t-32 -14.5h-215q-20 0 -41 12.5t-41 12.5q-23 0 -48.5 -12.5t-32.5 -12.5h-123 q-20 0 -51 22.5t-52 22.5q-39 0 -65.5 33t-26.5 49z" />
<glyph unicode="D" d="M41 20q0 5 4.5 10.5t18.5 18.5t18 17q1 1 6.5 5.5t7 5.5t7 5t8.5 5.5t8.5 4.5t9.5 4.5t10 3t12 2t13 0.5q19 0 57.5 26t65.5 26h41q44 0 79.5 -15.5t63.5 -15.5q33 0 58.5 15.5t43.5 15.5h144q36 0 62 -10t40 -20.5t21 -10.5q30 0 61 -31q41 -41 41 -62q0 -7 -13 -13.5 t-28 -6.5h-829q-14 0 -22.5 6t-8.5 14zM133 1536q0 8 8.5 14t22.5 6h799q51 0 51 -24q0 -20 -33 -57t-49 -37h-31q-22 0 -40 -14.5t-32 -14.5h-215q-20 0 -41 12.5t-41 12.5q-23 0 -48.5 -12.5t-32.5 -12.5h-123q-20 0 -51 22.5t-52 22.5q-39 0 -65.5 33t-26.5 49zM379 225 l6 123q3 47 19 88t16 76l4 61q2 35 4.5 58t8.5 44.5t17 31.5t27 10q23 0 37 -51t14 -93q0 -24 5.5 -77.5t5.5 -85.5l-6 -185q-2 -32 -24 -57t-52 -25q-27 0 -54.5 29t-27.5 53zM420 1198l8 133q3 35 34.5 58.5t59.5 23.5q25 0 48.5 -21.5t23.5 -50.5l-14 -235 q-1 -18 -16.5 -64t-16.5 -79l-4 -72q-2 -20 -15.5 -46t-31.5 -26t-36 23t-18 39l9 143q0 29 -15.5 83t-15.5 91zM840 451l8 163q3 47 42 80t62 33q24 0 45 -30t21 -62l-27 -512q-1 -18 -11 -29.5t-22 -11.5q-35 0 -62.5 34.5t-27.5 67.5l6 123q0 27 -17 72.5t-17 71.5z M868 922l9 174q2 19 24.5 62.5t24.5 70.5l6 164q3 27 45 59.5t57 32.5q11 0 20 -15.5t9 -35.5l-33 -574q-1 -17 -20.5 -29t-44.5 -12q-18 0 -57.5 37.5t-39.5 65.5z" />
<glyph unicode="E" d="M6 92l27 553q3 32 28 57t52 25q31 0 57.5 -32t26.5 -70l-9 -164q-2 -33 -22.5 -69.5t-22.5 -53.5l-8 -174q-3 -34 -38 -68.5t-54 -34.5q-12 0 -24.5 8.5t-12.5 22.5zM41 20q0 5 4.5 10.5t18.5 18.5t18 17q1 1 6.5 5.5t7 5.5t7 5t8.5 5.5t8.5 4.5t9.5 4.5t10 3t12 2 t13 0.5q19 0 57.5 26t65.5 26h41q44 0 79.5 -15.5t63.5 -15.5q33 0 58.5 15.5t43.5 15.5h144q36 0 62 -10t40 -20.5t21 -10.5q30 0 61 -31q41 -41 41 -62q0 -7 -13 -13.5t-28 -6.5h-829q-14 0 -22.5 6t-8.5 14zM49 901l25 512q3 32 13 57t22 25q17 0 49 -44t32 -79l-8 -164 q0 -30 20.5 -71t20.5 -72l-6 -123q-3 -43 -34.5 -78t-69.5 -35q-29 0 -46.5 23t-17.5 49zM133 1536q0 8 8.5 14t22.5 6h799q51 0 51 -24q0 -20 -33 -57t-49 -37h-31q-22 0 -40 -14.5t-32 -14.5h-215q-20 0 -41 12.5t-41 12.5q-23 0 -48.5 -12.5t-32.5 -12.5h-123 q-20 0 -51 22.5t-52 22.5q-39 0 -65.5 33t-26.5 49zM141 778q0 32 30.5 57t68.5 25h102q38 0 68 -25t30 -57t-31 -57t-71 -25h-94q-40 0 -71.5 25t-31.5 57z" />
<glyph unicode="F" d="M6 92l27 553q3 32 28 57t52 25q31 0 57.5 -32t26.5 -70l-9 -164q-2 -33 -22.5 -69.5t-22.5 -53.5l-8 -174q-3 -34 -38 -68.5t-54 -34.5q-12 0 -24.5 8.5t-12.5 22.5zM49 901l25 512q3 32 13 57t22 25q17 0 49 -44t32 -79l-8 -164q0 -30 20.5 -71t20.5 -72l-6 -123 q-3 -43 -34.5 -78t-69.5 -35q-29 0 -46.5 23t-17.5 49zM133 1536q0 8 8.5 14t22.5 6h799q51 0 51 -24q0 -20 -33 -57t-49 -37h-31q-22 0 -40 -14.5t-32 -14.5h-215q-20 0 -41 12.5t-41 12.5q-23 0 -48.5 -12.5t-32.5 -12.5h-123q-20 0 -51 22.5t-52 22.5q-39 0 -65.5 33 t-26.5 49zM141 778q0 32 30.5 57t68.5 25h102q38 0 68 -25t30 -57t-31 -57t-71 -25h-94q-40 0 -71.5 25t-31.5 57z" />
<glyph unicode="G" d="M6 92l27 553q3 32 28 57t52 25q31 0 57.5 -32t26.5 -70l-9 -164q-2 -33 -22.5 -69.5t-22.5 -53.5l-8 -174q-3 -34 -38 -68.5t-54 -34.5q-12 0 -24.5 8.5t-12.5 22.5zM41 20q0 5 4.5 10.5t18.5 18.5t18 17q1 1 6.5 5.5t7 5.5t7 5t8.5 5.5t8.5 4.5t9.5 4.5t10 3t12 2 t13 0.5q19 0 57.5 26t65.5 26h41q44 0 79.5 -15.5t63.5 -15.5q33 0 58.5 15.5t43.5 15.5h144q36 0 62 -10t40 -20.5t21 -10.5q30 0 61 -31q41 -41 41 -62q0 -7 -13 -13.5t-28 -6.5h-829q-14 0 -22.5 6t-8.5 14zM49 901l25 512q3 32 13 57t22 25q17 0 49 -44t32 -79l-8 -164 q0 -30 20.5 -71t20.5 -72l-6 -123q-3 -43 -34.5 -78t-69.5 -35q-29 0 -46.5 23t-17.5 49zM133 1536q0 8 8.5 14t22.5 6h799q51 0 51 -24q0 -20 -33 -57t-49 -37h-31q-22 0 -40 -14.5t-32 -14.5h-215q-20 0 -41 12.5t-41 12.5q-23 0 -48.5 -12.5t-32.5 -12.5h-123 q-20 0 -51 22.5t-52 22.5q-39 0 -65.5 33t-26.5 49zM530 778q0 32 30.5 57t68.5 25h205q38 0 68 -25t30 -57t-31.5 -57t-71.5 -25h-196q-40 0 -71.5 25t-31.5 57zM840 451l8 163q3 47 42 80t62 33q24 0 45 -30t21 -62l-27 -512q-1 -18 -11 -29.5t-22 -11.5q-35 0 -62.5 34.5 t-27.5 67.5l6 123q0 27 -17 72.5t-17 71.5z" />
<glyph unicode="H" d="M6 92l27 553q3 32 28 57t52 25q31 0 57.5 -32t26.5 -70l-9 -164q-2 -33 -22.5 -69.5t-22.5 -53.5l-8 -174q-3 -34 -38 -68.5t-54 -34.5q-12 0 -24.5 8.5t-12.5 22.5zM49 901l25 512q3 32 13 57t22 25q17 0 49 -44t32 -79l-8 -164q0 -30 20.5 -71t20.5 -72l-6 -123 q-3 -43 -34.5 -78t-69.5 -35q-29 0 -46.5 23t-17.5 49zM141 778q0 32 30.5 57t68.5 25h102q38 0 68 -25t30 -57t-31 -57t-71 -25h-94q-40 0 -71.5 25t-31.5 57zM530 778q0 32 30.5 57t68.5 25h205q38 0 68 -25t30 -57t-31.5 -57t-71.5 -25h-196q-40 0 -71.5 25t-31.5 57z M840 451l8 163q3 47 42 80t62 33q24 0 45 -30t21 -62l-27 -512q-1 -18 -11 -29.5t-22 -11.5q-35 0 -62.5 34.5t-27.5 67.5l6 123q0 27 -17 72.5t-17 71.5zM868 922l9 174q2 19 24.5 62.5t24.5 70.5l6 164q3 27 45 59.5t57 32.5q11 0 20 -15.5t9 -35.5l-33 -574 q-1 -17 -20.5 -29t-44.5 -12q-18 0 -57.5 37.5t-39.5 65.5z" />
<glyph unicode="I" d="M41 20q0 5 4.5 10.5t18.5 18.5t18 17q1 1 6.5 5.5t7 5.5t7 5t8.5 5.5t8.5 4.5t9.5 4.5t10 3t12 2t13 0.5q19 0 57.5 26t65.5 26h41q44 0 79.5 -15.5t63.5 -15.5q33 0 58.5 15.5t43.5 15.5h144q36 0 62 -10t40 -20.5t21 -10.5q30 0 61 -31q41 -41 41 -62q0 -7 -13 -13.5 t-28 -6.5h-829q-14 0 -22.5 6t-8.5 14zM133 1536q0 8 8.5 14t22.5 6h799q51 0 51 -24q0 -20 -33 -57t-49 -37h-31q-22 0 -40 -14.5t-32 -14.5h-215q-20 0 -41 12.5t-41 12.5q-23 0 -48.5 -12.5t-32.5 -12.5h-123q-20 0 -51 22.5t-52 22.5q-39 0 -65.5 33t-26.5 49zM379 225 l6 123q3 47 19 88t16 76l4 61q2 35 4.5 58t8.5 44.5t17 31.5t27 10q23 0 37 -51t14 -93q0 -24 5.5 -77.5t5.5 -85.5l-6 -185q-2 -32 -24 -57t-52 -25q-27 0 -54.5 29t-27.5 53zM420 1198l8 133q3 35 34.5 58.5t59.5 23.5q25 0 48.5 -21.5t23.5 -50.5l-14 -235 q-1 -18 -16.5 -64t-16.5 -79l-4 -72q-2 -20 -15.5 -46t-31.5 -26t-36 23t-18 39l9 143q0 29 -15.5 83t-15.5 91z" />
<glyph unicode="J" d="M6 92l27 553q3 32 28 57t52 25q31 0 57.5 -32t26.5 -70l-9 -164q-2 -33 -22.5 -69.5t-22.5 -53.5l-8 -174q-3 -34 -38 -68.5t-54 -34.5q-12 0 -24.5 8.5t-12.5 22.5zM41 20q0 5 4.5 10.5t18.5 18.5t18 17q1 1 6.5 5.5t7 5.5t7 5t8.5 5.5t8.5 4.5t9.5 4.5t10 3t12 2 t13 0.5q19 0 57.5 26t65.5 26h41q44 0 79.5 -15.5t63.5 -15.5q33 0 58.5 15.5t43.5 15.5h144q36 0 62 -10t40 -20.5t21 -10.5q30 0 61 -31q41 -41 41 -62q0 -7 -13 -13.5t-28 -6.5h-829q-14 0 -22.5 6t-8.5 14zM840 451l8 163q3 47 42 80t62 33q24 0 45 -30t21 -62l-27 -512 q-1 -18 -11 -29.5t-22 -11.5q-35 0 -62.5 34.5t-27.5 67.5l6 123q0 27 -17 72.5t-17 71.5zM868 922l9 174q2 19 24.5 62.5t24.5 70.5l6 164q3 27 45 59.5t57 32.5q11 0 20 -15.5t9 -35.5l-33 -574q-1 -17 -20.5 -29t-44.5 -12q-18 0 -57.5 37.5t-39.5 65.5z" />
<glyph unicode="K" d="M6 92l27 553q3 32 28 57t52 25q31 0 57.5 -32t26.5 -70l-9 -164q-2 -33 -22.5 -69.5t-22.5 -53.5l-8 -174q-3 -34 -38 -68.5t-54 -34.5q-12 0 -24.5 8.5t-12.5 22.5zM49 901l25 512q3 32 13 57t22 25q17 0 49 -44t32 -79l-8 -164q0 -30 20.5 -71t20.5 -72l-6 -123 q-3 -43 -34.5 -78t-69.5 -35q-29 0 -46.5 23t-17.5 49zM141 778q0 32 30.5 57t68.5 25h102q38 0 68 -25t30 -57t-31 -57t-71 -25h-94q-40 0 -71.5 25t-31.5 57zM547 610l2 41q1 14 10.5 22.5t20.5 8.5h57q18 0 30.5 -6.5t19.5 -15.5l7 -9l123 -225q41 -75 41 -115l-6 -123 q-3 -22 -12 -36.5t-17 -14.5q-7 0 -20 8.5t-19 18.5l-211 368q-11 20 -15 29t-7.5 21.5t-3.5 27.5zM559 922q6 57 45 102l221 334q33 51 58 51q15 0 23.5 -20.5t8.5 -51.5l-6 -102q-1 -9 -2 -17t-3 -15t-3.5 -12.5t-4.5 -12t-5 -10t-6 -9.5t-6 -8.5t-6.5 -9t-6.5 -8.5 l-139 -222q-26 -37 -65 -37h-58q-45 0 -45 48z" />
<glyph unicode="L" d="M6 92l27 553q3 32 28 57t52 25q31 0 57.5 -32t26.5 -70l-9 -164q-2 -33 -22.5 -69.5t-22.5 -53.5l-8 -174q-3 -34 -38 -68.5t-54 -34.5q-12 0 -24.5 8.5t-12.5 22.5zM41 20q0 5 4.5 10.5t18.5 18.5t18 17q1 1 6.5 5.5t7 5.5t7 5t8.5 5.5t8.5 4.5t9.5 4.5t10 3t12 2 t13 0.5q19 0 57.5 26t65.5 26h41q44 0 79.5 -15.5t63.5 -15.5q33 0 58.5 15.5t43.5 15.5h144q36 0 62 -10t40 -20.5t21 -10.5q30 0 61 -31q41 -41 41 -62q0 -7 -13 -13.5t-28 -6.5h-829q-14 0 -22.5 6t-8.5 14zM49 901l25 512q3 32 13 57t22 25q17 0 49 -44t32 -79l-8 -164 q0 -30 20.5 -71t20.5 -72l-6 -123q-3 -43 -34.5 -78t-69.5 -35q-29 0 -46.5 23t-17.5 49z" />
<glyph unicode="M" d="M6 92l27 553q3 32 28 57t52 25q31 0 57.5 -32t26.5 -70l-9 -164q-2 -33 -22.5 -69.5t-22.5 -53.5l-8 -174q-3 -34 -38 -68.5t-54 -34.5q-12 0 -24.5 8.5t-12.5 22.5zM49 901l25 512q3 32 13 57t22 25q17 0 49 -44t32 -79l-8 -164q0 -30 20.5 -71t20.5 -72l-6 -123 q-3 -43 -34.5 -78t-69.5 -35q-29 0 -46.5 23t-17.5 49zM203 1229l6 164q2 15 11.5 28t19.5 13q20 0 41 -41l112 -236q2 -5 9 -17.5t9.5 -17t7 -14.5t6.5 -17t3.5 -16.5t1.5 -19.5l-8 -154q-1 -15 -9 -28t-16 -13q-15 0 -41 41l-129 232q-24 39 -24 96zM559 922q6 57 45 102 l221 334q33 51 58 51q15 0 23.5 -20.5t8.5 -51.5l-6 -102q-1 -9 -2 -17t-3 -15t-3.5 -12.5t-4.5 -12t-5 -10t-6 -9.5t-6 -8.5t-6.5 -9t-6.5 -8.5l-139 -222q-26 -37 -65 -37h-58q-45 0 -45 48zM840 451l8 163q3 47 42 80t62 33q24 0 45 -30t21 -62l-27 -512 q-1 -18 -11 -29.5t-22 -11.5q-35 0 -62.5 34.5t-27.5 67.5l6 123q0 27 -17 72.5t-17 71.5zM868 922l9 174q2 19 24.5 62.5t24.5 70.5l6 164q3 27 45 59.5t57 32.5q11 0 20 -15.5t9 -35.5l-33 -574q-1 -17 -20.5 -29t-44.5 -12q-18 0 -57.5 37.5t-39.5 65.5z" />
<glyph unicode="N" d="M6 92l27 553q3 32 28 57t52 25q31 0 57.5 -32t26.5 -70l-9 -164q-2 -33 -22.5 -69.5t-22.5 -53.5l-8 -174q-3 -34 -38 -68.5t-54 -34.5q-12 0 -24.5 8.5t-12.5 22.5zM49 901l25 512q3 32 13 57t22 25q17 0 49 -44t32 -79l-8 -164q0 -30 20.5 -71t20.5 -72l-6 -123 q-3 -43 -34.5 -78t-69.5 -35q-29 0 -46.5 23t-17.5 49zM203 1229l6 164q2 15 11.5 28t19.5 13q20 0 41 -41l112 -236q2 -5 9 -17.5t9.5 -17t7 -14.5t6.5 -17t3.5 -16.5t1.5 -19.5l-8 -154q-1 -15 -9 -28t-16 -13q-15 0 -41 41l-129 232q-24 39 -24 96zM547 610l2 41 q1 14 10.5 22.5t20.5 8.5h57q18 0 30.5 -6.5t19.5 -15.5l7 -9l123 -225q41 -75 41 -115l-6 -123q-3 -22 -12 -36.5t-17 -14.5q-7 0 -20 8.5t-19 18.5l-211 368q-11 20 -15 29t-7.5 21.5t-3.5 27.5zM840 451l8 163q3 47 42 80t62 33q24 0 45 -30t21 -62l-27 -512 q-1 -18 -11 -29.5t-22 -11.5q-35 0 -62.5 34.5t-27.5 67.5l6 123q0 27 -17 72.5t-17 71.5zM868 922l9 174q2 19 24.5 62.5t24.5 70.5l6 164q3 27 45 59.5t57 32.5q11 0 20 -15.5t9 -35.5l-33 -574q-1 -17 -20.5 -29t-44.5 -12q-18 0 -57.5 37.5t-39.5 65.5z" />
<glyph unicode="O" d="M6 92l27 553q3 32 28 57t52 25q31 0 57.5 -32t26.5 -70l-9 -164q-2 -33 -22.5 -69.5t-22.5 -53.5l-8 -174q-3 -34 -38 -68.5t-54 -34.5q-12 0 -24.5 8.5t-12.5 22.5zM41 20q0 5 4.5 10.5t18.5 18.5t18 17q1 1 6.5 5.5t7 5.5t7 5t8.5 5.5t8.5 4.5t9.5 4.5t10 3t12 2 t13 0.5q19 0 57.5 26t65.5 26h41q44 0 79.5 -15.5t63.5 -15.5q33 0 58.5 15.5t43.5 15.5h144q36 0 62 -10t40 -20.5t21 -10.5q30 0 61 -31q41 -41 41 -62q0 -7 -13 -13.5t-28 -6.5h-829q-14 0 -22.5 6t-8.5 14zM49 901l25 512q3 32 13 57t22 25q17 0 49 -44t32 -79l-8 -164 q0 -30 20.5 -71t20.5 -72l-6 -123q-3 -43 -34.5 -78t-69.5 -35q-29 0 -46.5 23t-17.5 49zM133 1536q0 8 8.5 14t22.5 6h799q51 0 51 -24q0 -20 -33 -57t-49 -37h-31q-22 0 -40 -14.5t-32 -14.5h-215q-20 0 -41 12.5t-41 12.5q-23 0 -48.5 -12.5t-32.5 -12.5h-123 q-20 0 -51 22.5t-52 22.5q-39 0 -65.5 33t-26.5 49zM840 451l8 163q3 47 42 80t62 33q24 0 45 -30t21 -62l-27 -512q-1 -18 -11 -29.5t-22 -11.5q-35 0 -62.5 34.5t-27.5 67.5l6 123q0 27 -17 72.5t-17 71.5zM868 922l9 174q2 19 24.5 62.5t24.5 70.5l6 164q3 27 45 59.5 t57 32.5q11 0 20 -15.5t9 -35.5l-33 -574q-1 -17 -20.5 -29t-44.5 -12q-18 0 -57.5 37.5t-39.5 65.5z" />
<glyph unicode="P" d="M6 92l27 553q3 32 28 57t52 25q31 0 57.5 -32t26.5 -70l-9 -164q-2 -33 -22.5 -69.5t-22.5 -53.5l-8 -174q-3 -34 -38 -68.5t-54 -34.5q-12 0 -24.5 8.5t-12.5 22.5zM49 901l25 512q3 32 13 57t22 25q17 0 49 -44t32 -79l-8 -164q0 -30 20.5 -71t20.5 -72l-6 -123 q-3 -43 -34.5 -78t-69.5 -35q-29 0 -46.5 23t-17.5 49zM133 1536q0 8 8.5 14t22.5 6h799q51 0 51 -24q0 -20 -33 -57t-49 -37h-31q-22 0 -40 -14.5t-32 -14.5h-215q-20 0 -41 12.5t-41 12.5q-23 0 -48.5 -12.5t-32.5 -12.5h-123q-20 0 -51 22.5t-52 22.5q-39 0 -65.5 33 t-26.5 49zM141 778q0 32 30.5 57t68.5 25h102q38 0 68 -25t30 -57t-31 -57t-71 -25h-94q-40 0 -71.5 25t-31.5 57zM530 778q0 32 30.5 57t68.5 25h205q38 0 68 -25t30 -57t-31.5 -57t-71.5 -25h-196q-40 0 -71.5 25t-31.5 57zM868 922l9 174q2 19 24.5 62.5t24.5 70.5l6 164 q3 27 45 59.5t57 32.5q11 0 20 -15.5t9 -35.5l-33 -574q-1 -17 -20.5 -29t-44.5 -12q-18 0 -57.5 37.5t-39.5 65.5z" />
<glyph unicode="Q" d="M6 92l27 553q3 32 28 57t52 25q31 0 57.5 -32t26.5 -70l-9 -164q-2 -33 -22.5 -69.5t-22.5 -53.5l-8 -174q-3 -34 -38 -68.5t-54 -34.5q-12 0 -24.5 8.5t-12.5 22.5zM41 20q0 5 4.5 10.5t18.5 18.5t18 17q1 1 6.5 5.5t7 5.5t7 5t8.5 5.5t8.5 4.5t9.5 4.5t10 3t12 2 t13 0.5q19 0 57.5 26t65.5 26h41q44 0 79.5 -15.5t63.5 -15.5q33 0 58.5 15.5t43.5 15.5h144q36 0 62 -10t40 -20.5t21 -10.5q30 0 61 -31q41 -41 41 -62q0 -7 -13 -13.5t-28 -6.5h-829q-14 0 -22.5 6t-8.5 14zM49 901l25 512q3 32 13 57t22 25q17 0 49 -44t32 -79l-8 -164 q0 -30 20.5 -71t20.5 -72l-6 -123q-3 -43 -34.5 -78t-69.5 -35q-29 0 -46.5 23t-17.5 49zM133 1536q0 8 8.5 14t22.5 6h799q51 0 51 -24q0 -20 -33 -57t-49 -37h-31q-22 0 -40 -14.5t-32 -14.5h-215q-20 0 -41 12.5t-41 12.5q-23 0 -48.5 -12.5t-32.5 -12.5h-123 q-20 0 -51 22.5t-52 22.5q-39 0 -65.5 33t-26.5 49zM547 610l2 41q1 14 10.5 22.5t20.5 8.5h57q18 0 30.5 -6.5t19.5 -15.5l7 -9l123 -225q41 -75 41 -115l-6 -123q-3 -22 -12 -36.5t-17 -14.5q-7 0 -20 8.5t-19 18.5l-211 368q-11 20 -15 29t-7.5 21.5t-3.5 27.5zM840 451 l8 163q3 47 42 80t62 33q24 0 45 -30t21 -62l-27 -512q-1 -18 -11 -29.5t-22 -11.5q-35 0 -62.5 34.5t-27.5 67.5l6 123q0 27 -17 72.5t-17 71.5zM868 922l9 174q2 19 24.5 62.5t24.5 70.5l6 164q3 27 45 59.5t57 32.5q11 0 20 -15.5t9 -35.5l-33 -574q-1 -17 -20.5 -29 t-44.5 -12q-18 0 -57.5 37.5t-39.5 65.5z" />
<glyph unicode="R" d="M6 92l27 553q3 32 28 57t52 25q31 0 57.5 -32t26.5 -70l-9 -164q-2 -33 -22.5 -69.5t-22.5 -53.5l-8 -174q-3 -34 -38 -68.5t-54 -34.5q-12 0 -24.5 8.5t-12.5 22.5zM49 901l25 512q3 32 13 57t22 25q17 0 49 -44t32 -79l-8 -164q0 -30 20.5 -71t20.5 -72l-6 -123 q-3 -43 -34.5 -78t-69.5 -35q-29 0 -46.5 23t-17.5 49zM133 1536q0 8 8.5 14t22.5 6h799q51 0 51 -24q0 -20 -33 -57t-49 -37h-31q-22 0 -40 -14.5t-32 -14.5h-215q-20 0 -41 12.5t-41 12.5q-23 0 -48.5 -12.5t-32.5 -12.5h-123q-20 0 -51 22.5t-52 22.5q-39 0 -65.5 33 t-26.5 49zM141 778q0 32 30.5 57t68.5 25h102q38 0 68 -25t30 -57t-31 -57t-71 -25h-94q-40 0 -71.5 25t-31.5 57zM530 778q0 32 30.5 57t68.5 25h205q38 0 68 -25t30 -57t-31.5 -57t-71.5 -25h-196q-40 0 -71.5 25t-31.5 57zM547 610l2 41q1 14 10.5 22.5t20.5 8.5h57 q18 0 30.5 -6.5t19.5 -15.5l7 -9l123 -225q41 -75 41 -115l-6 -123q-3 -22 -12 -36.5t-17 -14.5q-7 0 -20 8.5t-19 18.5l-211 368q-11 20 -15 29t-7.5 21.5t-3.5 27.5zM868 922l9 174q2 19 24.5 62.5t24.5 70.5l6 164q3 27 45 59.5t57 32.5q11 0 20 -15.5t9 -35.5l-33 -574 q-1 -17 -20.5 -29t-44.5 -12q-18 0 -57.5 37.5t-39.5 65.5z" />
<glyph unicode="S" d="M41 20q0 5 4.5 10.5t18.5 18.5t18 17q1 1 6.5 5.5t7 5.5t7 5t8.5 5.5t8.5 4.5t9.5 4.5t10 3t12 2t13 0.5q19 0 57.5 26t65.5 26h41q44 0 79.5 -15.5t63.5 -15.5q33 0 58.5 15.5t43.5 15.5h144q36 0 62 -10t40 -20.5t21 -10.5q30 0 61 -31q41 -41 41 -62q0 -7 -13 -13.5 t-28 -6.5h-829q-14 0 -22.5 6t-8.5 14zM49 901l25 512q3 32 13 57t22 25q17 0 49 -44t32 -79l-8 -164q0 -30 20.5 -71t20.5 -72l-6 -123q-3 -43 -34.5 -78t-69.5 -35q-29 0 -46.5 23t-17.5 49zM133 1536q0 8 8.5 14t22.5 6h799q51 0 51 -24q0 -20 -33 -57t-49 -37h-31 q-22 0 -40 -14.5t-32 -14.5h-215q-20 0 -41 12.5t-41 12.5q-23 0 -48.5 -12.5t-32.5 -12.5h-123q-20 0 -51 22.5t-52 22.5q-39 0 -65.5 33t-26.5 49zM141 778q0 32 30.5 57t68.5 25h102q38 0 68 -25t30 -57t-31 -57t-71 -25h-94q-40 0 -71.5 25t-31.5 57zM530 778 q0 32 30.5 57t68.5 25h205q38 0 68 -25t30 -57t-31.5 -57t-71.5 -25h-196q-40 0 -71.5 25t-31.5 57zM840 451l8 163q3 47 42 80t62 33q24 0 45 -30t21 -62l-27 -512q-1 -18 -11 -29.5t-22 -11.5q-35 0 -62.5 34.5t-27.5 67.5l6 123q0 27 -17 72.5t-17 71.5z" />
<glyph unicode="T" d="M133 1536q0 8 8.5 14t22.5 6h799q51 0 51 -24q0 -20 -33 -57t-49 -37h-31q-22 0 -40 -14.5t-32 -14.5h-215q-20 0 -41 12.5t-41 12.5q-23 0 -48.5 -12.5t-32.5 -12.5h-123q-20 0 -51 22.5t-52 22.5q-39 0 -65.5 33t-26.5 49zM379 225l6 123q3 47 19 88t16 76l4 61 q2 35 4.5 58t8.5 44.5t17 31.5t27 10q23 0 37 -51t14 -93q0 -24 5.5 -77.5t5.5 -85.5l-6 -185q-2 -32 -24 -57t-52 -25q-27 0 -54.5 29t-27.5 53zM420 1198l8 133q3 35 34.5 58.5t59.5 23.5q25 0 48.5 -21.5t23.5 -50.5l-14 -235q-1 -18 -16.5 -64t-16.5 -79l-4 -72 q-2 -20 -15.5 -46t-31.5 -26t-36 23t-18 39l9 143q0 29 -15.5 83t-15.5 91z" />
<glyph unicode="U" d="M6 92l27 553q3 32 28 57t52 25q31 0 57.5 -32t26.5 -70l-9 -164q-2 -33 -22.5 -69.5t-22.5 -53.5l-8 -174q-3 -34 -38 -68.5t-54 -34.5q-12 0 -24.5 8.5t-12.5 22.5zM41 20q0 5 4.5 10.5t18.5 18.5t18 17q1 1 6.5 5.5t7 5.5t7 5t8.5 5.5t8.5 4.5t9.5 4.5t10 3t12 2 t13 0.5q19 0 57.5 26t65.5 26h41q44 0 79.5 -15.5t63.5 -15.5q33 0 58.5 15.5t43.5 15.5h144q36 0 62 -10t40 -20.5t21 -10.5q30 0 61 -31q41 -41 41 -62q0 -7 -13 -13.5t-28 -6.5h-829q-14 0 -22.5 6t-8.5 14zM49 901l25 512q3 32 13 57t22 25q17 0 49 -44t32 -79l-8 -164 q0 -30 20.5 -71t20.5 -72l-6 -123q-3 -43 -34.5 -78t-69.5 -35q-29 0 -46.5 23t-17.5 49zM840 451l8 163q3 47 42 80t62 33q24 0 45 -30t21 -62l-27 -512q-1 -18 -11 -29.5t-22 -11.5q-35 0 -62.5 34.5t-27.5 67.5l6 123q0 27 -17 72.5t-17 71.5zM868 922l9 174 q2 19 24.5 62.5t24.5 70.5l6 164q3 27 45 59.5t57 32.5q11 0 20 -15.5t9 -35.5l-33 -574q-1 -17 -20.5 -29t-44.5 -12q-18 0 -57.5 37.5t-39.5 65.5z" />
<glyph unicode="V" d="M6 92l27 553q3 32 28 57t52 25q31 0 57.5 -32t26.5 -70l-9 -164q-2 -33 -22.5 -69.5t-22.5 -53.5l-8 -174q-3 -34 -38 -68.5t-54 -34.5q-12 0 -24.5 8.5t-12.5 22.5zM49 901l25 512q3 32 13 57t22 25q17 0 49 -44t32 -79l-8 -164q0 -30 20.5 -71t20.5 -72l-6 -123 q-3 -43 -34.5 -78t-69.5 -35q-29 0 -46.5 23t-17.5 49zM147 164l7 133q2 22 7.5 39t10 25.5t15 23t14.5 21.5l133 225q3 4 12.5 17.5t16 21t17 15t21.5 7.5q6 0 10.5 -13t4.5 -28l-10 -159q-4 -45 -25 -66l-154 -262q-9 -18 -25.5 -29.5t-31.5 -11.5q-23 0 -23 41zM559 922 q6 57 45 102l221 334q33 51 58 51q15 0 23.5 -20.5t8.5 -51.5l-6 -102q-1 -9 -2 -17t-3 -15t-3.5 -12.5t-4.5 -12t-5 -10t-6 -9.5t-6 -8.5t-6.5 -9t-6.5 -8.5l-139 -222q-26 -37 -65 -37h-58q-45 0 -45 48z" />
<glyph unicode="W" d="M6 92l27 553q3 32 28 57t52 25q31 0 57.5 -32t26.5 -70l-9 -164q-2 -33 -22.5 -69.5t-22.5 -53.5l-8 -174q-3 -34 -38 -68.5t-54 -34.5q-12 0 -24.5 8.5t-12.5 22.5zM49 901l25 512q3 32 13 57t22 25q17 0 49 -44t32 -79l-8 -164q0 -30 20.5 -71t20.5 -72l-6 -123 q-3 -43 -34.5 -78t-69.5 -35q-29 0 -46.5 23t-17.5 49zM147 164l7 133q2 22 7.5 39t10 25.5t15 23t14.5 21.5l133 225q3 4 12.5 17.5t16 21t17 15t21.5 7.5q6 0 10.5 -13t4.5 -28l-10 -159q-4 -45 -25 -66l-154 -262q-9 -18 -25.5 -29.5t-31.5 -11.5q-23 0 -23 41zM547 610 l2 41q1 14 10.5 22.5t20.5 8.5h57q18 0 30.5 -6.5t19.5 -15.5l7 -9l123 -225q41 -75 41 -115l-6 -123q-3 -22 -12 -36.5t-17 -14.5q-7 0 -20 8.5t-19 18.5l-211 368q-11 20 -15 29t-7.5 21.5t-3.5 27.5zM840 451l8 163q3 47 42 80t62 33q24 0 45 -30t21 -62l-27 -512 q-1 -18 -11 -29.5t-22 -11.5q-35 0 -62.5 34.5t-27.5 67.5l6 123q0 27 -17 72.5t-17 71.5zM868 922l9 174q2 19 24.5 62.5t24.5 70.5l6 164q3 27 45 59.5t57 32.5q11 0 20 -15.5t9 -35.5l-33 -574q-1 -17 -20.5 -29t-44.5 -12q-18 0 -57.5 37.5t-39.5 65.5z" />
<glyph unicode="X" d="M147 164l7 133q2 22 7.5 39t10 25.5t15 23t14.5 21.5l133 225q3 4 12.5 17.5t16 21t17 15t21.5 7.5q6 0 10.5 -13t4.5 -28l-10 -159q-4 -45 -25 -66l-154 -262q-9 -18 -25.5 -29.5t-31.5 -11.5q-23 0 -23 41zM203 1229l6 164q2 15 11.5 28t19.5 13q20 0 41 -41l112 -236 q2 -5 9 -17.5t9.5 -17t7 -14.5t6.5 -17t3.5 -16.5t1.5 -19.5l-8 -154q-1 -15 -9 -28t-16 -13q-15 0 -41 41l-129 232q-24 39 -24 96zM547 610l2 41q1 14 10.5 22.5t20.5 8.5h57q18 0 30.5 -6.5t19.5 -15.5l7 -9l123 -225q41 -75 41 -115l-6 -123q-3 -22 -12 -36.5t-17 -14.5 q-7 0 -20 8.5t-19 18.5l-211 368q-11 20 -15 29t-7.5 21.5t-3.5 27.5zM559 922q6 57 45 102l221 334q33 51 58 51q15 0 23.5 -20.5t8.5 -51.5l-6 -102q-1 -9 -2 -17t-3 -15t-3.5 -12.5t-4.5 -12t-5 -10t-6 -9.5t-6 -8.5t-6.5 -9t-6.5 -8.5l-139 -222q-26 -37 -65 -37h-58 q-45 0 -45 48z" />
<glyph unicode="Y" d="M203 1229l6 164q2 15 11.5 28t19.5 13q20 0 41 -41l112 -236q2 -5 9 -17.5t9.5 -17t7 -14.5t6.5 -17t3.5 -16.5t1.5 -19.5l-8 -154q-1 -15 -9 -28t-16 -13q-15 0 -41 41l-129 232q-24 39 -24 96zM379 225l6 123q3 47 19 88t16 76l4 61q2 35 4.5 58t8.5 44.5t17 31.5 t27 10q23 0 37 -51t14 -93q0 -24 5.5 -77.5t5.5 -85.5l-6 -185q-2 -32 -24 -57t-52 -25q-27 0 -54.5 29t-27.5 53zM559 922q6 57 45 102l221 334q33 51 58 51q15 0 23.5 -20.5t8.5 -51.5l-6 -102q-1 -9 -2 -17t-3 -15t-3.5 -12.5t-4.5 -12t-5 -10t-6 -9.5t-6 -8.5t-6.5 -9 t-6.5 -8.5l-139 -222q-26 -37 -65 -37h-58q-45 0 -45 48z" />
<glyph unicode="Z" d="M41 20q0 5 4.5 10.5t18.5 18.5t18 17q1 1 6.5 5.5t7 5.5t7 5t8.5 5.5t8.5 4.5t9.5 4.5t10 3t12 2t13 0.5q19 0 57.5 26t65.5 26h41q44 0 79.5 -15.5t63.5 -15.5q33 0 58.5 15.5t43.5 15.5h144q36 0 62 -10t40 -20.5t21 -10.5q30 0 61 -31q41 -41 41 -62q0 -7 -13 -13.5 t-28 -6.5h-829q-14 0 -22.5 6t-8.5 14zM133 1536q0 8 8.5 14t22.5 6h799q51 0 51 -24q0 -20 -33 -57t-49 -37h-31q-22 0 -40 -14.5t-32 -14.5h-215q-20 0 -41 12.5t-41 12.5q-23 0 -48.5 -12.5t-32.5 -12.5h-123q-20 0 -51 22.5t-52 22.5q-39 0 -65.5 33t-26.5 49zM147 164 l7 133q2 22 7.5 39t10 25.5t15 23t14.5 21.5l133 225q3 4 12.5 17.5t16 21t17 15t21.5 7.5q6 0 10.5 -13t4.5 -28l-10 -159q-4 -45 -25 -66l-154 -262q-9 -18 -25.5 -29.5t-31.5 -11.5q-23 0 -23 41zM559 922q6 57 45 102l221 334q33 51 58 51q15 0 23.5 -20.5t8.5 -51.5 l-6 -102q-1 -9 -2 -17t-3 -15t-3.5 -12.5t-4.5 -12t-5 -10t-6 -9.5t-6 -8.5t-6.5 -9t-6.5 -8.5l-139 -222q-26 -37 -65 -37h-58q-45 0 -45 48z" />
<glyph unicode="[" d="M6 92l27 553q3 32 28 57t52 25q31 0 57.5 -32t26.5 -70l-9 -164q-2 -33 -22.5 -69.5t-22.5 -53.5l-8 -174q-3 -34 -38 -68.5t-54 -34.5q-12 0 -24.5 8.5t-12.5 22.5zM49 901l25 512q3 32 13 57t22 25q17 0 49 -44t32 -79l-8 -164q0 -30 20.5 -71t20.5 -72l-6 -123 q-3 -43 -34.5 -78t-69.5 -35q-29 0 -46.5 23t-17.5 49zM133 1536q0 8 8.5 14t22.5 6h799q51 0 51 -24q0 -20 -33 -57t-49 -37h-31q-22 0 -40 -14.5t-32 -14.5h-215q-20 0 -41 12.5t-41 12.5q-23 0 -48.5 -12.5t-32.5 -12.5h-123q-20 0 -51 22.5t-52 22.5q-39 0 -65.5 33 t-26.5 49z" />
<glyph unicode="\" d="M203 1229l6 164q2 15 11.5 28t19.5 13q20 0 41 -41l112 -236q2 -5 9 -17.5t9.5 -17t7 -14.5t6.5 -17t3.5 -16.5t1.5 -19.5l-8 -154q-1 -15 -9 -28t-16 -13q-15 0 -41 41l-129 232q-24 39 -24 96zM547 610l2 41q1 14 10.5 22.5t20.5 8.5h57q18 0 30.5 -6.5t19.5 -15.5 l7 -9l123 -225q41 -75 41 -115l-6 -123q-3 -22 -12 -36.5t-17 -14.5q-7 0 -20 8.5t-19 18.5l-211 368q-11 20 -15 29t-7.5 21.5t-3.5 27.5z" />
<glyph unicode="]" d="M41 20q0 5 4.5 10.5t18.5 18.5t18 17q1 1 6.5 5.5t7 5.5t7 5t8.5 5.5t8.5 4.5t9.5 4.5t10 3t12 2t13 0.5q19 0 57.5 26t65.5 26h41q44 0 79.5 -15.5t63.5 -15.5q33 0 58.5 15.5t43.5 15.5h144q36 0 62 -10t40 -20.5t21 -10.5q30 0 61 -31q41 -41 41 -62q0 -7 -13 -13.5 t-28 -6.5h-829q-14 0 -22.5 6t-8.5 14zM840 451l8 163q3 47 42 80t62 33q24 0 45 -30t21 -62l-27 -512q-1 -18 -11 -29.5t-22 -11.5q-35 0 -62.5 34.5t-27.5 67.5l6 123q0 27 -17 72.5t-17 71.5zM868 922l9 174q2 19 24.5 62.5t24.5 70.5l6 164q3 27 45 59.5t57 32.5 q11 0 20 -15.5t9 -35.5l-33 -574q-1 -17 -20.5 -29t-44.5 -12q-18 0 -57.5 37.5t-39.5 65.5z" />
<glyph unicode="^" d="M147 164l7 133q2 22 7.5 39t10 25.5t15 23t14.5 21.5l133 225q3 4 12.5 17.5t16 21t17 15t21.5 7.5q6 0 10.5 -13t4.5 -28l-10 -159q-4 -45 -25 -66l-154 -262q-9 -18 -25.5 -29.5t-31.5 -11.5q-23 0 -23 41zM547 610l2 41q1 14 10.5 22.5t20.5 8.5h57q18 0 30.5 -6.5 t19.5 -15.5l7 -9l123 -225q41 -75 41 -115l-6 -123q-3 -22 -12 -36.5t-17 -14.5q-7 0 -20 8.5t-19 18.5l-211 368q-11 20 -15 29t-7.5 21.5t-3.5 27.5z" />
<glyph unicode="_" d="M41 20q0 5 4.5 10.5t18.5 18.5t18 17q1 1 6.5 5.5t7 5.5t7 5t8.5 5.5t8.5 4.5t9.5 4.5t10 3t12 2t13 0.5q19 0 57.5 26t65.5 26h41q44 0 79.5 -15.5t63.5 -15.5q33 0 58.5 15.5t43.5 15.5h144q36 0 62 -10t40 -20.5t21 -10.5q30 0 61 -31q41 -41 41 -62q0 -7 -13 -13.5 t-28 -6.5h-829q-14 0 -22.5 6t-8.5 14z" />
<glyph unicode="`" d="M203 1229l6 164q2 15 11.5 28t19.5 13q20 0 41 -41l112 -236q2 -5 9 -17.5t9.5 -17t7 -14.5t6.5 -17t3.5 -16.5t1.5 -19.5l-8 -154q-1 -15 -9 -28t-16 -13q-15 0 -41 41l-129 232q-24 39 -24 96z" />
<glyph unicode="a" d="M6 92l27 553q3 32 28 57t52 25q31 0 57.5 -32t26.5 -70l-9 -164q-2 -33 -22.5 -69.5t-22.5 -53.5l-8 -174q-3 -34 -38 -68.5t-54 -34.5q-12 0 -24.5 8.5t-12.5 22.5zM49 901l25 512q3 32 13 57t22 25q17 0 49 -44t32 -79l-8 -164q0 -30 20.5 -71t20.5 -72l-6 -123 q-3 -43 -34.5 -78t-69.5 -35q-29 0 -46.5 23t-17.5 49zM133 1536q0 8 8.5 14t22.5 6h799q51 0 51 -24q0 -20 -33 -57t-49 -37h-31q-22 0 -40 -14.5t-32 -14.5h-215q-20 0 -41 12.5t-41 12.5q-23 0 -48.5 -12.5t-32.5 -12.5h-123q-20 0 -51 22.5t-52 22.5q-39 0 -65.5 33 t-26.5 49zM141 778q0 32 30.5 57t68.5 25h102q38 0 68 -25t30 -57t-31 -57t-71 -25h-94q-40 0 -71.5 25t-31.5 57zM530 778q0 32 30.5 57t68.5 25h205q38 0 68 -25t30 -57t-31.5 -57t-71.5 -25h-196q-40 0 -71.5 25t-31.5 57zM840 451l8 163q3 47 42 80t62 33q24 0 45 -30 t21 -62l-27 -512q-1 -18 -11 -29.5t-22 -11.5q-35 0 -62.5 34.5t-27.5 67.5l6 123q0 27 -17 72.5t-17 71.5zM868 922l9 174q2 19 24.5 62.5t24.5 70.5l6 164q3 27 45 59.5t57 32.5q11 0 20 -15.5t9 -35.5l-33 -574q-1 -17 -20.5 -29t-44.5 -12q-18 0 -57.5 37.5t-39.5 65.5z " />
<glyph unicode="b" d="M41 20q0 5 4.5 10.5t18.5 18.5t18 17q1 1 6.5 5.5t7 5.5t7 5t8.5 5.5t8.5 4.5t9.5 4.5t10 3t12 2t13 0.5q19 0 57.5 26t65.5 26h41q44 0 79.5 -15.5t63.5 -15.5q33 0 58.5 15.5t43.5 15.5h144q36 0 62 -10t40 -20.5t21 -10.5q30 0 61 -31q41 -41 41 -62q0 -7 -13 -13.5 t-28 -6.5h-829q-14 0 -22.5 6t-8.5 14zM133 1536q0 8 8.5 14t22.5 6h799q51 0 51 -24q0 -20 -33 -57t-49 -37h-31q-22 0 -40 -14.5t-32 -14.5h-215q-20 0 -41 12.5t-41 12.5q-23 0 -48.5 -12.5t-32.5 -12.5h-123q-20 0 -51 22.5t-52 22.5q-39 0 -65.5 33t-26.5 49zM379 225 l6 123q3 47 19 88t16 76l4 61q2 35 4.5 58t8.5 44.5t17 31.5t27 10q23 0 37 -51t14 -93q0 -24 5.5 -77.5t5.5 -85.5l-6 -185q-2 -32 -24 -57t-52 -25q-27 0 -54.5 29t-27.5 53zM420 1198l8 133q3 35 34.5 58.5t59.5 23.5q25 0 48.5 -21.5t23.5 -50.5l-14 -235 q-1 -18 -16.5 -64t-16.5 -79l-4 -72q-2 -20 -15.5 -46t-31.5 -26t-36 23t-18 39l9 143q0 29 -15.5 83t-15.5 91zM530 778q0 32 30.5 57t68.5 25h205q38 0 68 -25t30 -57t-31.5 -57t-71.5 -25h-196q-40 0 -71.5 25t-31.5 57zM840 451l8 163q3 47 42 80t62 33q24 0 45 -30 t21 -62l-27 -512q-1 -18 -11 -29.5t-22 -11.5q-35 0 -62.5 34.5t-27.5 67.5l6 123q0 27 -17 72.5t-17 71.5zM868 922l9 174q2 19 24.5 62.5t24.5 70.5l6 164q3 27 45 59.5t57 32.5q11 0 20 -15.5t9 -35.5l-33 -574q-1 -17 -20.5 -29t-44.5 -12q-18 0 -57.5 37.5t-39.5 65.5z " />
<glyph unicode="c" d="M6 92l27 553q3 32 28 57t52 25q31 0 57.5 -32t26.5 -70l-9 -164q-2 -33 -22.5 -69.5t-22.5 -53.5l-8 -174q-3 -34 -38 -68.5t-54 -34.5q-12 0 -24.5 8.5t-12.5 22.5zM41 20q0 5 4.5 10.5t18.5 18.5t18 17q1 1 6.5 5.5t7 5.5t7 5t8.5 5.5t8.5 4.5t9.5 4.5t10 3t12 2 t13 0.5q19 0 57.5 26t65.5 26h41q44 0 79.5 -15.5t63.5 -15.5q33 0 58.5 15.5t43.5 15.5h144q36 0 62 -10t40 -20.5t21 -10.5q30 0 61 -31q41 -41 41 -62q0 -7 -13 -13.5t-28 -6.5h-829q-14 0 -22.5 6t-8.5 14zM49 901l25 512q3 32 13 57t22 25q17 0 49 -44t32 -79l-8 -164 q0 -30 20.5 -71t20.5 -72l-6 -123q-3 -43 -34.5 -78t-69.5 -35q-29 0 -46.5 23t-17.5 49zM133 1536q0 8 8.5 14t22.5 6h799q51 0 51 -24q0 -20 -33 -57t-49 -37h-31q-22 0 -40 -14.5t-32 -14.5h-215q-20 0 -41 12.5t-41 12.5q-23 0 -48.5 -12.5t-32.5 -12.5h-123 q-20 0 -51 22.5t-52 22.5q-39 0 -65.5 33t-26.5 49z" />
<glyph unicode="d" d="M41 20q0 5 4.5 10.5t18.5 18.5t18 17q1 1 6.5 5.5t7 5.5t7 5t8.5 5.5t8.5 4.5t9.5 4.5t10 3t12 2t13 0.5q19 0 57.5 26t65.5 26h41q44 0 79.5 -15.5t63.5 -15.5q33 0 58.5 15.5t43.5 15.5h144q36 0 62 -10t40 -20.5t21 -10.5q30 0 61 -31q41 -41 41 -62q0 -7 -13 -13.5 t-28 -6.5h-829q-14 0 -22.5 6t-8.5 14zM133 1536q0 8 8.5 14t22.5 6h799q51 0 51 -24q0 -20 -33 -57t-49 -37h-31q-22 0 -40 -14.5t-32 -14.5h-215q-20 0 -41 12.5t-41 12.5q-23 0 -48.5 -12.5t-32.5 -12.5h-123q-20 0 -51 22.5t-52 22.5q-39 0 -65.5 33t-26.5 49zM379 225 l6 123q3 47 19 88t16 76l4 61q2 35 4.5 58t8.5 44.5t17 31.5t27 10q23 0 37 -51t14 -93q0 -24 5.5 -77.5t5.5 -85.5l-6 -185q-2 -32 -24 -57t-52 -25q-27 0 -54.5 29t-27.5 53zM420 1198l8 133q3 35 34.5 58.5t59.5 23.5q25 0 48.5 -21.5t23.5 -50.5l-14 -235 q-1 -18 -16.5 -64t-16.5 -79l-4 -72q-2 -20 -15.5 -46t-31.5 -26t-36 23t-18 39l9 143q0 29 -15.5 83t-15.5 91zM840 451l8 163q3 47 42 80t62 33q24 0 45 -30t21 -62l-27 -512q-1 -18 -11 -29.5t-22 -11.5q-35 0 -62.5 34.5t-27.5 67.5l6 123q0 27 -17 72.5t-17 71.5z M868 922l9 174q2 19 24.5 62.5t24.5 70.5l6 164q3 27 45 59.5t57 32.5q11 0 20 -15.5t9 -35.5l-33 -574q-1 -17 -20.5 -29t-44.5 -12q-18 0 -57.5 37.5t-39.5 65.5z" />
<glyph unicode="e" d="M6 92l27 553q3 32 28 57t52 25q31 0 57.5 -32t26.5 -70l-9 -164q-2 -33 -22.5 -69.5t-22.5 -53.5l-8 -174q-3 -34 -38 -68.5t-54 -34.5q-12 0 -24.5 8.5t-12.5 22.5zM41 20q0 5 4.5 10.5t18.5 18.5t18 17q1 1 6.5 5.5t7 5.5t7 5t8.5 5.5t8.5 4.5t9.5 4.5t10 3t12 2 t13 0.5q19 0 57.5 26t65.5 26h41q44 0 79.5 -15.5t63.5 -15.5q33 0 58.5 15.5t43.5 15.5h144q36 0 62 -10t40 -20.5t21 -10.5q30 0 61 -31q41 -41 41 -62q0 -7 -13 -13.5t-28 -6.5h-829q-14 0 -22.5 6t-8.5 14zM49 901l25 512q3 32 13 57t22 25q17 0 49 -44t32 -79l-8 -164 q0 -30 20.5 -71t20.5 -72l-6 -123q-3 -43 -34.5 -78t-69.5 -35q-29 0 -46.5 23t-17.5 49zM133 1536q0 8 8.5 14t22.5 6h799q51 0 51 -24q0 -20 -33 -57t-49 -37h-31q-22 0 -40 -14.5t-32 -14.5h-215q-20 0 -41 12.5t-41 12.5q-23 0 -48.5 -12.5t-32.5 -12.5h-123 q-20 0 -51 22.5t-52 22.5q-39 0 -65.5 33t-26.5 49zM141 778q0 32 30.5 57t68.5 25h102q38 0 68 -25t30 -57t-31 -57t-71 -25h-94q-40 0 -71.5 25t-31.5 57z" />
<glyph unicode="f" d="M6 92l27 553q3 32 28 57t52 25q31 0 57.5 -32t26.5 -70l-9 -164q-2 -33 -22.5 -69.5t-22.5 -53.5l-8 -174q-3 -34 -38 -68.5t-54 -34.5q-12 0 -24.5 8.5t-12.5 22.5zM49 901l25 512q3 32 13 57t22 25q17 0 49 -44t32 -79l-8 -164q0 -30 20.5 -71t20.5 -72l-6 -123 q-3 -43 -34.5 -78t-69.5 -35q-29 0 -46.5 23t-17.5 49zM133 1536q0 8 8.5 14t22.5 6h799q51 0 51 -24q0 -20 -33 -57t-49 -37h-31q-22 0 -40 -14.5t-32 -14.5h-215q-20 0 -41 12.5t-41 12.5q-23 0 -48.5 -12.5t-32.5 -12.5h-123q-20 0 -51 22.5t-52 22.5q-39 0 -65.5 33 t-26.5 49zM141 778q0 32 30.5 57t68.5 25h102q38 0 68 -25t30 -57t-31 -57t-71 -25h-94q-40 0 -71.5 25t-31.5 57z" />
<glyph unicode="g" d="M6 92l27 553q3 32 28 57t52 25q31 0 57.5 -32t26.5 -70l-9 -164q-2 -33 -22.5 -69.5t-22.5 -53.5l-8 -174q-3 -34 -38 -68.5t-54 -34.5q-12 0 -24.5 8.5t-12.5 22.5zM41 20q0 5 4.5 10.5t18.5 18.5t18 17q1 1 6.5 5.5t7 5.5t7 5t8.5 5.5t8.5 4.5t9.5 4.5t10 3t12 2 t13 0.5q19 0 57.5 26t65.5 26h41q44 0 79.5 -15.5t63.5 -15.5q33 0 58.5 15.5t43.5 15.5h144q36 0 62 -10t40 -20.5t21 -10.5q30 0 61 -31q41 -41 41 -62q0 -7 -13 -13.5t-28 -6.5h-829q-14 0 -22.5 6t-8.5 14zM49 901l25 512q3 32 13 57t22 25q17 0 49 -44t32 -79l-8 -164 q0 -30 20.5 -71t20.5 -72l-6 -123q-3 -43 -34.5 -78t-69.5 -35q-29 0 -46.5 23t-17.5 49zM133 1536q0 8 8.5 14t22.5 6h799q51 0 51 -24q0 -20 -33 -57t-49 -37h-31q-22 0 -40 -14.5t-32 -14.5h-215q-20 0 -41 12.5t-41 12.5q-23 0 -48.5 -12.5t-32.5 -12.5h-123 q-20 0 -51 22.5t-52 22.5q-39 0 -65.5 33t-26.5 49zM530 778q0 32 30.5 57t68.5 25h205q38 0 68 -25t30 -57t-31.5 -57t-71.5 -25h-196q-40 0 -71.5 25t-31.5 57zM840 451l8 163q3 47 42 80t62 33q24 0 45 -30t21 -62l-27 -512q-1 -18 -11 -29.5t-22 -11.5q-35 0 -62.5 34.5 t-27.5 67.5l6 123q0 27 -17 72.5t-17 71.5z" />
<glyph unicode="h" d="M6 92l27 553q3 32 28 57t52 25q31 0 57.5 -32t26.5 -70l-9 -164q-2 -33 -22.5 -69.5t-22.5 -53.5l-8 -174q-3 -34 -38 -68.5t-54 -34.5q-12 0 -24.5 8.5t-12.5 22.5zM49 901l25 512q3 32 13 57t22 25q17 0 49 -44t32 -79l-8 -164q0 -30 20.5 -71t20.5 -72l-6 -123 q-3 -43 -34.5 -78t-69.5 -35q-29 0 -46.5 23t-17.5 49zM141 778q0 32 30.5 57t68.5 25h102q38 0 68 -25t30 -57t-31 -57t-71 -25h-94q-40 0 -71.5 25t-31.5 57zM530 778q0 32 30.5 57t68.5 25h205q38 0 68 -25t30 -57t-31.5 -57t-71.5 -25h-196q-40 0 -71.5 25t-31.5 57z M840 451l8 163q3 47 42 80t62 33q24 0 45 -30t21 -62l-27 -512q-1 -18 -11 -29.5t-22 -11.5q-35 0 -62.5 34.5t-27.5 67.5l6 123q0 27 -17 72.5t-17 71.5zM868 922l9 174q2 19 24.5 62.5t24.5 70.5l6 164q3 27 45 59.5t57 32.5q11 0 20 -15.5t9 -35.5l-33 -574 q-1 -17 -20.5 -29t-44.5 -12q-18 0 -57.5 37.5t-39.5 65.5z" />
<glyph unicode="i" d="M41 20q0 5 4.5 10.5t18.5 18.5t18 17q1 1 6.5 5.5t7 5.5t7 5t8.5 5.5t8.5 4.5t9.5 4.5t10 3t12 2t13 0.5q19 0 57.5 26t65.5 26h41q44 0 79.5 -15.5t63.5 -15.5q33 0 58.5 15.5t43.5 15.5h144q36 0 62 -10t40 -20.5t21 -10.5q30 0 61 -31q41 -41 41 -62q0 -7 -13 -13.5 t-28 -6.5h-829q-14 0 -22.5 6t-8.5 14zM133 1536q0 8 8.5 14t22.5 6h799q51 0 51 -24q0 -20 -33 -57t-49 -37h-31q-22 0 -40 -14.5t-32 -14.5h-215q-20 0 -41 12.5t-41 12.5q-23 0 -48.5 -12.5t-32.5 -12.5h-123q-20 0 -51 22.5t-52 22.5q-39 0 -65.5 33t-26.5 49zM379 225 l6 123q3 47 19 88t16 76l4 61q2 35 4.5 58t8.5 44.5t17 31.5t27 10q23 0 37 -51t14 -93q0 -24 5.5 -77.5t5.5 -85.5l-6 -185q-2 -32 -24 -57t-52 -25q-27 0 -54.5 29t-27.5 53zM420 1198l8 133q3 35 34.5 58.5t59.5 23.5q25 0 48.5 -21.5t23.5 -50.5l-14 -235 q-1 -18 -16.5 -64t-16.5 -79l-4 -72q-2 -20 -15.5 -46t-31.5 -26t-36 23t-18 39l9 143q0 29 -15.5 83t-15.5 91z" />
<glyph unicode="j" d="M6 92l27 553q3 32 28 57t52 25q31 0 57.5 -32t26.5 -70l-9 -164q-2 -33 -22.5 -69.5t-22.5 -53.5l-8 -174q-3 -34 -38 -68.5t-54 -34.5q-12 0 -24.5 8.5t-12.5 22.5zM41 20q0 5 4.5 10.5t18.5 18.5t18 17q1 1 6.5 5.5t7 5.5t7 5t8.5 5.5t8.5 4.5t9.5 4.5t10 3t12 2 t13 0.5q19 0 57.5 26t65.5 26h41q44 0 79.5 -15.5t63.5 -15.5q33 0 58.5 15.5t43.5 15.5h144q36 0 62 -10t40 -20.5t21 -10.5q30 0 61 -31q41 -41 41 -62q0 -7 -13 -13.5t-28 -6.5h-829q-14 0 -22.5 6t-8.5 14zM840 451l8 163q3 47 42 80t62 33q24 0 45 -30t21 -62l-27 -512 q-1 -18 -11 -29.5t-22 -11.5q-35 0 -62.5 34.5t-27.5 67.5l6 123q0 27 -17 72.5t-17 71.5zM868 922l9 174q2 19 24.5 62.5t24.5 70.5l6 164q3 27 45 59.5t57 32.5q11 0 20 -15.5t9 -35.5l-33 -574q-1 -17 -20.5 -29t-44.5 -12q-18 0 -57.5 37.5t-39.5 65.5z" />
<glyph unicode="k" d="M6 92l27 553q3 32 28 57t52 25q31 0 57.5 -32t26.5 -70l-9 -164q-2 -33 -22.5 -69.5t-22.5 -53.5l-8 -174q-3 -34 -38 -68.5t-54 -34.5q-12 0 -24.5 8.5t-12.5 22.5zM49 901l25 512q3 32 13 57t22 25q17 0 49 -44t32 -79l-8 -164q0 -30 20.5 -71t20.5 -72l-6 -123 q-3 -43 -34.5 -78t-69.5 -35q-29 0 -46.5 23t-17.5 49zM141 778q0 32 30.5 57t68.5 25h102q38 0 68 -25t30 -57t-31 -57t-71 -25h-94q-40 0 -71.5 25t-31.5 57zM547 610l2 41q1 14 10.5 22.5t20.5 8.5h57q18 0 30.5 -6.5t19.5 -15.5l7 -9l123 -225q41 -75 41 -115l-6 -123 q-3 -22 -12 -36.5t-17 -14.5q-7 0 -20 8.5t-19 18.5l-211 368q-11 20 -15 29t-7.5 21.5t-3.5 27.5zM559 922q6 57 45 102l221 334q33 51 58 51q15 0 23.5 -20.5t8.5 -51.5l-6 -102q-1 -9 -2 -17t-3 -15t-3.5 -12.5t-4.5 -12t-5 -10t-6 -9.5t-6 -8.5t-6.5 -9t-6.5 -8.5 l-139 -222q-26 -37 -65 -37h-58q-45 0 -45 48z" />
<glyph unicode="l" d="M6 92l27 553q3 32 28 57t52 25q31 0 57.5 -32t26.5 -70l-9 -164q-2 -33 -22.5 -69.5t-22.5 -53.5l-8 -174q-3 -34 -38 -68.5t-54 -34.5q-12 0 -24.5 8.5t-12.5 22.5zM41 20q0 5 4.5 10.5t18.5 18.5t18 17q1 1 6.5 5.5t7 5.5t7 5t8.5 5.5t8.5 4.5t9.5 4.5t10 3t12 2 t13 0.5q19 0 57.5 26t65.5 26h41q44 0 79.5 -15.5t63.5 -15.5q33 0 58.5 15.5t43.5 15.5h144q36 0 62 -10t40 -20.5t21 -10.5q30 0 61 -31q41 -41 41 -62q0 -7 -13 -13.5t-28 -6.5h-829q-14 0 -22.5 6t-8.5 14zM49 901l25 512q3 32 13 57t22 25q17 0 49 -44t32 -79l-8 -164 q0 -30 20.5 -71t20.5 -72l-6 -123q-3 -43 -34.5 -78t-69.5 -35q-29 0 -46.5 23t-17.5 49z" />
<glyph unicode="m" d="M6 92l27 553q3 32 28 57t52 25q31 0 57.5 -32t26.5 -70l-9 -164q-2 -33 -22.5 -69.5t-22.5 -53.5l-8 -174q-3 -34 -38 -68.5t-54 -34.5q-12 0 -24.5 8.5t-12.5 22.5zM49 901l25 512q3 32 13 57t22 25q17 0 49 -44t32 -79l-8 -164q0 -30 20.5 -71t20.5 -72l-6 -123 q-3 -43 -34.5 -78t-69.5 -35q-29 0 -46.5 23t-17.5 49zM203 1229l6 164q2 15 11.5 28t19.5 13q20 0 41 -41l112 -236q2 -5 9 -17.5t9.5 -17t7 -14.5t6.5 -17t3.5 -16.5t1.5 -19.5l-8 -154q-1 -15 -9 -28t-16 -13q-15 0 -41 41l-129 232q-24 39 -24 96zM559 922q6 57 45 102 l221 334q33 51 58 51q15 0 23.5 -20.5t8.5 -51.5l-6 -102q-1 -9 -2 -17t-3 -15t-3.5 -12.5t-4.5 -12t-5 -10t-6 -9.5t-6 -8.5t-6.5 -9t-6.5 -8.5l-139 -222q-26 -37 -65 -37h-58q-45 0 -45 48zM840 451l8 163q3 47 42 80t62 33q24 0 45 -30t21 -62l-27 -512 q-1 -18 -11 -29.5t-22 -11.5q-35 0 -62.5 34.5t-27.5 67.5l6 123q0 27 -17 72.5t-17 71.5zM868 922l9 174q2 19 24.5 62.5t24.5 70.5l6 164q3 27 45 59.5t57 32.5q11 0 20 -15.5t9 -35.5l-33 -574q-1 -17 -20.5 -29t-44.5 -12q-18 0 -57.5 37.5t-39.5 65.5z" />
<glyph unicode="n" d="M6 92l27 553q3 32 28 57t52 25q31 0 57.5 -32t26.5 -70l-9 -164q-2 -33 -22.5 -69.5t-22.5 -53.5l-8 -174q-3 -34 -38 -68.5t-54 -34.5q-12 0 -24.5 8.5t-12.5 22.5zM49 901l25 512q3 32 13 57t22 25q17 0 49 -44t32 -79l-8 -164q0 -30 20.5 -71t20.5 -72l-6 -123 q-3 -43 -34.5 -78t-69.5 -35q-29 0 -46.5 23t-17.5 49zM203 1229l6 164q2 15 11.5 28t19.5 13q20 0 41 -41l112 -236q2 -5 9 -17.5t9.5 -17t7 -14.5t6.5 -17t3.5 -16.5t1.5 -19.5l-8 -154q-1 -15 -9 -28t-16 -13q-15 0 -41 41l-129 232q-24 39 -24 96zM547 610l2 41 q1 14 10.5 22.5t20.5 8.5h57q18 0 30.5 -6.5t19.5 -15.5l7 -9l123 -225q41 -75 41 -115l-6 -123q-3 -22 -12 -36.5t-17 -14.5q-7 0 -20 8.5t-19 18.5l-211 368q-11 20 -15 29t-7.5 21.5t-3.5 27.5zM840 451l8 163q3 47 42 80t62 33q24 0 45 -30t21 -62l-27 -512 q-1 -18 -11 -29.5t-22 -11.5q-35 0 -62.5 34.5t-27.5 67.5l6 123q0 27 -17 72.5t-17 71.5zM868 922l9 174q2 19 24.5 62.5t24.5 70.5l6 164q3 27 45 59.5t57 32.5q11 0 20 -15.5t9 -35.5l-33 -574q-1 -17 -20.5 -29t-44.5 -12q-18 0 -57.5 37.5t-39.5 65.5z" />
<glyph unicode="o" d="M6 92l27 553q3 32 28 57t52 25q31 0 57.5 -32t26.5 -70l-9 -164q-2 -33 -22.5 -69.5t-22.5 -53.5l-8 -174q-3 -34 -38 -68.5t-54 -34.5q-12 0 -24.5 8.5t-12.5 22.5zM41 20q0 5 4.5 10.5t18.5 18.5t18 17q1 1 6.5 5.5t7 5.5t7 5t8.5 5.5t8.5 4.5t9.5 4.5t10 3t12 2 t13 0.5q19 0 57.5 26t65.5 26h41q44 0 79.5 -15.5t63.5 -15.5q33 0 58.5 15.5t43.5 15.5h144q36 0 62 -10t40 -20.5t21 -10.5q30 0 61 -31q41 -41 41 -62q0 -7 -13 -13.5t-28 -6.5h-829q-14 0 -22.5 6t-8.5 14zM49 901l25 512q3 32 13 57t22 25q17 0 49 -44t32 -79l-8 -164 q0 -30 20.5 -71t20.5 -72l-6 -123q-3 -43 -34.5 -78t-69.5 -35q-29 0 -46.5 23t-17.5 49zM133 1536q0 8 8.5 14t22.5 6h799q51 0 51 -24q0 -20 -33 -57t-49 -37h-31q-22 0 -40 -14.5t-32 -14.5h-215q-20 0 -41 12.5t-41 12.5q-23 0 -48.5 -12.5t-32.5 -12.5h-123 q-20 0 -51 22.5t-52 22.5q-39 0 -65.5 33t-26.5 49zM840 451l8 163q3 47 42 80t62 33q24 0 45 -30t21 -62l-27 -512q-1 -18 -11 -29.5t-22 -11.5q-35 0 -62.5 34.5t-27.5 67.5l6 123q0 27 -17 72.5t-17 71.5zM868 922l9 174q2 19 24.5 62.5t24.5 70.5l6 164q3 27 45 59.5 t57 32.5q11 0 20 -15.5t9 -35.5l-33 -574q-1 -17 -20.5 -29t-44.5 -12q-18 0 -57.5 37.5t-39.5 65.5z" />
<glyph unicode="p" d="M6 92l27 553q3 32 28 57t52 25q31 0 57.5 -32t26.5 -70l-9 -164q-2 -33 -22.5 -69.5t-22.5 -53.5l-8 -174q-3 -34 -38 -68.5t-54 -34.5q-12 0 -24.5 8.5t-12.5 22.5zM49 901l25 512q3 32 13 57t22 25q17 0 49 -44t32 -79l-8 -164q0 -30 20.5 -71t20.5 -72l-6 -123 q-3 -43 -34.5 -78t-69.5 -35q-29 0 -46.5 23t-17.5 49zM133 1536q0 8 8.5 14t22.5 6h799q51 0 51 -24q0 -20 -33 -57t-49 -37h-31q-22 0 -40 -14.5t-32 -14.5h-215q-20 0 -41 12.5t-41 12.5q-23 0 -48.5 -12.5t-32.5 -12.5h-123q-20 0 -51 22.5t-52 22.5q-39 0 -65.5 33 t-26.5 49zM141 778q0 32 30.5 57t68.5 25h102q38 0 68 -25t30 -57t-31 -57t-71 -25h-94q-40 0 -71.5 25t-31.5 57zM530 778q0 32 30.5 57t68.5 25h205q38 0 68 -25t30 -57t-31.5 -57t-71.5 -25h-196q-40 0 -71.5 25t-31.5 57zM868 922l9 174q2 19 24.5 62.5t24.5 70.5l6 164 q3 27 45 59.5t57 32.5q11 0 20 -15.5t9 -35.5l-33 -574q-1 -17 -20.5 -29t-44.5 -12q-18 0 -57.5 37.5t-39.5 65.5z" />
<glyph unicode="q" d="M6 92l27 553q3 32 28 57t52 25q31 0 57.5 -32t26.5 -70l-9 -164q-2 -33 -22.5 -69.5t-22.5 -53.5l-8 -174q-3 -34 -38 -68.5t-54 -34.5q-12 0 -24.5 8.5t-12.5 22.5zM41 20q0 5 4.5 10.5t18.5 18.5t18 17q1 1 6.5 5.5t7 5.5t7 5t8.5 5.5t8.5 4.5t9.5 4.5t10 3t12 2 t13 0.5q19 0 57.5 26t65.5 26h41q44 0 79.5 -15.5t63.5 -15.5q33 0 58.5 15.5t43.5 15.5h144q36 0 62 -10t40 -20.5t21 -10.5q30 0 61 -31q41 -41 41 -62q0 -7 -13 -13.5t-28 -6.5h-829q-14 0 -22.5 6t-8.5 14zM49 901l25 512q3 32 13 57t22 25q17 0 49 -44t32 -79l-8 -164 q0 -30 20.5 -71t20.5 -72l-6 -123q-3 -43 -34.5 -78t-69.5 -35q-29 0 -46.5 23t-17.5 49zM133 1536q0 8 8.5 14t22.5 6h799q51 0 51 -24q0 -20 -33 -57t-49 -37h-31q-22 0 -40 -14.5t-32 -14.5h-215q-20 0 -41 12.5t-41 12.5q-23 0 -48.5 -12.5t-32.5 -12.5h-123 q-20 0 -51 22.5t-52 22.5q-39 0 -65.5 33t-26.5 49zM547 610l2 41q1 14 10.5 22.5t20.5 8.5h57q18 0 30.5 -6.5t19.5 -15.5l7 -9l123 -225q41 -75 41 -115l-6 -123q-3 -22 -12 -36.5t-17 -14.5q-7 0 -20 8.5t-19 18.5l-211 368q-11 20 -15 29t-7.5 21.5t-3.5 27.5zM840 451 l8 163q3 47 42 80t62 33q24 0 45 -30t21 -62l-27 -512q-1 -18 -11 -29.5t-22 -11.5q-35 0 -62.5 34.5t-27.5 67.5l6 123q0 27 -17 72.5t-17 71.5zM868 922l9 174q2 19 24.5 62.5t24.5 70.5l6 164q3 27 45 59.5t57 32.5q11 0 20 -15.5t9 -35.5l-33 -574q-1 -17 -20.5 -29 t-44.5 -12q-18 0 -57.5 37.5t-39.5 65.5z" />
<glyph unicode="r" d="M6 92l27 553q3 32 28 57t52 25q31 0 57.5 -32t26.5 -70l-9 -164q-2 -33 -22.5 -69.5t-22.5 -53.5l-8 -174q-3 -34 -38 -68.5t-54 -34.5q-12 0 -24.5 8.5t-12.5 22.5zM49 901l25 512q3 32 13 57t22 25q17 0 49 -44t32 -79l-8 -164q0 -30 20.5 -71t20.5 -72l-6 -123 q-3 -43 -34.5 -78t-69.5 -35q-29 0 -46.5 23t-17.5 49zM133 1536q0 8 8.5 14t22.5 6h799q51 0 51 -24q0 -20 -33 -57t-49 -37h-31q-22 0 -40 -14.5t-32 -14.5h-215q-20 0 -41 12.5t-41 12.5q-23 0 -48.5 -12.5t-32.5 -12.5h-123q-20 0 -51 22.5t-52 22.5q-39 0 -65.5 33 t-26.5 49zM141 778q0 32 30.5 57t68.5 25h102q38 0 68 -25t30 -57t-31 -57t-71 -25h-94q-40 0 -71.5 25t-31.5 57zM530 778q0 32 30.5 57t68.5 25h205q38 0 68 -25t30 -57t-31.5 -57t-71.5 -25h-196q-40 0 -71.5 25t-31.5 57zM547 610l2 41q1 14 10.5 22.5t20.5 8.5h57 q18 0 30.5 -6.5t19.5 -15.5l7 -9l123 -225q41 -75 41 -115l-6 -123q-3 -22 -12 -36.5t-17 -14.5q-7 0 -20 8.5t-19 18.5l-211 368q-11 20 -15 29t-7.5 21.5t-3.5 27.5zM868 922l9 174q2 19 24.5 62.5t24.5 70.5l6 164q3 27 45 59.5t57 32.5q11 0 20 -15.5t9 -35.5l-33 -574 q-1 -17 -20.5 -29t-44.5 -12q-18 0 -57.5 37.5t-39.5 65.5z" />
<glyph unicode="s" d="M41 20q0 5 4.5 10.5t18.5 18.5t18 17q1 1 6.5 5.5t7 5.5t7 5t8.5 5.5t8.5 4.5t9.5 4.5t10 3t12 2t13 0.5q19 0 57.5 26t65.5 26h41q44 0 79.5 -15.5t63.5 -15.5q33 0 58.5 15.5t43.5 15.5h144q36 0 62 -10t40 -20.5t21 -10.5q30 0 61 -31q41 -41 41 -62q0 -7 -13 -13.5 t-28 -6.5h-829q-14 0 -22.5 6t-8.5 14zM49 901l25 512q3 32 13 57t22 25q17 0 49 -44t32 -79l-8 -164q0 -30 20.5 -71t20.5 -72l-6 -123q-3 -43 -34.5 -78t-69.5 -35q-29 0 -46.5 23t-17.5 49zM133 1536q0 8 8.5 14t22.5 6h799q51 0 51 -24q0 -20 -33 -57t-49 -37h-31 q-22 0 -40 -14.5t-32 -14.5h-215q-20 0 -41 12.5t-41 12.5q-23 0 -48.5 -12.5t-32.5 -12.5h-123q-20 0 -51 22.5t-52 22.5q-39 0 -65.5 33t-26.5 49zM141 778q0 32 30.5 57t68.5 25h102q38 0 68 -25t30 -57t-31 -57t-71 -25h-94q-40 0 -71.5 25t-31.5 57zM530 778 q0 32 30.5 57t68.5 25h205q38 0 68 -25t30 -57t-31.5 -57t-71.5 -25h-196q-40 0 -71.5 25t-31.5 57zM840 451l8 163q3 47 42 80t62 33q24 0 45 -30t21 -62l-27 -512q-1 -18 -11 -29.5t-22 -11.5q-35 0 -62.5 34.5t-27.5 67.5l6 123q0 27 -17 72.5t-17 71.5z" />
<glyph unicode="t" d="M133 1536q0 8 8.5 14t22.5 6h799q51 0 51 -24q0 -20 -33 -57t-49 -37h-31q-22 0 -40 -14.5t-32 -14.5h-215q-20 0 -41 12.5t-41 12.5q-23 0 -48.5 -12.5t-32.5 -12.5h-123q-20 0 -51 22.5t-52 22.5q-39 0 -65.5 33t-26.5 49zM379 225l6 123q3 47 19 88t16 76l4 61 q2 35 4.5 58t8.5 44.5t17 31.5t27 10q23 0 37 -51t14 -93q0 -24 5.5 -77.5t5.5 -85.5l-6 -185q-2 -32 -24 -57t-52 -25q-27 0 -54.5 29t-27.5 53zM420 1198l8 133q3 35 34.5 58.5t59.5 23.5q25 0 48.5 -21.5t23.5 -50.5l-14 -235q-1 -18 -16.5 -64t-16.5 -79l-4 -72 q-2 -20 -15.5 -46t-31.5 -26t-36 23t-18 39l9 143q0 29 -15.5 83t-15.5 91z" />
<glyph unicode="u" d="M6 92l27 553q3 32 28 57t52 25q31 0 57.5 -32t26.5 -70l-9 -164q-2 -33 -22.5 -69.5t-22.5 -53.5l-8 -174q-3 -34 -38 -68.5t-54 -34.5q-12 0 -24.5 8.5t-12.5 22.5zM41 20q0 5 4.5 10.5t18.5 18.5t18 17q1 1 6.5 5.5t7 5.5t7 5t8.5 5.5t8.5 4.5t9.5 4.5t10 3t12 2 t13 0.5q19 0 57.5 26t65.5 26h41q44 0 79.5 -15.5t63.5 -15.5q33 0 58.5 15.5t43.5 15.5h144q36 0 62 -10t40 -20.5t21 -10.5q30 0 61 -31q41 -41 41 -62q0 -7 -13 -13.5t-28 -6.5h-829q-14 0 -22.5 6t-8.5 14zM49 901l25 512q3 32 13 57t22 25q17 0 49 -44t32 -79l-8 -164 q0 -30 20.5 -71t20.5 -72l-6 -123q-3 -43 -34.5 -78t-69.5 -35q-29 0 -46.5 23t-17.5 49zM840 451l8 163q3 47 42 80t62 33q24 0 45 -30t21 -62l-27 -512q-1 -18 -11 -29.5t-22 -11.5q-35 0 -62.5 34.5t-27.5 67.5l6 123q0 27 -17 72.5t-17 71.5zM868 922l9 174 q2 19 24.5 62.5t24.5 70.5l6 164q3 27 45 59.5t57 32.5q11 0 20 -15.5t9 -35.5l-33 -574q-1 -17 -20.5 -29t-44.5 -12q-18 0 -57.5 37.5t-39.5 65.5z" />
<glyph unicode="v" d="M6 92l27 553q3 32 28 57t52 25q31 0 57.5 -32t26.5 -70l-9 -164q-2 -33 -22.5 -69.5t-22.5 -53.5l-8 -174q-3 -34 -38 -68.5t-54 -34.5q-12 0 -24.5 8.5t-12.5 22.5zM49 901l25 512q3 32 13 57t22 25q17 0 49 -44t32 -79l-8 -164q0 -30 20.5 -71t20.5 -72l-6 -123 q-3 -43 -34.5 -78t-69.5 -35q-29 0 -46.5 23t-17.5 49zM147 164l7 133q2 22 7.5 39t10 25.5t15 23t14.5 21.5l133 225q3 4 12.5 17.5t16 21t17 15t21.5 7.5q6 0 10.5 -13t4.5 -28l-10 -159q-4 -45 -25 -66l-154 -262q-9 -18 -25.5 -29.5t-31.5 -11.5q-23 0 -23 41zM559 922 q6 57 45 102l221 334q33 51 58 51q15 0 23.5 -20.5t8.5 -51.5l-6 -102q-1 -9 -2 -17t-3 -15t-3.5 -12.5t-4.5 -12t-5 -10t-6 -9.5t-6 -8.5t-6.5 -9t-6.5 -8.5l-139 -222q-26 -37 -65 -37h-58q-45 0 -45 48z" />
<glyph unicode="w" d="M6 92l27 553q3 32 28 57t52 25q31 0 57.5 -32t26.5 -70l-9 -164q-2 -33 -22.5 -69.5t-22.5 -53.5l-8 -174q-3 -34 -38 -68.5t-54 -34.5q-12 0 -24.5 8.5t-12.5 22.5zM49 901l25 512q3 32 13 57t22 25q17 0 49 -44t32 -79l-8 -164q0 -30 20.5 -71t20.5 -72l-6 -123 q-3 -43 -34.5 -78t-69.5 -35q-29 0 -46.5 23t-17.5 49zM147 164l7 133q2 22 7.5 39t10 25.5t15 23t14.5 21.5l133 225q3 4 12.5 17.5t16 21t17 15t21.5 7.5q6 0 10.5 -13t4.5 -28l-10 -159q-4 -45 -25 -66l-154 -262q-9 -18 -25.5 -29.5t-31.5 -11.5q-23 0 -23 41zM547 610 l2 41q1 14 10.5 22.5t20.5 8.5h57q18 0 30.5 -6.5t19.5 -15.5l7 -9l123 -225q41 -75 41 -115l-6 -123q-3 -22 -12 -36.5t-17 -14.5q-7 0 -20 8.5t-19 18.5l-211 368q-11 20 -15 29t-7.5 21.5t-3.5 27.5zM840 451l8 163q3 47 42 80t62 33q24 0 45 -30t21 -62l-27 -512 q-1 -18 -11 -29.5t-22 -11.5q-35 0 -62.5 34.5t-27.5 67.5l6 123q0 27 -17 72.5t-17 71.5zM868 922l9 174q2 19 24.5 62.5t24.5 70.5l6 164q3 27 45 59.5t57 32.5q11 0 20 -15.5t9 -35.5l-33 -574q-1 -17 -20.5 -29t-44.5 -12q-18 0 -57.5 37.5t-39.5 65.5z" />
<glyph unicode="x" d="M147 164l7 133q2 22 7.5 39t10 25.5t15 23t14.5 21.5l133 225q3 4 12.5 17.5t16 21t17 15t21.5 7.5q6 0 10.5 -13t4.5 -28l-10 -159q-4 -45 -25 -66l-154 -262q-9 -18 -25.5 -29.5t-31.5 -11.5q-23 0 -23 41zM203 1229l6 164q2 15 11.5 28t19.5 13q20 0 41 -41l112 -236 q2 -5 9 -17.5t9.5 -17t7 -14.5t6.5 -17t3.5 -16.5t1.5 -19.5l-8 -154q-1 -15 -9 -28t-16 -13q-15 0 -41 41l-129 232q-24 39 -24 96zM547 610l2 41q1 14 10.5 22.5t20.5 8.5h57q18 0 30.5 -6.5t19.5 -15.5l7 -9l123 -225q41 -75 41 -115l-6 -123q-3 -22 -12 -36.5t-17 -14.5 q-7 0 -20 8.5t-19 18.5l-211 368q-11 20 -15 29t-7.5 21.5t-3.5 27.5zM559 922q6 57 45 102l221 334q33 51 58 51q15 0 23.5 -20.5t8.5 -51.5l-6 -102q-1 -9 -2 -17t-3 -15t-3.5 -12.5t-4.5 -12t-5 -10t-6 -9.5t-6 -8.5t-6.5 -9t-6.5 -8.5l-139 -222q-26 -37 -65 -37h-58 q-45 0 -45 48z" />
<glyph unicode="y" d="M203 1229l6 164q2 15 11.5 28t19.5 13q20 0 41 -41l112 -236q2 -5 9 -17.5t9.5 -17t7 -14.5t6.5 -17t3.5 -16.5t1.5 -19.5l-8 -154q-1 -15 -9 -28t-16 -13q-15 0 -41 41l-129 232q-24 39 -24 96zM379 225l6 123q3 47 19 88t16 76l4 61q2 35 4.5 58t8.5 44.5t17 31.5 t27 10q23 0 37 -51t14 -93q0 -24 5.5 -77.5t5.5 -85.5l-6 -185q-2 -32 -24 -57t-52 -25q-27 0 -54.5 29t-27.5 53zM559 922q6 57 45 102l221 334q33 51 58 51q15 0 23.5 -20.5t8.5 -51.5l-6 -102q-1 -9 -2 -17t-3 -15t-3.5 -12.5t-4.5 -12t-5 -10t-6 -9.5t-6 -8.5t-6.5 -9 t-6.5 -8.5l-139 -222q-26 -37 -65 -37h-58q-45 0 -45 48z" />
<glyph unicode="z" d="M41 20q0 5 4.5 10.5t18.5 18.5t18 17q1 1 6.5 5.5t7 5.5t7 5t8.5 5.5t8.5 4.5t9.5 4.5t10 3t12 2t13 0.5q19 0 57.5 26t65.5 26h41q44 0 79.5 -15.5t63.5 -15.5q33 0 58.5 15.5t43.5 15.5h144q36 0 62 -10t40 -20.5t21 -10.5q30 0 61 -31q41 -41 41 -62q0 -7 -13 -13.5 t-28 -6.5h-829q-14 0 -22.5 6t-8.5 14zM133 1536q0 8 8.5 14t22.5 6h799q51 0 51 -24q0 -20 -33 -57t-49 -37h-31q-22 0 -40 -14.5t-32 -14.5h-215q-20 0 -41 12.5t-41 12.5q-23 0 -48.5 -12.5t-32.5 -12.5h-123q-20 0 -51 22.5t-52 22.5q-39 0 -65.5 33t-26.5 49zM147 164 l7 133q2 22 7.5 39t10 25.5t15 23t14.5 21.5l133 225q3 4 12.5 17.5t16 21t17 15t21.5 7.5q6 0 10.5 -13t4.5 -28l-10 -159q-4 -45 -25 -66l-154 -262q-9 -18 -25.5 -29.5t-31.5 -11.5q-23 0 -23 41zM559 922q6 57 45 102l221 334q33 51 58 51q15 0 23.5 -20.5t8.5 -51.5 l-6 -102q-1 -9 -2 -17t-3 -15t-3.5 -12.5t-4.5 -12t-5 -10t-6 -9.5t-6 -8.5t-6.5 -9t-6.5 -8.5l-139 -222q-26 -37 -65 -37h-58q-45 0 -45 48z" />
<glyph unicode="|" d="M379 225l6 123q3 47 19 88t16 76l4 61q2 35 4.5 58t8.5 44.5t17 31.5t27 10q23 0 37 -51t14 -93q0 -24 5.5 -77.5t5.5 -85.5l-6 -185q-2 -32 -24 -57t-52 -25q-27 0 -54.5 29t-27.5 53zM420 1198l8 133q3 35 34.5 58.5t59.5 23.5q25 0 48.5 -21.5t23.5 -50.5l-14 -235 q-1 -18 -16.5 -64t-16.5 -79l-4 -72q-2 -20 -15.5 -46t-31.5 -26t-36 23t-18 39l9 143q0 29 -15.5 83t-15.5 91z" />
<glyph unicode="~" d="M6 92l27 553q3 32 28 57t52 25q31 0 57.5 -32t26.5 -70l-9 -164q-2 -33 -22.5 -69.5t-22.5 -53.5l-8 -174q-3 -34 -38 -68.5t-54 -34.5q-12 0 -24.5 8.5t-12.5 22.5zM41 20q0 5 4.5 10.5t18.5 18.5t18 17q1 1 6.5 5.5t7 5.5t7 5t8.5 5.5t8.5 4.5t9.5 4.5t10 3t12 2 t13 0.5q19 0 57.5 26t65.5 26h41q44 0 79.5 -15.5t63.5 -15.5q33 0 58.5 15.5t43.5 15.5h144q36 0 62 -10t40 -20.5t21 -10.5q30 0 61 -31q41 -41 41 -62q0 -7 -13 -13.5t-28 -6.5h-829q-14 0 -22.5 6t-8.5 14zM49 901l25 512q3 32 13 57t22 25q17 0 49 -44t32 -79l-8 -164 q0 -30 20.5 -71t20.5 -72l-6 -123q-3 -43 -34.5 -78t-69.5 -35q-29 0 -46.5 23t-17.5 49zM133 1536q0 8 8.5 14t22.5 6h799q51 0 51 -24q0 -20 -33 -57t-49 -37h-31q-22 0 -40 -14.5t-32 -14.5h-215q-20 0 -41 12.5t-41 12.5q-23 0 -48.5 -12.5t-32.5 -12.5h-123 q-20 0 -51 22.5t-52 22.5q-39 0 -65.5 33t-26.5 49zM141 778q0 32 30.5 57t68.5 25h102q38 0 68 -25t30 -57t-31 -57t-71 -25h-94q-40 0 -71.5 25t-31.5 57zM147 164l7 133q2 22 7.5 39t10 25.5t15 23t14.5 21.5l133 225q3 4 12.5 17.5t16 21t17 15t21.5 7.5q6 0 10.5 -13 t4.5 -28l-10 -159q-4 -45 -25 -66l-154 -262q-9 -18 -25.5 -29.5t-31.5 -11.5q-23 0 -23 41zM203 1229l6 164q2 15 11.5 28t19.5 13q20 0 41 -41l112 -236q2 -5 9 -17.5t9.5 -17t7 -14.5t6.5 -17t3.5 -16.5t1.5 -19.5l-8 -154q-1 -15 -9 -28t-16 -13q-15 0 -41 41l-129 232 q-24 39 -24 96zM379 225l6 123q3 47 19 88t16 76l4 61q2 35 4.5 58t8.5 44.5t17 31.5t27 10q23 0 37 -51t14 -93q0 -24 5.5 -77.5t5.5 -85.5l-6 -185q-2 -32 -24 -57t-52 -25q-27 0 -54.5 29t-27.5 53zM420 1198l8 133q3 35 34.5 58.5t59.5 23.5q25 0 48.5 -21.5t23.5 -50.5 l-14 -235q-1 -18 -16.5 -64t-16.5 -79l-4 -72q-2 -20 -15.5 -46t-31.5 -26t-36 23t-18 39l9 143q0 29 -15.5 83t-15.5 91zM530 778q0 32 30.5 57t68.5 25h205q38 0 68 -25t30 -57t-31.5 -57t-71.5 -25h-196q-40 0 -71.5 25t-31.5 57zM547 610l2 41q1 14 10.5 22.5t20.5 8.5 h57q18 0 30.5 -6.5t19.5 -15.5l7 -9l123 -225q41 -75 41 -115l-6 -123q-3 -22 -12 -36.5t-17 -14.5q-7 0 -20 8.5t-19 18.5l-211 368q-11 20 -15 29t-7.5 21.5t-3.5 27.5zM559 922q6 57 45 102l221 334q33 51 58 51q15 0 23.5 -20.5t8.5 -51.5l-6 -102q-1 -9 -2 -17t-3 -15 t-3.5 -12.5t-4.5 -12t-5 -10t-6 -9.5t-6 -8.5t-6.5 -9t-6.5 -8.5l-139 -222q-26 -37 -65 -37h-58q-45 0 -45 48zM840 451l8 163q3 47 42 80t62 33q24 0 45 -30t21 -62l-27 -512q-1 -18 -11 -29.5t-22 -11.5q-35 0 -62.5 34.5t-27.5 67.5l6 123q0 27 -17 72.5t-17 71.5z M868 922l9 174q2 19 24.5 62.5t24.5 70.5l6 164q3 27 45 59.5t57 32.5q11 0 20 -15.5t9 -35.5l-33 -574q-1 -17 -20.5 -29t-44.5 -12q-18 0 -57.5 37.5t-39.5 65.5z" />
<glyph unicode="&#xa0;" />
<glyph unicode="&#xad;" d="M141 778q0 32 30.5 57t68.5 25h102q38 0 68 -25t30 -57t-31 -57t-71 -25h-94q-40 0 -71.5 25t-31.5 57zM530 778q0 32 30.5 57t68.5 25h205q38 0 68 -25t30 -57t-31.5 -57t-71.5 -25h-196q-40 0 -71.5 25t-31.5 57z" />
<glyph unicode="&#xc0;" d="M6 92l27 553q3 32 28 57t52 25q31 0 57.5 -32t26.5 -70l-9 -164q-2 -33 -22.5 -69.5t-22.5 -53.5l-8 -174q-3 -34 -38 -68.5t-54 -34.5q-12 0 -24.5 8.5t-12.5 22.5zM49 901l25 512q3 32 13 57t22 25q17 0 49 -44t32 -79l-8 -164q0 -30 20.5 -71t20.5 -72l-6 -123 q-3 -43 -34.5 -78t-69.5 -35q-29 0 -46.5 23t-17.5 49zM133 1536q0 8 8.5 14t22.5 6h799q51 0 51 -24q0 -20 -33 -57t-49 -37h-31q-22 0 -40 -14.5t-32 -14.5h-215q-20 0 -41 12.5t-41 12.5q-23 0 -48.5 -12.5t-32.5 -12.5h-123q-20 0 -51 22.5t-52 22.5q-39 0 -65.5 33 t-26.5 49zM141 778q0 32 30.5 57t68.5 25h102q38 0 68 -25t30 -57t-31 -57t-71 -25h-94q-40 0 -71.5 25t-31.5 57zM530 778q0 32 30.5 57t68.5 25h205q38 0 68 -25t30 -57t-31.5 -57t-71.5 -25h-196q-40 0 -71.5 25t-31.5 57zM840 451l8 163q3 47 42 80t62 33q24 0 45 -30 t21 -62l-27 -512q-1 -18 -11 -29.5t-22 -11.5q-35 0 -62.5 34.5t-27.5 67.5l6 123q0 27 -17 72.5t-17 71.5zM868 922l9 174q2 19 24.5 62.5t24.5 70.5l6 164q3 27 45 59.5t57 32.5q11 0 20 -15.5t9 -35.5l-33 -574q-1 -17 -20.5 -29t-44.5 -12q-18 0 -57.5 37.5t-39.5 65.5z " />
<glyph unicode="&#xc1;" d="M6 92l27 553q3 32 28 57t52 25q31 0 57.5 -32t26.5 -70l-9 -164q-2 -33 -22.5 -69.5t-22.5 -53.5l-8 -174q-3 -34 -38 -68.5t-54 -34.5q-12 0 -24.5 8.5t-12.5 22.5zM49 901l25 512q3 32 13 57t22 25q17 0 49 -44t32 -79l-8 -164q0 -30 20.5 -71t20.5 -72l-6 -123 q-3 -43 -34.5 -78t-69.5 -35q-29 0 -46.5 23t-17.5 49zM133 1536q0 8 8.5 14t22.5 6h799q51 0 51 -24q0 -20 -33 -57t-49 -37h-31q-22 0 -40 -14.5t-32 -14.5h-215q-20 0 -41 12.5t-41 12.5q-23 0 -48.5 -12.5t-32.5 -12.5h-123q-20 0 -51 22.5t-52 22.5q-39 0 -65.5 33 t-26.5 49zM141 778q0 32 30.5 57t68.5 25h102q38 0 68 -25t30 -57t-31 -57t-71 -25h-94q-40 0 -71.5 25t-31.5 57zM530 778q0 32 30.5 57t68.5 25h205q38 0 68 -25t30 -57t-31.5 -57t-71.5 -25h-196q-40 0 -71.5 25t-31.5 57zM840 451l8 163q3 47 42 80t62 33q24 0 45 -30 t21 -62l-27 -512q-1 -18 -11 -29.5t-22 -11.5q-35 0 -62.5 34.5t-27.5 67.5l6 123q0 27 -17 72.5t-17 71.5zM868 922l9 174q2 19 24.5 62.5t24.5 70.5l6 164q3 27 45 59.5t57 32.5q11 0 20 -15.5t9 -35.5l-33 -574q-1 -17 -20.5 -29t-44.5 -12q-18 0 -57.5 37.5t-39.5 65.5z " />
<glyph unicode="&#xc2;" d="M6 92l27 553q3 32 28 57t52 25q31 0 57.5 -32t26.5 -70l-9 -164q-2 -33 -22.5 -69.5t-22.5 -53.5l-8 -174q-3 -34 -38 -68.5t-54 -34.5q-12 0 -24.5 8.5t-12.5 22.5zM49 901l25 512q3 32 13 57t22 25q17 0 49 -44t32 -79l-8 -164q0 -30 20.5 -71t20.5 -72l-6 -123 q-3 -43 -34.5 -78t-69.5 -35q-29 0 -46.5 23t-17.5 49zM133 1536q0 8 8.5 14t22.5 6h799q51 0 51 -24q0 -20 -33 -57t-49 -37h-31q-22 0 -40 -14.5t-32 -14.5h-215q-20 0 -41 12.5t-41 12.5q-23 0 -48.5 -12.5t-32.5 -12.5h-123q-20 0 -51 22.5t-52 22.5q-39 0 -65.5 33 t-26.5 49zM141 778q0 32 30.5 57t68.5 25h102q38 0 68 -25t30 -57t-31 -57t-71 -25h-94q-40 0 -71.5 25t-31.5 57zM530 778q0 32 30.5 57t68.5 25h205q38 0 68 -25t30 -57t-31.5 -57t-71.5 -25h-196q-40 0 -71.5 25t-31.5 57zM840 451l8 163q3 47 42 80t62 33q24 0 45 -30 t21 -62l-27 -512q-1 -18 -11 -29.5t-22 -11.5q-35 0 -62.5 34.5t-27.5 67.5l6 123q0 27 -17 72.5t-17 71.5zM868 922l9 174q2 19 24.5 62.5t24.5 70.5l6 164q3 27 45 59.5t57 32.5q11 0 20 -15.5t9 -35.5l-33 -574q-1 -17 -20.5 -29t-44.5 -12q-18 0 -57.5 37.5t-39.5 65.5z " />
<glyph unicode="&#xc3;" d="M6 92l27 553q3 32 28 57t52 25q31 0 57.5 -32t26.5 -70l-9 -164q-2 -33 -22.5 -69.5t-22.5 -53.5l-8 -174q-3 -34 -38 -68.5t-54 -34.5q-12 0 -24.5 8.5t-12.5 22.5zM49 901l25 512q3 32 13 57t22 25q17 0 49 -44t32 -79l-8 -164q0 -30 20.5 -71t20.5 -72l-6 -123 q-3 -43 -34.5 -78t-69.5 -35q-29 0 -46.5 23t-17.5 49zM133 1536q0 8 8.5 14t22.5 6h799q51 0 51 -24q0 -20 -33 -57t-49 -37h-31q-22 0 -40 -14.5t-32 -14.5h-215q-20 0 -41 12.5t-41 12.5q-23 0 -48.5 -12.5t-32.5 -12.5h-123q-20 0 -51 22.5t-52 22.5q-39 0 -65.5 33 t-26.5 49zM141 778q0 32 30.5 57t68.5 25h102q38 0 68 -25t30 -57t-31 -57t-71 -25h-94q-40 0 -71.5 25t-31.5 57zM530 778q0 32 30.5 57t68.5 25h205q38 0 68 -25t30 -57t-31.5 -57t-71.5 -25h-196q-40 0 -71.5 25t-31.5 57zM840 451l8 163q3 47 42 80t62 33q24 0 45 -30 t21 -62l-27 -512q-1 -18 -11 -29.5t-22 -11.5q-35 0 -62.5 34.5t-27.5 67.5l6 123q0 27 -17 72.5t-17 71.5zM868 922l9 174q2 19 24.5 62.5t24.5 70.5l6 164q3 27 45 59.5t57 32.5q11 0 20 -15.5t9 -35.5l-33 -574q-1 -17 -20.5 -29t-44.5 -12q-18 0 -57.5 37.5t-39.5 65.5z " />
<glyph unicode="&#xc4;" d="M6 92l27 553q3 32 28 57t52 25q31 0 57.5 -32t26.5 -70l-9 -164q-2 -33 -22.5 -69.5t-22.5 -53.5l-8 -174q-3 -34 -38 -68.5t-54 -34.5q-12 0 -24.5 8.5t-12.5 22.5zM49 901l25 512q3 32 13 57t22 25q17 0 49 -44t32 -79l-8 -164q0 -30 20.5 -71t20.5 -72l-6 -123 q-3 -43 -34.5 -78t-69.5 -35q-29 0 -46.5 23t-17.5 49zM133 1536q0 8 8.5 14t22.5 6h799q51 0 51 -24q0 -20 -33 -57t-49 -37h-31q-22 0 -40 -14.5t-32 -14.5h-215q-20 0 -41 12.5t-41 12.5q-23 0 -48.5 -12.5t-32.5 -12.5h-123q-20 0 -51 22.5t-52 22.5q-39 0 -65.5 33 t-26.5 49zM141 778q0 32 30.5 57t68.5 25h102q38 0 68 -25t30 -57t-31 -57t-71 -25h-94q-40 0 -71.5 25t-31.5 57zM530 778q0 32 30.5 57t68.5 25h205q38 0 68 -25t30 -57t-31.5 -57t-71.5 -25h-196q-40 0 -71.5 25t-31.5 57zM840 451l8 163q3 47 42 80t62 33q24 0 45 -30 t21 -62l-27 -512q-1 -18 -11 -29.5t-22 -11.5q-35 0 -62.5 34.5t-27.5 67.5l6 123q0 27 -17 72.5t-17 71.5zM868 922l9 174q2 19 24.5 62.5t24.5 70.5l6 164q3 27 45 59.5t57 32.5q11 0 20 -15.5t9 -35.5l-33 -574q-1 -17 -20.5 -29t-44.5 -12q-18 0 -57.5 37.5t-39.5 65.5z " />
<glyph unicode="&#xc5;" d="M6 92l27 553q3 32 28 57t52 25q31 0 57.5 -32t26.5 -70l-9 -164q-2 -33 -22.5 -69.5t-22.5 -53.5l-8 -174q-3 -34 -38 -68.5t-54 -34.5q-12 0 -24.5 8.5t-12.5 22.5zM49 901l25 512q3 32 13 57t22 25q17 0 49 -44t32 -79l-8 -164q0 -30 20.5 -71t20.5 -72l-6 -123 q-3 -43 -34.5 -78t-69.5 -35q-29 0 -46.5 23t-17.5 49zM133 1536q0 8 8.5 14t22.5 6h799q51 0 51 -24q0 -20 -33 -57t-49 -37h-31q-22 0 -40 -14.5t-32 -14.5h-215q-20 0 -41 12.5t-41 12.5q-23 0 -48.5 -12.5t-32.5 -12.5h-123q-20 0 -51 22.5t-52 22.5q-39 0 -65.5 33 t-26.5 49zM141 778q0 32 30.5 57t68.5 25h102q38 0 68 -25t30 -57t-31 -57t-71 -25h-94q-40 0 -71.5 25t-31.5 57zM530 778q0 32 30.5 57t68.5 25h205q38 0 68 -25t30 -57t-31.5 -57t-71.5 -25h-196q-40 0 -71.5 25t-31.5 57zM840 451l8 163q3 47 42 80t62 33q24 0 45 -30 t21 -62l-27 -512q-1 -18 -11 -29.5t-22 -11.5q-35 0 -62.5 34.5t-27.5 67.5l6 123q0 27 -17 72.5t-17 71.5zM868 922l9 174q2 19 24.5 62.5t24.5 70.5l6 164q3 27 45 59.5t57 32.5q11 0 20 -15.5t9 -35.5l-33 -574q-1 -17 -20.5 -29t-44.5 -12q-18 0 -57.5 37.5t-39.5 65.5z " />
<glyph unicode="&#xc7;" d="M6 92l27 553q3 32 28 57t52 25q31 0 57.5 -32t26.5 -70l-9 -164q-2 -33 -22.5 -69.5t-22.5 -53.5l-8 -174q-3 -34 -38 -68.5t-54 -34.5q-12 0 -24.5 8.5t-12.5 22.5zM41 20q0 5 4.5 10.5t18.5 18.5t18 17q1 1 6.5 5.5t7 5.5t7 5t8.5 5.5t8.5 4.5t9.5 4.5t10 3t12 2 t13 0.5q19 0 57.5 26t65.5 26h41q44 0 79.5 -15.5t63.5 -15.5q33 0 58.5 15.5t43.5 15.5h144q36 0 62 -10t40 -20.5t21 -10.5q30 0 61 -31q41 -41 41 -62q0 -7 -13 -13.5t-28 -6.5h-829q-14 0 -22.5 6t-8.5 14zM49 901l25 512q3 32 13 57t22 25q17 0 49 -44t32 -79l-8 -164 q0 -30 20.5 -71t20.5 -72l-6 -123q-3 -43 -34.5 -78t-69.5 -35q-29 0 -46.5 23t-17.5 49zM133 1536q0 8 8.5 14t22.5 6h799q51 0 51 -24q0 -20 -33 -57t-49 -37h-31q-22 0 -40 -14.5t-32 -14.5h-215q-20 0 -41 12.5t-41 12.5q-23 0 -48.5 -12.5t-32.5 -12.5h-123 q-20 0 -51 22.5t-52 22.5q-39 0 -65.5 33t-26.5 49z" />
<glyph unicode="&#xc8;" d="M6 92l27 553q3 32 28 57t52 25q31 0 57.5 -32t26.5 -70l-9 -164q-2 -33 -22.5 -69.5t-22.5 -53.5l-8 -174q-3 -34 -38 -68.5t-54 -34.5q-12 0 -24.5 8.5t-12.5 22.5zM41 20q0 5 4.5 10.5t18.5 18.5t18 17q1 1 6.5 5.5t7 5.5t7 5t8.5 5.5t8.5 4.5t9.5 4.5t10 3t12 2 t13 0.5q19 0 57.5 26t65.5 26h41q44 0 79.5 -15.5t63.5 -15.5q33 0 58.5 15.5t43.5 15.5h144q36 0 62 -10t40 -20.5t21 -10.5q30 0 61 -31q41 -41 41 -62q0 -7 -13 -13.5t-28 -6.5h-829q-14 0 -22.5 6t-8.5 14zM49 901l25 512q3 32 13 57t22 25q17 0 49 -44t32 -79l-8 -164 q0 -30 20.5 -71t20.5 -72l-6 -123q-3 -43 -34.5 -78t-69.5 -35q-29 0 -46.5 23t-17.5 49zM133 1536q0 8 8.5 14t22.5 6h799q51 0 51 -24q0 -20 -33 -57t-49 -37h-31q-22 0 -40 -14.5t-32 -14.5h-215q-20 0 -41 12.5t-41 12.5q-23 0 -48.5 -12.5t-32.5 -12.5h-123 q-20 0 -51 22.5t-52 22.5q-39 0 -65.5 33t-26.5 49zM141 778q0 32 30.5 57t68.5 25h102q38 0 68 -25t30 -57t-31 -57t-71 -25h-94q-40 0 -71.5 25t-31.5 57z" />
<glyph unicode="&#xc9;" d="M6 92l27 553q3 32 28 57t52 25q31 0 57.5 -32t26.5 -70l-9 -164q-2 -33 -22.5 -69.5t-22.5 -53.5l-8 -174q-3 -34 -38 -68.5t-54 -34.5q-12 0 -24.5 8.5t-12.5 22.5zM41 20q0 5 4.5 10.5t18.5 18.5t18 17q1 1 6.5 5.5t7 5.5t7 5t8.5 5.5t8.5 4.5t9.5 4.5t10 3t12 2 t13 0.5q19 0 57.5 26t65.5 26h41q44 0 79.5 -15.5t63.5 -15.5q33 0 58.5 15.5t43.5 15.5h144q36 0 62 -10t40 -20.5t21 -10.5q30 0 61 -31q41 -41 41 -62q0 -7 -13 -13.5t-28 -6.5h-829q-14 0 -22.5 6t-8.5 14zM49 901l25 512q3 32 13 57t22 25q17 0 49 -44t32 -79l-8 -164 q0 -30 20.5 -71t20.5 -72l-6 -123q-3 -43 -34.5 -78t-69.5 -35q-29 0 -46.5 23t-17.5 49zM133 1536q0 8 8.5 14t22.5 6h799q51 0 51 -24q0 -20 -33 -57t-49 -37h-31q-22 0 -40 -14.5t-32 -14.5h-215q-20 0 -41 12.5t-41 12.5q-23 0 -48.5 -12.5t-32.5 -12.5h-123 q-20 0 -51 22.5t-52 22.5q-39 0 -65.5 33t-26.5 49zM141 778q0 32 30.5 57t68.5 25h102q38 0 68 -25t30 -57t-31 -57t-71 -25h-94q-40 0 -71.5 25t-31.5 57z" />
<glyph unicode="&#xca;" d="M6 92l27 553q3 32 28 57t52 25q31 0 57.5 -32t26.5 -70l-9 -164q-2 -33 -22.5 -69.5t-22.5 -53.5l-8 -174q-3 -34 -38 -68.5t-54 -34.5q-12 0 -24.5 8.5t-12.5 22.5zM41 20q0 5 4.5 10.5t18.5 18.5t18 17q1 1 6.5 5.5t7 5.5t7 5t8.5 5.5t8.5 4.5t9.5 4.5t10 3t12 2 t13 0.5q19 0 57.5 26t65.5 26h41q44 0 79.5 -15.5t63.5 -15.5q33 0 58.5 15.5t43.5 15.5h144q36 0 62 -10t40 -20.5t21 -10.5q30 0 61 -31q41 -41 41 -62q0 -7 -13 -13.5t-28 -6.5h-829q-14 0 -22.5 6t-8.5 14zM49 901l25 512q3 32 13 57t22 25q17 0 49 -44t32 -79l-8 -164 q0 -30 20.5 -71t20.5 -72l-6 -123q-3 -43 -34.5 -78t-69.5 -35q-29 0 -46.5 23t-17.5 49zM133 1536q0 8 8.5 14t22.5 6h799q51 0 51 -24q0 -20 -33 -57t-49 -37h-31q-22 0 -40 -14.5t-32 -14.5h-215q-20 0 -41 12.5t-41 12.5q-23 0 -48.5 -12.5t-32.5 -12.5h-123 q-20 0 -51 22.5t-52 22.5q-39 0 -65.5 33t-26.5 49zM141 778q0 32 30.5 57t68.5 25h102q38 0 68 -25t30 -57t-31 -57t-71 -25h-94q-40 0 -71.5 25t-31.5 57z" />
<glyph unicode="&#xcb;" d="M6 92l27 553q3 32 28 57t52 25q31 0 57.5 -32t26.5 -70l-9 -164q-2 -33 -22.5 -69.5t-22.5 -53.5l-8 -174q-3 -34 -38 -68.5t-54 -34.5q-12 0 -24.5 8.5t-12.5 22.5zM41 20q0 5 4.5 10.5t18.5 18.5t18 17q1 1 6.5 5.5t7 5.5t7 5t8.5 5.5t8.5 4.5t9.5 4.5t10 3t12 2 t13 0.5q19 0 57.5 26t65.5 26h41q44 0 79.5 -15.5t63.5 -15.5q33 0 58.5 15.5t43.5 15.5h144q36 0 62 -10t40 -20.5t21 -10.5q30 0 61 -31q41 -41 41 -62q0 -7 -13 -13.5t-28 -6.5h-829q-14 0 -22.5 6t-8.5 14zM49 901l25 512q3 32 13 57t22 25q17 0 49 -44t32 -79l-8 -164 q0 -30 20.5 -71t20.5 -72l-6 -123q-3 -43 -34.5 -78t-69.5 -35q-29 0 -46.5 23t-17.5 49zM133 1536q0 8 8.5 14t22.5 6h799q51 0 51 -24q0 -20 -33 -57t-49 -37h-31q-22 0 -40 -14.5t-32 -14.5h-215q-20 0 -41 12.5t-41 12.5q-23 0 -48.5 -12.5t-32.5 -12.5h-123 q-20 0 -51 22.5t-52 22.5q-39 0 -65.5 33t-26.5 49zM141 778q0 32 30.5 57t68.5 25h102q38 0 68 -25t30 -57t-31 -57t-71 -25h-94q-40 0 -71.5 25t-31.5 57z" />
<glyph unicode="&#xcc;" d="M41 20q0 5 4.5 10.5t18.5 18.5t18 17q1 1 6.5 5.5t7 5.5t7 5t8.5 5.5t8.5 4.5t9.5 4.5t10 3t12 2t13 0.5q19 0 57.5 26t65.5 26h41q44 0 79.5 -15.5t63.5 -15.5q33 0 58.5 15.5t43.5 15.5h144q36 0 62 -10t40 -20.5t21 -10.5q30 0 61 -31q41 -41 41 -62q0 -7 -13 -13.5 t-28 -6.5h-829q-14 0 -22.5 6t-8.5 14zM133 1536q0 8 8.5 14t22.5 6h799q51 0 51 -24q0 -20 -33 -57t-49 -37h-31q-22 0 -40 -14.5t-32 -14.5h-215q-20 0 -41 12.5t-41 12.5q-23 0 -48.5 -12.5t-32.5 -12.5h-123q-20 0 -51 22.5t-52 22.5q-39 0 -65.5 33t-26.5 49zM379 225 l6 123q3 47 19 88t16 76l4 61q2 35 4.5 58t8.5 44.5t17 31.5t27 10q23 0 37 -51t14 -93q0 -24 5.5 -77.5t5.5 -85.5l-6 -185q-2 -32 -24 -57t-52 -25q-27 0 -54.5 29t-27.5 53zM420 1198l8 133q3 35 34.5 58.5t59.5 23.5q25 0 48.5 -21.5t23.5 -50.5l-14 -235 q-1 -18 -16.5 -64t-16.5 -79l-4 -72q-2 -20 -15.5 -46t-31.5 -26t-36 23t-18 39l9 143q0 29 -15.5 83t-15.5 91z" />
<glyph unicode="&#xcd;" d="M41 20q0 5 4.5 10.5t18.5 18.5t18 17q1 1 6.5 5.5t7 5.5t7 5t8.5 5.5t8.5 4.5t9.5 4.5t10 3t12 2t13 0.5q19 0 57.5 26t65.5 26h41q44 0 79.5 -15.5t63.5 -15.5q33 0 58.5 15.5t43.5 15.5h144q36 0 62 -10t40 -20.5t21 -10.5q30 0 61 -31q41 -41 41 -62q0 -7 -13 -13.5 t-28 -6.5h-829q-14 0 -22.5 6t-8.5 14zM133 1536q0 8 8.5 14t22.5 6h799q51 0 51 -24q0 -20 -33 -57t-49 -37h-31q-22 0 -40 -14.5t-32 -14.5h-215q-20 0 -41 12.5t-41 12.5q-23 0 -48.5 -12.5t-32.5 -12.5h-123q-20 0 -51 22.5t-52 22.5q-39 0 -65.5 33t-26.5 49zM379 225 l6 123q3 47 19 88t16 76l4 61q2 35 4.5 58t8.5 44.5t17 31.5t27 10q23 0 37 -51t14 -93q0 -24 5.5 -77.5t5.5 -85.5l-6 -185q-2 -32 -24 -57t-52 -25q-27 0 -54.5 29t-27.5 53zM420 1198l8 133q3 35 34.5 58.5t59.5 23.5q25 0 48.5 -21.5t23.5 -50.5l-14 -235 q-1 -18 -16.5 -64t-16.5 -79l-4 -72q-2 -20 -15.5 -46t-31.5 -26t-36 23t-18 39l9 143q0 29 -15.5 83t-15.5 91z" />
<glyph unicode="&#xce;" d="M41 20q0 5 4.5 10.5t18.5 18.5t18 17q1 1 6.5 5.5t7 5.5t7 5t8.5 5.5t8.5 4.5t9.5 4.5t10 3t12 2t13 0.5q19 0 57.5 26t65.5 26h41q44 0 79.5 -15.5t63.5 -15.5q33 0 58.5 15.5t43.5 15.5h144q36 0 62 -10t40 -20.5t21 -10.5q30 0 61 -31q41 -41 41 -62q0 -7 -13 -13.5 t-28 -6.5h-829q-14 0 -22.5 6t-8.5 14zM133 1536q0 8 8.5 14t22.5 6h799q51 0 51 -24q0 -20 -33 -57t-49 -37h-31q-22 0 -40 -14.5t-32 -14.5h-215q-20 0 -41 12.5t-41 12.5q-23 0 -48.5 -12.5t-32.5 -12.5h-123q-20 0 -51 22.5t-52 22.5q-39 0 -65.5 33t-26.5 49zM379 225 l6 123q3 47 19 88t16 76l4 61q2 35 4.5 58t8.5 44.5t17 31.5t27 10q23 0 37 -51t14 -93q0 -24 5.5 -77.5t5.5 -85.5l-6 -185q-2 -32 -24 -57t-52 -25q-27 0 -54.5 29t-27.5 53zM420 1198l8 133q3 35 34.5 58.5t59.5 23.5q25 0 48.5 -21.5t23.5 -50.5l-14 -235 q-1 -18 -16.5 -64t-16.5 -79l-4 -72q-2 -20 -15.5 -46t-31.5 -26t-36 23t-18 39l9 143q0 29 -15.5 83t-15.5 91z" />
<glyph unicode="&#xcf;" d="M41 20q0 5 4.5 10.5t18.5 18.5t18 17q1 1 6.5 5.5t7 5.5t7 5t8.5 5.5t8.5 4.5t9.5 4.5t10 3t12 2t13 0.5q19 0 57.5 26t65.5 26h41q44 0 79.5 -15.5t63.5 -15.5q33 0 58.5 15.5t43.5 15.5h144q36 0 62 -10t40 -20.5t21 -10.5q30 0 61 -31q41 -41 41 -62q0 -7 -13 -13.5 t-28 -6.5h-829q-14 0 -22.5 6t-8.5 14zM133 1536q0 8 8.5 14t22.5 6h799q51 0 51 -24q0 -20 -33 -57t-49 -37h-31q-22 0 -40 -14.5t-32 -14.5h-215q-20 0 -41 12.5t-41 12.5q-23 0 -48.5 -12.5t-32.5 -12.5h-123q-20 0 -51 22.5t-52 22.5q-39 0 -65.5 33t-26.5 49zM379 225 l6 123q3 47 19 88t16 76l4 61q2 35 4.5 58t8.5 44.5t17 31.5t27 10q23 0 37 -51t14 -93q0 -24 5.5 -77.5t5.5 -85.5l-6 -185q-2 -32 -24 -57t-52 -25q-27 0 -54.5 29t-27.5 53zM420 1198l8 133q3 35 34.5 58.5t59.5 23.5q25 0 48.5 -21.5t23.5 -50.5l-14 -235 q-1 -18 -16.5 -64t-16.5 -79l-4 -72q-2 -20 -15.5 -46t-31.5 -26t-36 23t-18 39l9 143q0 29 -15.5 83t-15.5 91z" />
<glyph unicode="&#xd1;" d="M6 92l27 553q3 32 28 57t52 25q31 0 57.5 -32t26.5 -70l-9 -164q-2 -33 -22.5 -69.5t-22.5 -53.5l-8 -174q-3 -34 -38 -68.5t-54 -34.5q-12 0 -24.5 8.5t-12.5 22.5zM49 901l25 512q3 32 13 57t22 25q17 0 49 -44t32 -79l-8 -164q0 -30 20.5 -71t20.5 -72l-6 -123 q-3 -43 -34.5 -78t-69.5 -35q-29 0 -46.5 23t-17.5 49zM203 1229l6 164q2 15 11.5 28t19.5 13q20 0 41 -41l112 -236q2 -5 9 -17.5t9.5 -17t7 -14.5t6.5 -17t3.5 -16.5t1.5 -19.5l-8 -154q-1 -15 -9 -28t-16 -13q-15 0 -41 41l-129 232q-24 39 -24 96zM547 610l2 41 q1 14 10.5 22.5t20.5 8.5h57q18 0 30.5 -6.5t19.5 -15.5l7 -9l123 -225q41 -75 41 -115l-6 -123q-3 -22 -12 -36.5t-17 -14.5q-7 0 -20 8.5t-19 18.5l-211 368q-11 20 -15 29t-7.5 21.5t-3.5 27.5zM840 451l8 163q3 47 42 80t62 33q24 0 45 -30t21 -62l-27 -512 q-1 -18 -11 -29.5t-22 -11.5q-35 0 -62.5 34.5t-27.5 67.5l6 123q0 27 -17 72.5t-17 71.5zM868 922l9 174q2 19 24.5 62.5t24.5 70.5l6 164q3 27 45 59.5t57 32.5q11 0 20 -15.5t9 -35.5l-33 -574q-1 -17 -20.5 -29t-44.5 -12q-18 0 -57.5 37.5t-39.5 65.5z" />
<glyph unicode="&#xd2;" d="M6 92l27 553q3 32 28 57t52 25q31 0 57.5 -32t26.5 -70l-9 -164q-2 -33 -22.5 -69.5t-22.5 -53.5l-8 -174q-3 -34 -38 -68.5t-54 -34.5q-12 0 -24.5 8.5t-12.5 22.5zM41 20q0 5 4.5 10.5t18.5 18.5t18 17q1 1 6.5 5.5t7 5.5t7 5t8.5 5.5t8.5 4.5t9.5 4.5t10 3t12 2 t13 0.5q19 0 57.5 26t65.5 26h41q44 0 79.5 -15.5t63.5 -15.5q33 0 58.5 15.5t43.5 15.5h144q36 0 62 -10t40 -20.5t21 -10.5q30 0 61 -31q41 -41 41 -62q0 -7 -13 -13.5t-28 -6.5h-829q-14 0 -22.5 6t-8.5 14zM49 901l25 512q3 32 13 57t22 25q17 0 49 -44t32 -79l-8 -164 q0 -30 20.5 -71t20.5 -72l-6 -123q-3 -43 -34.5 -78t-69.5 -35q-29 0 -46.5 23t-17.5 49zM133 1536q0 8 8.5 14t22.5 6h799q51 0 51 -24q0 -20 -33 -57t-49 -37h-31q-22 0 -40 -14.5t-32 -14.5h-215q-20 0 -41 12.5t-41 12.5q-23 0 -48.5 -12.5t-32.5 -12.5h-123 q-20 0 -51 22.5t-52 22.5q-39 0 -65.5 33t-26.5 49zM840 451l8 163q3 47 42 80t62 33q24 0 45 -30t21 -62l-27 -512q-1 -18 -11 -29.5t-22 -11.5q-35 0 -62.5 34.5t-27.5 67.5l6 123q0 27 -17 72.5t-17 71.5zM868 922l9 174q2 19 24.5 62.5t24.5 70.5l6 164q3 27 45 59.5 t57 32.5q11 0 20 -15.5t9 -35.5l-33 -574q-1 -17 -20.5 -29t-44.5 -12q-18 0 -57.5 37.5t-39.5 65.5z" />
<glyph unicode="&#xd3;" d="M6 92l27 553q3 32 28 57t52 25q31 0 57.5 -32t26.5 -70l-9 -164q-2 -33 -22.5 -69.5t-22.5 -53.5l-8 -174q-3 -34 -38 -68.5t-54 -34.5q-12 0 -24.5 8.5t-12.5 22.5zM41 20q0 5 4.5 10.5t18.5 18.5t18 17q1 1 6.5 5.5t7 5.5t7 5t8.5 5.5t8.5 4.5t9.5 4.5t10 3t12 2 t13 0.5q19 0 57.5 26t65.5 26h41q44 0 79.5 -15.5t63.5 -15.5q33 0 58.5 15.5t43.5 15.5h144q36 0 62 -10t40 -20.5t21 -10.5q30 0 61 -31q41 -41 41 -62q0 -7 -13 -13.5t-28 -6.5h-829q-14 0 -22.5 6t-8.5 14zM49 901l25 512q3 32 13 57t22 25q17 0 49 -44t32 -79l-8 -164 q0 -30 20.5 -71t20.5 -72l-6 -123q-3 -43 -34.5 -78t-69.5 -35q-29 0 -46.5 23t-17.5 49zM133 1536q0 8 8.5 14t22.5 6h799q51 0 51 -24q0 -20 -33 -57t-49 -37h-31q-22 0 -40 -14.5t-32 -14.5h-215q-20 0 -41 12.5t-41 12.5q-23 0 -48.5 -12.5t-32.5 -12.5h-123 q-20 0 -51 22.5t-52 22.5q-39 0 -65.5 33t-26.5 49zM840 451l8 163q3 47 42 80t62 33q24 0 45 -30t21 -62l-27 -512q-1 -18 -11 -29.5t-22 -11.5q-35 0 -62.5 34.5t-27.5 67.5l6 123q0 27 -17 72.5t-17 71.5zM868 922l9 174q2 19 24.5 62.5t24.5 70.5l6 164q3 27 45 59.5 t57 32.5q11 0 20 -15.5t9 -35.5l-33 -574q-1 -17 -20.5 -29t-44.5 -12q-18 0 -57.5 37.5t-39.5 65.5z" />
<glyph unicode="&#xd4;" d="M6 92l27 553q3 32 28 57t52 25q31 0 57.5 -32t26.5 -70l-9 -164q-2 -33 -22.5 -69.5t-22.5 -53.5l-8 -174q-3 -34 -38 -68.5t-54 -34.5q-12 0 -24.5 8.5t-12.5 22.5zM41 20q0 5 4.5 10.5t18.5 18.5t18 17q1 1 6.5 5.5t7 5.5t7 5t8.5 5.5t8.5 4.5t9.5 4.5t10 3t12 2 t13 0.5q19 0 57.5 26t65.5 26h41q44 0 79.5 -15.5t63.5 -15.5q33 0 58.5 15.5t43.5 15.5h144q36 0 62 -10t40 -20.5t21 -10.5q30 0 61 -31q41 -41 41 -62q0 -7 -13 -13.5t-28 -6.5h-829q-14 0 -22.5 6t-8.5 14zM49 901l25 512q3 32 13 57t22 25q17 0 49 -44t32 -79l-8 -164 q0 -30 20.5 -71t20.5 -72l-6 -123q-3 -43 -34.5 -78t-69.5 -35q-29 0 -46.5 23t-17.5 49zM133 1536q0 8 8.5 14t22.5 6h799q51 0 51 -24q0 -20 -33 -57t-49 -37h-31q-22 0 -40 -14.5t-32 -14.5h-215q-20 0 -41 12.5t-41 12.5q-23 0 -48.5 -12.5t-32.5 -12.5h-123 q-20 0 -51 22.5t-52 22.5q-39 0 -65.5 33t-26.5 49zM840 451l8 163q3 47 42 80t62 33q24 0 45 -30t21 -62l-27 -512q-1 -18 -11 -29.5t-22 -11.5q-35 0 -62.5 34.5t-27.5 67.5l6 123q0 27 -17 72.5t-17 71.5zM868 922l9 174q2 19 24.5 62.5t24.5 70.5l6 164q3 27 45 59.5 t57 32.5q11 0 20 -15.5t9 -35.5l-33 -574q-1 -17 -20.5 -29t-44.5 -12q-18 0 -57.5 37.5t-39.5 65.5z" />
<glyph unicode="&#xd5;" d="M6 92l27 553q3 32 28 57t52 25q31 0 57.5 -32t26.5 -70l-9 -164q-2 -33 -22.5 -69.5t-22.5 -53.5l-8 -174q-3 -34 -38 -68.5t-54 -34.5q-12 0 -24.5 8.5t-12.5 22.5zM41 20q0 5 4.5 10.5t18.5 18.5t18 17q1 1 6.5 5.5t7 5.5t7 5t8.5 5.5t8.5 4.5t9.5 4.5t10 3t12 2 t13 0.5q19 0 57.5 26t65.5 26h41q44 0 79.5 -15.5t63.5 -15.5q33 0 58.5 15.5t43.5 15.5h144q36 0 62 -10t40 -20.5t21 -10.5q30 0 61 -31q41 -41 41 -62q0 -7 -13 -13.5t-28 -6.5h-829q-14 0 -22.5 6t-8.5 14zM49 901l25 512q3 32 13 57t22 25q17 0 49 -44t32 -79l-8 -164 q0 -30 20.5 -71t20.5 -72l-6 -123q-3 -43 -34.5 -78t-69.5 -35q-29 0 -46.5 23t-17.5 49zM133 1536q0 8 8.5 14t22.5 6h799q51 0 51 -24q0 -20 -33 -57t-49 -37h-31q-22 0 -40 -14.5t-32 -14.5h-215q-20 0 -41 12.5t-41 12.5q-23 0 -48.5 -12.5t-32.5 -12.5h-123 q-20 0 -51 22.5t-52 22.5q-39 0 -65.5 33t-26.5 49zM840 451l8 163q3 47 42 80t62 33q24 0 45 -30t21 -62l-27 -512q-1 -18 -11 -29.5t-22 -11.5q-35 0 -62.5 34.5t-27.5 67.5l6 123q0 27 -17 72.5t-17 71.5zM868 922l9 174q2 19 24.5 62.5t24.5 70.5l6 164q3 27 45 59.5 t57 32.5q11 0 20 -15.5t9 -35.5l-33 -574q-1 -17 -20.5 -29t-44.5 -12q-18 0 -57.5 37.5t-39.5 65.5z" />
<glyph unicode="&#xd6;" d="M6 92l27 553q3 32 28 57t52 25q31 0 57.5 -32t26.5 -70l-9 -164q-2 -33 -22.5 -69.5t-22.5 -53.5l-8 -174q-3 -34 -38 -68.5t-54 -34.5q-12 0 -24.5 8.5t-12.5 22.5zM41 20q0 5 4.5 10.5t18.5 18.5t18 17q1 1 6.5 5.5t7 5.5t7 5t8.5 5.5t8.5 4.5t9.5 4.5t10 3t12 2 t13 0.5q19 0 57.5 26t65.5 26h41q44 0 79.5 -15.5t63.5 -15.5q33 0 58.5 15.5t43.5 15.5h144q36 0 62 -10t40 -20.5t21 -10.5q30 0 61 -31q41 -41 41 -62q0 -7 -13 -13.5t-28 -6.5h-829q-14 0 -22.5 6t-8.5 14zM49 901l25 512q3 32 13 57t22 25q17 0 49 -44t32 -79l-8 -164 q0 -30 20.5 -71t20.5 -72l-6 -123q-3 -43 -34.5 -78t-69.5 -35q-29 0 -46.5 23t-17.5 49zM133 1536q0 8 8.5 14t22.5 6h799q51 0 51 -24q0 -20 -33 -57t-49 -37h-31q-22 0 -40 -14.5t-32 -14.5h-215q-20 0 -41 12.5t-41 12.5q-23 0 -48.5 -12.5t-32.5 -12.5h-123 q-20 0 -51 22.5t-52 22.5q-39 0 -65.5 33t-26.5 49zM840 451l8 163q3 47 42 80t62 33q24 0 45 -30t21 -62l-27 -512q-1 -18 -11 -29.5t-22 -11.5q-35 0 -62.5 34.5t-27.5 67.5l6 123q0 27 -17 72.5t-17 71.5zM868 922l9 174q2 19 24.5 62.5t24.5 70.5l6 164q3 27 45 59.5 t57 32.5q11 0 20 -15.5t9 -35.5l-33 -574q-1 -17 -20.5 -29t-44.5 -12q-18 0 -57.5 37.5t-39.5 65.5z" />
<glyph unicode="&#xd8;" d="M6 92l27 553q3 32 28 57t52 25q31 0 57.5 -32t26.5 -70l-9 -164q-2 -33 -22.5 -69.5t-22.5 -53.5l-8 -174q-3 -34 -38 -68.5t-54 -34.5q-12 0 -24.5 8.5t-12.5 22.5zM41 20q0 5 4.5 10.5t18.5 18.5t18 17q1 1 6.5 5.5t7 5.5t7 5t8.5 5.5t8.5 4.5t9.5 4.5t10 3t12 2 t13 0.5q19 0 57.5 26t65.5 26h41q44 0 79.5 -15.5t63.5 -15.5q33 0 58.5 15.5t43.5 15.5h144q36 0 62 -10t40 -20.5t21 -10.5q30 0 61 -31q41 -41 41 -62q0 -7 -13 -13.5t-28 -6.5h-829q-14 0 -22.5 6t-8.5 14zM49 901l25 512q3 32 13 57t22 25q17 0 49 -44t32 -79l-8 -164 q0 -30 20.5 -71t20.5 -72l-6 -123q-3 -43 -34.5 -78t-69.5 -35q-29 0 -46.5 23t-17.5 49zM133 1536q0 8 8.5 14t22.5 6h799q51 0 51 -24q0 -20 -33 -57t-49 -37h-31q-22 0 -40 -14.5t-32 -14.5h-215q-20 0 -41 12.5t-41 12.5q-23 0 -48.5 -12.5t-32.5 -12.5h-123 q-20 0 -51 22.5t-52 22.5q-39 0 -65.5 33t-26.5 49zM840 451l8 163q3 47 42 80t62 33q24 0 45 -30t21 -62l-27 -512q-1 -18 -11 -29.5t-22 -11.5q-35 0 -62.5 34.5t-27.5 67.5l6 123q0 27 -17 72.5t-17 71.5zM868 922l9 174q2 19 24.5 62.5t24.5 70.5l6 164q3 27 45 59.5 t57 32.5q11 0 20 -15.5t9 -35.5l-33 -574q-1 -17 -20.5 -29t-44.5 -12q-18 0 -57.5 37.5t-39.5 65.5z" />
<glyph unicode="&#xd9;" d="M6 92l27 553q3 32 28 57t52 25q31 0 57.5 -32t26.5 -70l-9 -164q-2 -33 -22.5 -69.5t-22.5 -53.5l-8 -174q-3 -34 -38 -68.5t-54 -34.5q-12 0 -24.5 8.5t-12.5 22.5zM41 20q0 5 4.5 10.5t18.5 18.5t18 17q1 1 6.5 5.5t7 5.5t7 5t8.5 5.5t8.5 4.5t9.5 4.5t10 3t12 2 t13 0.5q19 0 57.5 26t65.5 26h41q44 0 79.5 -15.5t63.5 -15.5q33 0 58.5 15.5t43.5 15.5h144q36 0 62 -10t40 -20.5t21 -10.5q30 0 61 -31q41 -41 41 -62q0 -7 -13 -13.5t-28 -6.5h-829q-14 0 -22.5 6t-8.5 14zM49 901l25 512q3 32 13 57t22 25q17 0 49 -44t32 -79l-8 -164 q0 -30 20.5 -71t20.5 -72l-6 -123q-3 -43 -34.5 -78t-69.5 -35q-29 0 -46.5 23t-17.5 49zM840 451l8 163q3 47 42 80t62 33q24 0 45 -30t21 -62l-27 -512q-1 -18 -11 -29.5t-22 -11.5q-35 0 -62.5 34.5t-27.5 67.5l6 123q0 27 -17 72.5t-17 71.5zM868 922l9 174 q2 19 24.5 62.5t24.5 70.5l6 164q3 27 45 59.5t57 32.5q11 0 20 -15.5t9 -35.5l-33 -574q-1 -17 -20.5 -29t-44.5 -12q-18 0 -57.5 37.5t-39.5 65.5z" />
<glyph unicode="&#xda;" d="M6 92l27 553q3 32 28 57t52 25q31 0 57.5 -32t26.5 -70l-9 -164q-2 -33 -22.5 -69.5t-22.5 -53.5l-8 -174q-3 -34 -38 -68.5t-54 -34.5q-12 0 -24.5 8.5t-12.5 22.5zM41 20q0 5 4.5 10.5t18.5 18.5t18 17q1 1 6.5 5.5t7 5.5t7 5t8.5 5.5t8.5 4.5t9.5 4.5t10 3t12 2 t13 0.5q19 0 57.5 26t65.5 26h41q44 0 79.5 -15.5t63.5 -15.5q33 0 58.5 15.5t43.5 15.5h144q36 0 62 -10t40 -20.5t21 -10.5q30 0 61 -31q41 -41 41 -62q0 -7 -13 -13.5t-28 -6.5h-829q-14 0 -22.5 6t-8.5 14zM49 901l25 512q3 32 13 57t22 25q17 0 49 -44t32 -79l-8 -164 q0 -30 20.5 -71t20.5 -72l-6 -123q-3 -43 -34.5 -78t-69.5 -35q-29 0 -46.5 23t-17.5 49zM840 451l8 163q3 47 42 80t62 33q24 0 45 -30t21 -62l-27 -512q-1 -18 -11 -29.5t-22 -11.5q-35 0 -62.5 34.5t-27.5 67.5l6 123q0 27 -17 72.5t-17 71.5zM868 922l9 174 q2 19 24.5 62.5t24.5 70.5l6 164q3 27 45 59.5t57 32.5q11 0 20 -15.5t9 -35.5l-33 -574q-1 -17 -20.5 -29t-44.5 -12q-18 0 -57.5 37.5t-39.5 65.5z" />
<glyph unicode="&#xdb;" d="M6 92l27 553q3 32 28 57t52 25q31 0 57.5 -32t26.5 -70l-9 -164q-2 -33 -22.5 -69.5t-22.5 -53.5l-8 -174q-3 -34 -38 -68.5t-54 -34.5q-12 0 -24.5 8.5t-12.5 22.5zM41 20q0 5 4.5 10.5t18.5 18.5t18 17q1 1 6.5 5.5t7 5.5t7 5t8.5 5.5t8.5 4.5t9.5 4.5t10 3t12 2 t13 0.5q19 0 57.5 26t65.5 26h41q44 0 79.5 -15.5t63.5 -15.5q33 0 58.5 15.5t43.5 15.5h144q36 0 62 -10t40 -20.5t21 -10.5q30 0 61 -31q41 -41 41 -62q0 -7 -13 -13.5t-28 -6.5h-829q-14 0 -22.5 6t-8.5 14zM49 901l25 512q3 32 13 57t22 25q17 0 49 -44t32 -79l-8 -164 q0 -30 20.5 -71t20.5 -72l-6 -123q-3 -43 -34.5 -78t-69.5 -35q-29 0 -46.5 23t-17.5 49zM840 451l8 163q3 47 42 80t62 33q24 0 45 -30t21 -62l-27 -512q-1 -18 -11 -29.5t-22 -11.5q-35 0 -62.5 34.5t-27.5 67.5l6 123q0 27 -17 72.5t-17 71.5zM868 922l9 174 q2 19 24.5 62.5t24.5 70.5l6 164q3 27 45 59.5t57 32.5q11 0 20 -15.5t9 -35.5l-33 -574q-1 -17 -20.5 -29t-44.5 -12q-18 0 -57.5 37.5t-39.5 65.5z" />
<glyph unicode="&#xdc;" d="M6 92l27 553q3 32 28 57t52 25q31 0 57.5 -32t26.5 -70l-9 -164q-2 -33 -22.5 -69.5t-22.5 -53.5l-8 -174q-3 -34 -38 -68.5t-54 -34.5q-12 0 -24.5 8.5t-12.5 22.5zM41 20q0 5 4.5 10.5t18.5 18.5t18 17q1 1 6.5 5.5t7 5.5t7 5t8.5 5.5t8.5 4.5t9.5 4.5t10 3t12 2 t13 0.5q19 0 57.5 26t65.5 26h41q44 0 79.5 -15.5t63.5 -15.5q33 0 58.5 15.5t43.5 15.5h144q36 0 62 -10t40 -20.5t21 -10.5q30 0 61 -31q41 -41 41 -62q0 -7 -13 -13.5t-28 -6.5h-829q-14 0 -22.5 6t-8.5 14zM49 901l25 512q3 32 13 57t22 25q17 0 49 -44t32 -79l-8 -164 q0 -30 20.5 -71t20.5 -72l-6 -123q-3 -43 -34.5 -78t-69.5 -35q-29 0 -46.5 23t-17.5 49zM840 451l8 163q3 47 42 80t62 33q24 0 45 -30t21 -62l-27 -512q-1 -18 -11 -29.5t-22 -11.5q-35 0 -62.5 34.5t-27.5 67.5l6 123q0 27 -17 72.5t-17 71.5zM868 922l9 174 q2 19 24.5 62.5t24.5 70.5l6 164q3 27 45 59.5t57 32.5q11 0 20 -15.5t9 -35.5l-33 -574q-1 -17 -20.5 -29t-44.5 -12q-18 0 -57.5 37.5t-39.5 65.5z" />
<glyph unicode="&#xdd;" d="M203 1229l6 164q2 15 11.5 28t19.5 13q20 0 41 -41l112 -236q2 -5 9 -17.5t9.5 -17t7 -14.5t6.5 -17t3.5 -16.5t1.5 -19.5l-8 -154q-1 -15 -9 -28t-16 -13q-15 0 -41 41l-129 232q-24 39 -24 96zM379 225l6 123q3 47 19 88t16 76l4 61q2 35 4.5 58t8.5 44.5t17 31.5 t27 10q23 0 37 -51t14 -93q0 -24 5.5 -77.5t5.5 -85.5l-6 -185q-2 -32 -24 -57t-52 -25q-27 0 -54.5 29t-27.5 53zM559 922q6 57 45 102l221 334q33 51 58 51q15 0 23.5 -20.5t8.5 -51.5l-6 -102q-1 -9 -2 -17t-3 -15t-3.5 -12.5t-4.5 -12t-5 -10t-6 -9.5t-6 -8.5t-6.5 -9 t-6.5 -8.5l-139 -222q-26 -37 -65 -37h-58q-45 0 -45 48z" />
<glyph unicode="&#xe0;" d="M6 92l27 553q3 32 28 57t52 25q31 0 57.5 -32t26.5 -70l-9 -164q-2 -33 -22.5 -69.5t-22.5 -53.5l-8 -174q-3 -34 -38 -68.5t-54 -34.5q-12 0 -24.5 8.5t-12.5 22.5zM49 901l25 512q3 32 13 57t22 25q17 0 49 -44t32 -79l-8 -164q0 -30 20.5 -71t20.5 -72l-6 -123 q-3 -43 -34.5 -78t-69.5 -35q-29 0 -46.5 23t-17.5 49zM133 1536q0 8 8.5 14t22.5 6h799q51 0 51 -24q0 -20 -33 -57t-49 -37h-31q-22 0 -40 -14.5t-32 -14.5h-215q-20 0 -41 12.5t-41 12.5q-23 0 -48.5 -12.5t-32.5 -12.5h-123q-20 0 -51 22.5t-52 22.5q-39 0 -65.5 33 t-26.5 49zM141 778q0 32 30.5 57t68.5 25h102q38 0 68 -25t30 -57t-31 -57t-71 -25h-94q-40 0 -71.5 25t-31.5 57zM530 778q0 32 30.5 57t68.5 25h205q38 0 68 -25t30 -57t-31.5 -57t-71.5 -25h-196q-40 0 -71.5 25t-31.5 57zM840 451l8 163q3 47 42 80t62 33q24 0 45 -30 t21 -62l-27 -512q-1 -18 -11 -29.5t-22 -11.5q-35 0 -62.5 34.5t-27.5 67.5l6 123q0 27 -17 72.5t-17 71.5zM868 922l9 174q2 19 24.5 62.5t24.5 70.5l6 164q3 27 45 59.5t57 32.5q11 0 20 -15.5t9 -35.5l-33 -574q-1 -17 -20.5 -29t-44.5 -12q-18 0 -57.5 37.5t-39.5 65.5z " />
<glyph unicode="&#xe1;" d="M6 92l27 553q3 32 28 57t52 25q31 0 57.5 -32t26.5 -70l-9 -164q-2 -33 -22.5 -69.5t-22.5 -53.5l-8 -174q-3 -34 -38 -68.5t-54 -34.5q-12 0 -24.5 8.5t-12.5 22.5zM49 901l25 512q3 32 13 57t22 25q17 0 49 -44t32 -79l-8 -164q0 -30 20.5 -71t20.5 -72l-6 -123 q-3 -43 -34.5 -78t-69.5 -35q-29 0 -46.5 23t-17.5 49zM133 1536q0 8 8.5 14t22.5 6h799q51 0 51 -24q0 -20 -33 -57t-49 -37h-31q-22 0 -40 -14.5t-32 -14.5h-215q-20 0 -41 12.5t-41 12.5q-23 0 -48.5 -12.5t-32.5 -12.5h-123q-20 0 -51 22.5t-52 22.5q-39 0 -65.5 33 t-26.5 49zM141 778q0 32 30.5 57t68.5 25h102q38 0 68 -25t30 -57t-31 -57t-71 -25h-94q-40 0 -71.5 25t-31.5 57zM530 778q0 32 30.5 57t68.5 25h205q38 0 68 -25t30 -57t-31.5 -57t-71.5 -25h-196q-40 0 -71.5 25t-31.5 57zM840 451l8 163q3 47 42 80t62 33q24 0 45 -30 t21 -62l-27 -512q-1 -18 -11 -29.5t-22 -11.5q-35 0 -62.5 34.5t-27.5 67.5l6 123q0 27 -17 72.5t-17 71.5zM868 922l9 174q2 19 24.5 62.5t24.5 70.5l6 164q3 27 45 59.5t57 32.5q11 0 20 -15.5t9 -35.5l-33 -574q-1 -17 -20.5 -29t-44.5 -12q-18 0 -57.5 37.5t-39.5 65.5z " />
<glyph unicode="&#xe2;" d="M6 92l27 553q3 32 28 57t52 25q31 0 57.5 -32t26.5 -70l-9 -164q-2 -33 -22.5 -69.5t-22.5 -53.5l-8 -174q-3 -34 -38 -68.5t-54 -34.5q-12 0 -24.5 8.5t-12.5 22.5zM49 901l25 512q3 32 13 57t22 25q17 0 49 -44t32 -79l-8 -164q0 -30 20.5 -71t20.5 -72l-6 -123 q-3 -43 -34.5 -78t-69.5 -35q-29 0 -46.5 23t-17.5 49zM133 1536q0 8 8.5 14t22.5 6h799q51 0 51 -24q0 -20 -33 -57t-49 -37h-31q-22 0 -40 -14.5t-32 -14.5h-215q-20 0 -41 12.5t-41 12.5q-23 0 -48.5 -12.5t-32.5 -12.5h-123q-20 0 -51 22.5t-52 22.5q-39 0 -65.5 33 t-26.5 49zM141 778q0 32 30.5 57t68.5 25h102q38 0 68 -25t30 -57t-31 -57t-71 -25h-94q-40 0 -71.5 25t-31.5 57zM530 778q0 32 30.5 57t68.5 25h205q38 0 68 -25t30 -57t-31.5 -57t-71.5 -25h-196q-40 0 -71.5 25t-31.5 57zM840 451l8 163q3 47 42 80t62 33q24 0 45 -30 t21 -62l-27 -512q-1 -18 -11 -29.5t-22 -11.5q-35 0 -62.5 34.5t-27.5 67.5l6 123q0 27 -17 72.5t-17 71.5zM868 922l9 174q2 19 24.5 62.5t24.5 70.5l6 164q3 27 45 59.5t57 32.5q11 0 20 -15.5t9 -35.5l-33 -574q-1 -17 -20.5 -29t-44.5 -12q-18 0 -57.5 37.5t-39.5 65.5z " />
<glyph unicode="&#xe3;" d="M6 92l27 553q3 32 28 57t52 25q31 0 57.5 -32t26.5 -70l-9 -164q-2 -33 -22.5 -69.5t-22.5 -53.5l-8 -174q-3 -34 -38 -68.5t-54 -34.5q-12 0 -24.5 8.5t-12.5 22.5zM49 901l25 512q3 32 13 57t22 25q17 0 49 -44t32 -79l-8 -164q0 -30 20.5 -71t20.5 -72l-6 -123 q-3 -43 -34.5 -78t-69.5 -35q-29 0 -46.5 23t-17.5 49zM133 1536q0 8 8.5 14t22.5 6h799q51 0 51 -24q0 -20 -33 -57t-49 -37h-31q-22 0 -40 -14.5t-32 -14.5h-215q-20 0 -41 12.5t-41 12.5q-23 0 -48.5 -12.5t-32.5 -12.5h-123q-20 0 -51 22.5t-52 22.5q-39 0 -65.5 33 t-26.5 49zM141 778q0 32 30.5 57t68.5 25h102q38 0 68 -25t30 -57t-31 -57t-71 -25h-94q-40 0 -71.5 25t-31.5 57zM530 778q0 32 30.5 57t68.5 25h205q38 0 68 -25t30 -57t-31.5 -57t-71.5 -25h-196q-40 0 -71.5 25t-31.5 57zM840 451l8 163q3 47 42 80t62 33q24 0 45 -30 t21 -62l-27 -512q-1 -18 -11 -29.5t-22 -11.5q-35 0 -62.5 34.5t-27.5 67.5l6 123q0 27 -17 72.5t-17 71.5zM868 922l9 174q2 19 24.5 62.5t24.5 70.5l6 164q3 27 45 59.5t57 32.5q11 0 20 -15.5t9 -35.5l-33 -574q-1 -17 -20.5 -29t-44.5 -12q-18 0 -57.5 37.5t-39.5 65.5z " />
<glyph unicode="&#xe4;" d="M6 92l27 553q3 32 28 57t52 25q31 0 57.5 -32t26.5 -70l-9 -164q-2 -33 -22.5 -69.5t-22.5 -53.5l-8 -174q-3 -34 -38 -68.5t-54 -34.5q-12 0 -24.5 8.5t-12.5 22.5zM49 901l25 512q3 32 13 57t22 25q17 0 49 -44t32 -79l-8 -164q0 -30 20.5 -71t20.5 -72l-6 -123 q-3 -43 -34.5 -78t-69.5 -35q-29 0 -46.5 23t-17.5 49zM133 1536q0 8 8.5 14t22.5 6h799q51 0 51 -24q0 -20 -33 -57t-49 -37h-31q-22 0 -40 -14.5t-32 -14.5h-215q-20 0 -41 12.5t-41 12.5q-23 0 -48.5 -12.5t-32.5 -12.5h-123q-20 0 -51 22.5t-52 22.5q-39 0 -65.5 33 t-26.5 49zM141 778q0 32 30.5 57t68.5 25h102q38 0 68 -25t30 -57t-31 -57t-71 -25h-94q-40 0 -71.5 25t-31.5 57zM530 778q0 32 30.5 57t68.5 25h205q38 0 68 -25t30 -57t-31.5 -57t-71.5 -25h-196q-40 0 -71.5 25t-31.5 57zM840 451l8 163q3 47 42 80t62 33q24 0 45 -30 t21 -62l-27 -512q-1 -18 -11 -29.5t-22 -11.5q-35 0 -62.5 34.5t-27.5 67.5l6 123q0 27 -17 72.5t-17 71.5zM868 922l9 174q2 19 24.5 62.5t24.5 70.5l6 164q3 27 45 59.5t57 32.5q11 0 20 -15.5t9 -35.5l-33 -574q-1 -17 -20.5 -29t-44.5 -12q-18 0 -57.5 37.5t-39.5 65.5z " />
<glyph unicode="&#xe5;" d="M6 92l27 553q3 32 28 57t52 25q31 0 57.5 -32t26.5 -70l-9 -164q-2 -33 -22.5 -69.5t-22.5 -53.5l-8 -174q-3 -34 -38 -68.5t-54 -34.5q-12 0 -24.5 8.5t-12.5 22.5zM49 901l25 512q3 32 13 57t22 25q17 0 49 -44t32 -79l-8 -164q0 -30 20.5 -71t20.5 -72l-6 -123 q-3 -43 -34.5 -78t-69.5 -35q-29 0 -46.5 23t-17.5 49zM133 1536q0 8 8.5 14t22.5 6h799q51 0 51 -24q0 -20 -33 -57t-49 -37h-31q-22 0 -40 -14.5t-32 -14.5h-215q-20 0 -41 12.5t-41 12.5q-23 0 -48.5 -12.5t-32.5 -12.5h-123q-20 0 -51 22.5t-52 22.5q-39 0 -65.5 33 t-26.5 49zM141 778q0 32 30.5 57t68.5 25h102q38 0 68 -25t30 -57t-31 -57t-71 -25h-94q-40 0 -71.5 25t-31.5 57zM530 778q0 32 30.5 57t68.5 25h205q38 0 68 -25t30 -57t-31.5 -57t-71.5 -25h-196q-40 0 -71.5 25t-31.5 57zM840 451l8 163q3 47 42 80t62 33q24 0 45 -30 t21 -62l-27 -512q-1 -18 -11 -29.5t-22 -11.5q-35 0 -62.5 34.5t-27.5 67.5l6 123q0 27 -17 72.5t-17 71.5zM868 922l9 174q2 19 24.5 62.5t24.5 70.5l6 164q3 27 45 59.5t57 32.5q11 0 20 -15.5t9 -35.5l-33 -574q-1 -17 -20.5 -29t-44.5 -12q-18 0 -57.5 37.5t-39.5 65.5z " />
<glyph unicode="&#xe7;" d="M6 92l27 553q3 32 28 57t52 25q31 0 57.5 -32t26.5 -70l-9 -164q-2 -33 -22.5 -69.5t-22.5 -53.5l-8 -174q-3 -34 -38 -68.5t-54 -34.5q-12 0 -24.5 8.5t-12.5 22.5zM41 20q0 5 4.5 10.5t18.5 18.5t18 17q1 1 6.5 5.5t7 5.5t7 5t8.5 5.5t8.5 4.5t9.5 4.5t10 3t12 2 t13 0.5q19 0 57.5 26t65.5 26h41q44 0 79.5 -15.5t63.5 -15.5q33 0 58.5 15.5t43.5 15.5h144q36 0 62 -10t40 -20.5t21 -10.5q30 0 61 -31q41 -41 41 -62q0 -7 -13 -13.5t-28 -6.5h-829q-14 0 -22.5 6t-8.5 14zM49 901l25 512q3 32 13 57t22 25q17 0 49 -44t32 -79l-8 -164 q0 -30 20.5 -71t20.5 -72l-6 -123q-3 -43 -34.5 -78t-69.5 -35q-29 0 -46.5 23t-17.5 49zM133 1536q0 8 8.5 14t22.5 6h799q51 0 51 -24q0 -20 -33 -57t-49 -37h-31q-22 0 -40 -14.5t-32 -14.5h-215q-20 0 -41 12.5t-41 12.5q-23 0 -48.5 -12.5t-32.5 -12.5h-123 q-20 0 -51 22.5t-52 22.5q-39 0 -65.5 33t-26.5 49z" />
<glyph unicode="&#xe8;" d="M6 92l27 553q3 32 28 57t52 25q31 0 57.5 -32t26.5 -70l-9 -164q-2 -33 -22.5 -69.5t-22.5 -53.5l-8 -174q-3 -34 -38 -68.5t-54 -34.5q-12 0 -24.5 8.5t-12.5 22.5zM41 20q0 5 4.5 10.5t18.5 18.5t18 17q1 1 6.5 5.5t7 5.5t7 5t8.5 5.5t8.5 4.5t9.5 4.5t10 3t12 2 t13 0.5q19 0 57.5 26t65.5 26h41q44 0 79.5 -15.5t63.5 -15.5q33 0 58.5 15.5t43.5 15.5h144q36 0 62 -10t40 -20.5t21 -10.5q30 0 61 -31q41 -41 41 -62q0 -7 -13 -13.5t-28 -6.5h-829q-14 0 -22.5 6t-8.5 14zM49 901l25 512q3 32 13 57t22 25q17 0 49 -44t32 -79l-8 -164 q0 -30 20.5 -71t20.5 -72l-6 -123q-3 -43 -34.5 -78t-69.5 -35q-29 0 -46.5 23t-17.5 49zM133 1536q0 8 8.5 14t22.5 6h799q51 0 51 -24q0 -20 -33 -57t-49 -37h-31q-22 0 -40 -14.5t-32 -14.5h-215q-20 0 -41 12.5t-41 12.5q-23 0 -48.5 -12.5t-32.5 -12.5h-123 q-20 0 -51 22.5t-52 22.5q-39 0 -65.5 33t-26.5 49zM141 778q0 32 30.5 57t68.5 25h102q38 0 68 -25t30 -57t-31 -57t-71 -25h-94q-40 0 -71.5 25t-31.5 57z" />
<glyph unicode="&#xe9;" d="M6 92l27 553q3 32 28 57t52 25q31 0 57.5 -32t26.5 -70l-9 -164q-2 -33 -22.5 -69.5t-22.5 -53.5l-8 -174q-3 -34 -38 -68.5t-54 -34.5q-12 0 -24.5 8.5t-12.5 22.5zM41 20q0 5 4.5 10.5t18.5 18.5t18 17q1 1 6.5 5.5t7 5.5t7 5t8.5 5.5t8.5 4.5t9.5 4.5t10 3t12 2 t13 0.5q19 0 57.5 26t65.5 26h41q44 0 79.5 -15.5t63.5 -15.5q33 0 58.5 15.5t43.5 15.5h144q36 0 62 -10t40 -20.5t21 -10.5q30 0 61 -31q41 -41 41 -62q0 -7 -13 -13.5t-28 -6.5h-829q-14 0 -22.5 6t-8.5 14zM49 901l25 512q3 32 13 57t22 25q17 0 49 -44t32 -79l-8 -164 q0 -30 20.5 -71t20.5 -72l-6 -123q-3 -43 -34.5 -78t-69.5 -35q-29 0 -46.5 23t-17.5 49zM133 1536q0 8 8.5 14t22.5 6h799q51 0 51 -24q0 -20 -33 -57t-49 -37h-31q-22 0 -40 -14.5t-32 -14.5h-215q-20 0 -41 12.5t-41 12.5q-23 0 -48.5 -12.5t-32.5 -12.5h-123 q-20 0 -51 22.5t-52 22.5q-39 0 -65.5 33t-26.5 49zM141 778q0 32 30.5 57t68.5 25h102q38 0 68 -25t30 -57t-31 -57t-71 -25h-94q-40 0 -71.5 25t-31.5 57z" />
<glyph unicode="&#xea;" d="M6 92l27 553q3 32 28 57t52 25q31 0 57.5 -32t26.5 -70l-9 -164q-2 -33 -22.5 -69.5t-22.5 -53.5l-8 -174q-3 -34 -38 -68.5t-54 -34.5q-12 0 -24.5 8.5t-12.5 22.5zM41 20q0 5 4.5 10.5t18.5 18.5t18 17q1 1 6.5 5.5t7 5.5t7 5t8.5 5.5t8.5 4.5t9.5 4.5t10 3t12 2 t13 0.5q19 0 57.5 26t65.5 26h41q44 0 79.5 -15.5t63.5 -15.5q33 0 58.5 15.5t43.5 15.5h144q36 0 62 -10t40 -20.5t21 -10.5q30 0 61 -31q41 -41 41 -62q0 -7 -13 -13.5t-28 -6.5h-829q-14 0 -22.5 6t-8.5 14zM49 901l25 512q3 32 13 57t22 25q17 0 49 -44t32 -79l-8 -164 q0 -30 20.5 -71t20.5 -72l-6 -123q-3 -43 -34.5 -78t-69.5 -35q-29 0 -46.5 23t-17.5 49zM133 1536q0 8 8.5 14t22.5 6h799q51 0 51 -24q0 -20 -33 -57t-49 -37h-31q-22 0 -40 -14.5t-32 -14.5h-215q-20 0 -41 12.5t-41 12.5q-23 0 -48.5 -12.5t-32.5 -12.5h-123 q-20 0 -51 22.5t-52 22.5q-39 0 -65.5 33t-26.5 49zM141 778q0 32 30.5 57t68.5 25h102q38 0 68 -25t30 -57t-31 -57t-71 -25h-94q-40 0 -71.5 25t-31.5 57z" />
<glyph unicode="&#xeb;" d="M6 92l27 553q3 32 28 57t52 25q31 0 57.5 -32t26.5 -70l-9 -164q-2 -33 -22.5 -69.5t-22.5 -53.5l-8 -174q-3 -34 -38 -68.5t-54 -34.5q-12 0 -24.5 8.5t-12.5 22.5zM41 20q0 5 4.5 10.5t18.5 18.5t18 17q1 1 6.5 5.5t7 5.5t7 5t8.5 5.5t8.5 4.5t9.5 4.5t10 3t12 2 t13 0.5q19 0 57.5 26t65.5 26h41q44 0 79.5 -15.5t63.5 -15.5q33 0 58.5 15.5t43.5 15.5h144q36 0 62 -10t40 -20.5t21 -10.5q30 0 61 -31q41 -41 41 -62q0 -7 -13 -13.5t-28 -6.5h-829q-14 0 -22.5 6t-8.5 14zM49 901l25 512q3 32 13 57t22 25q17 0 49 -44t32 -79l-8 -164 q0 -30 20.5 -71t20.5 -72l-6 -123q-3 -43 -34.5 -78t-69.5 -35q-29 0 -46.5 23t-17.5 49zM133 1536q0 8 8.5 14t22.5 6h799q51 0 51 -24q0 -20 -33 -57t-49 -37h-31q-22 0 -40 -14.5t-32 -14.5h-215q-20 0 -41 12.5t-41 12.5q-23 0 -48.5 -12.5t-32.5 -12.5h-123 q-20 0 -51 22.5t-52 22.5q-39 0 -65.5 33t-26.5 49zM141 778q0 32 30.5 57t68.5 25h102q38 0 68 -25t30 -57t-31 -57t-71 -25h-94q-40 0 -71.5 25t-31.5 57z" />
<glyph unicode="&#xec;" d="M41 20q0 5 4.5 10.5t18.5 18.5t18 17q1 1 6.5 5.5t7 5.5t7 5t8.5 5.5t8.5 4.5t9.5 4.5t10 3t12 2t13 0.5q19 0 57.5 26t65.5 26h41q44 0 79.5 -15.5t63.5 -15.5q33 0 58.5 15.5t43.5 15.5h144q36 0 62 -10t40 -20.5t21 -10.5q30 0 61 -31q41 -41 41 -62q0 -7 -13 -13.5 t-28 -6.5h-829q-14 0 -22.5 6t-8.5 14zM133 1536q0 8 8.5 14t22.5 6h799q51 0 51 -24q0 -20 -33 -57t-49 -37h-31q-22 0 -40 -14.5t-32 -14.5h-215q-20 0 -41 12.5t-41 12.5q-23 0 -48.5 -12.5t-32.5 -12.5h-123q-20 0 -51 22.5t-52 22.5q-39 0 -65.5 33t-26.5 49zM379 225 l6 123q3 47 19 88t16 76l4 61q2 35 4.5 58t8.5 44.5t17 31.5t27 10q23 0 37 -51t14 -93q0 -24 5.5 -77.5t5.5 -85.5l-6 -185q-2 -32 -24 -57t-52 -25q-27 0 -54.5 29t-27.5 53zM420 1198l8 133q3 35 34.5 58.5t59.5 23.5q25 0 48.5 -21.5t23.5 -50.5l-14 -235 q-1 -18 -16.5 -64t-16.5 -79l-4 -72q-2 -20 -15.5 -46t-31.5 -26t-36 23t-18 39l9 143q0 29 -15.5 83t-15.5 91z" />
<glyph unicode="&#xed;" d="M41 20q0 5 4.5 10.5t18.5 18.5t18 17q1 1 6.5 5.5t7 5.5t7 5t8.5 5.5t8.5 4.5t9.5 4.5t10 3t12 2t13 0.5q19 0 57.5 26t65.5 26h41q44 0 79.5 -15.5t63.5 -15.5q33 0 58.5 15.5t43.5 15.5h144q36 0 62 -10t40 -20.5t21 -10.5q30 0 61 -31q41 -41 41 -62q0 -7 -13 -13.5 t-28 -6.5h-829q-14 0 -22.5 6t-8.5 14zM133 1536q0 8 8.5 14t22.5 6h799q51 0 51 -24q0 -20 -33 -57t-49 -37h-31q-22 0 -40 -14.5t-32 -14.5h-215q-20 0 -41 12.5t-41 12.5q-23 0 -48.5 -12.5t-32.5 -12.5h-123q-20 0 -51 22.5t-52 22.5q-39 0 -65.5 33t-26.5 49zM379 225 l6 123q3 47 19 88t16 76l4 61q2 35 4.5 58t8.5 44.5t17 31.5t27 10q23 0 37 -51t14 -93q0 -24 5.5 -77.5t5.5 -85.5l-6 -185q-2 -32 -24 -57t-52 -25q-27 0 -54.5 29t-27.5 53zM420 1198l8 133q3 35 34.5 58.5t59.5 23.5q25 0 48.5 -21.5t23.5 -50.5l-14 -235 q-1 -18 -16.5 -64t-16.5 -79l-4 -72q-2 -20 -15.5 -46t-31.5 -26t-36 23t-18 39l9 143q0 29 -15.5 83t-15.5 91z" />
<glyph unicode="&#xee;" d="M41 20q0 5 4.5 10.5t18.5 18.5t18 17q1 1 6.5 5.5t7 5.5t7 5t8.5 5.5t8.5 4.5t9.5 4.5t10 3t12 2t13 0.5q19 0 57.5 26t65.5 26h41q44 0 79.5 -15.5t63.5 -15.5q33 0 58.5 15.5t43.5 15.5h144q36 0 62 -10t40 -20.5t21 -10.5q30 0 61 -31q41 -41 41 -62q0 -7 -13 -13.5 t-28 -6.5h-829q-14 0 -22.5 6t-8.5 14zM133 1536q0 8 8.5 14t22.5 6h799q51 0 51 -24q0 -20 -33 -57t-49 -37h-31q-22 0 -40 -14.5t-32 -14.5h-215q-20 0 -41 12.5t-41 12.5q-23 0 -48.5 -12.5t-32.5 -12.5h-123q-20 0 -51 22.5t-52 22.5q-39 0 -65.5 33t-26.5 49zM379 225 l6 123q3 47 19 88t16 76l4 61q2 35 4.5 58t8.5 44.5t17 31.5t27 10q23 0 37 -51t14 -93q0 -24 5.5 -77.5t5.5 -85.5l-6 -185q-2 -32 -24 -57t-52 -25q-27 0 -54.5 29t-27.5 53zM420 1198l8 133q3 35 34.5 58.5t59.5 23.5q25 0 48.5 -21.5t23.5 -50.5l-14 -235 q-1 -18 -16.5 -64t-16.5 -79l-4 -72q-2 -20 -15.5 -46t-31.5 -26t-36 23t-18 39l9 143q0 29 -15.5 83t-15.5 91z" />
<glyph unicode="&#xef;" d="M41 20q0 5 4.5 10.5t18.5 18.5t18 17q1 1 6.5 5.5t7 5.5t7 5t8.5 5.5t8.5 4.5t9.5 4.5t10 3t12 2t13 0.5q19 0 57.5 26t65.5 26h41q44 0 79.5 -15.5t63.5 -15.5q33 0 58.5 15.5t43.5 15.5h144q36 0 62 -10t40 -20.5t21 -10.5q30 0 61 -31q41 -41 41 -62q0 -7 -13 -13.5 t-28 -6.5h-829q-14 0 -22.5 6t-8.5 14zM133 1536q0 8 8.5 14t22.5 6h799q51 0 51 -24q0 -20 -33 -57t-49 -37h-31q-22 0 -40 -14.5t-32 -14.5h-215q-20 0 -41 12.5t-41 12.5q-23 0 -48.5 -12.5t-32.5 -12.5h-123q-20 0 -51 22.5t-52 22.5q-39 0 -65.5 33t-26.5 49zM379 225 l6 123q3 47 19 88t16 76l4 61q2 35 4.5 58t8.5 44.5t17 31.5t27 10q23 0 37 -51t14 -93q0 -24 5.5 -77.5t5.5 -85.5l-6 -185q-2 -32 -24 -57t-52 -25q-27 0 -54.5 29t-27.5 53zM420 1198l8 133q3 35 34.5 58.5t59.5 23.5q25 0 48.5 -21.5t23.5 -50.5l-14 -235 q-1 -18 -16.5 -64t-16.5 -79l-4 -72q-2 -20 -15.5 -46t-31.5 -26t-36 23t-18 39l9 143q0 29 -15.5 83t-15.5 91z" />
<glyph unicode="&#xf1;" d="M6 92l27 553q3 32 28 57t52 25q31 0 57.5 -32t26.5 -70l-9 -164q-2 -33 -22.5 -69.5t-22.5 -53.5l-8 -174q-3 -34 -38 -68.5t-54 -34.5q-12 0 -24.5 8.5t-12.5 22.5zM49 901l25 512q3 32 13 57t22 25q17 0 49 -44t32 -79l-8 -164q0 -30 20.5 -71t20.5 -72l-6 -123 q-3 -43 -34.5 -78t-69.5 -35q-29 0 -46.5 23t-17.5 49zM203 1229l6 164q2 15 11.5 28t19.5 13q20 0 41 -41l112 -236q2 -5 9 -17.5t9.5 -17t7 -14.5t6.5 -17t3.5 -16.5t1.5 -19.5l-8 -154q-1 -15 -9 -28t-16 -13q-15 0 -41 41l-129 232q-24 39 -24 96zM547 610l2 41 q1 14 10.5 22.5t20.5 8.5h57q18 0 30.5 -6.5t19.5 -15.5l7 -9l123 -225q41 -75 41 -115l-6 -123q-3 -22 -12 -36.5t-17 -14.5q-7 0 -20 8.5t-19 18.5l-211 368q-11 20 -15 29t-7.5 21.5t-3.5 27.5zM840 451l8 163q3 47 42 80t62 33q24 0 45 -30t21 -62l-27 -512 q-1 -18 -11 -29.5t-22 -11.5q-35 0 -62.5 34.5t-27.5 67.5l6 123q0 27 -17 72.5t-17 71.5zM868 922l9 174q2 19 24.5 62.5t24.5 70.5l6 164q3 27 45 59.5t57 32.5q11 0 20 -15.5t9 -35.5l-33 -574q-1 -17 -20.5 -29t-44.5 -12q-18 0 -57.5 37.5t-39.5 65.5z" />
<glyph unicode="&#xf2;" d="M6 92l27 553q3 32 28 57t52 25q31 0 57.5 -32t26.5 -70l-9 -164q-2 -33 -22.5 -69.5t-22.5 -53.5l-8 -174q-3 -34 -38 -68.5t-54 -34.5q-12 0 -24.5 8.5t-12.5 22.5zM41 20q0 5 4.5 10.5t18.5 18.5t18 17q1 1 6.5 5.5t7 5.5t7 5t8.5 5.5t8.5 4.5t9.5 4.5t10 3t12 2 t13 0.5q19 0 57.5 26t65.5 26h41q44 0 79.5 -15.5t63.5 -15.5q33 0 58.5 15.5t43.5 15.5h144q36 0 62 -10t40 -20.5t21 -10.5q30 0 61 -31q41 -41 41 -62q0 -7 -13 -13.5t-28 -6.5h-829q-14 0 -22.5 6t-8.5 14zM49 901l25 512q3 32 13 57t22 25q17 0 49 -44t32 -79l-8 -164 q0 -30 20.5 -71t20.5 -72l-6 -123q-3 -43 -34.5 -78t-69.5 -35q-29 0 -46.5 23t-17.5 49zM133 1536q0 8 8.5 14t22.5 6h799q51 0 51 -24q0 -20 -33 -57t-49 -37h-31q-22 0 -40 -14.5t-32 -14.5h-215q-20 0 -41 12.5t-41 12.5q-23 0 -48.5 -12.5t-32.5 -12.5h-123 q-20 0 -51 22.5t-52 22.5q-39 0 -65.5 33t-26.5 49zM840 451l8 163q3 47 42 80t62 33q24 0 45 -30t21 -62l-27 -512q-1 -18 -11 -29.5t-22 -11.5q-35 0 -62.5 34.5t-27.5 67.5l6 123q0 27 -17 72.5t-17 71.5zM868 922l9 174q2 19 24.5 62.5t24.5 70.5l6 164q3 27 45 59.5 t57 32.5q11 0 20 -15.5t9 -35.5l-33 -574q-1 -17 -20.5 -29t-44.5 -12q-18 0 -57.5 37.5t-39.5 65.5z" />
<glyph unicode="&#xf3;" d="M6 92l27 553q3 32 28 57t52 25q31 0 57.5 -32t26.5 -70l-9 -164q-2 -33 -22.5 -69.5t-22.5 -53.5l-8 -174q-3 -34 -38 -68.5t-54 -34.5q-12 0 -24.5 8.5t-12.5 22.5zM41 20q0 5 4.5 10.5t18.5 18.5t18 17q1 1 6.5 5.5t7 5.5t7 5t8.5 5.5t8.5 4.5t9.5 4.5t10 3t12 2 t13 0.5q19 0 57.5 26t65.5 26h41q44 0 79.5 -15.5t63.5 -15.5q33 0 58.5 15.5t43.5 15.5h144q36 0 62 -10t40 -20.5t21 -10.5q30 0 61 -31q41 -41 41 -62q0 -7 -13 -13.5t-28 -6.5h-829q-14 0 -22.5 6t-8.5 14zM49 901l25 512q3 32 13 57t22 25q17 0 49 -44t32 -79l-8 -164 q0 -30 20.5 -71t20.5 -72l-6 -123q-3 -43 -34.5 -78t-69.5 -35q-29 0 -46.5 23t-17.5 49zM133 1536q0 8 8.5 14t22.5 6h799q51 0 51 -24q0 -20 -33 -57t-49 -37h-31q-22 0 -40 -14.5t-32 -14.5h-215q-20 0 -41 12.5t-41 12.5q-23 0 -48.5 -12.5t-32.5 -12.5h-123 q-20 0 -51 22.5t-52 22.5q-39 0 -65.5 33t-26.5 49zM840 451l8 163q3 47 42 80t62 33q24 0 45 -30t21 -62l-27 -512q-1 -18 -11 -29.5t-22 -11.5q-35 0 -62.5 34.5t-27.5 67.5l6 123q0 27 -17 72.5t-17 71.5zM868 922l9 174q2 19 24.5 62.5t24.5 70.5l6 164q3 27 45 59.5 t57 32.5q11 0 20 -15.5t9 -35.5l-33 -574q-1 -17 -20.5 -29t-44.5 -12q-18 0 -57.5 37.5t-39.5 65.5z" />
<glyph unicode="&#xf4;" d="M6 92l27 553q3 32 28 57t52 25q31 0 57.5 -32t26.5 -70l-9 -164q-2 -33 -22.5 -69.5t-22.5 -53.5l-8 -174q-3 -34 -38 -68.5t-54 -34.5q-12 0 -24.5 8.5t-12.5 22.5zM41 20q0 5 4.5 10.5t18.5 18.5t18 17q1 1 6.5 5.5t7 5.5t7 5t8.5 5.5t8.5 4.5t9.5 4.5t10 3t12 2 t13 0.5q19 0 57.5 26t65.5 26h41q44 0 79.5 -15.5t63.5 -15.5q33 0 58.5 15.5t43.5 15.5h144q36 0 62 -10t40 -20.5t21 -10.5q30 0 61 -31q41 -41 41 -62q0 -7 -13 -13.5t-28 -6.5h-829q-14 0 -22.5 6t-8.5 14zM49 901l25 512q3 32 13 57t22 25q17 0 49 -44t32 -79l-8 -164 q0 -30 20.5 -71t20.5 -72l-6 -123q-3 -43 -34.5 -78t-69.5 -35q-29 0 -46.5 23t-17.5 49zM133 1536q0 8 8.5 14t22.5 6h799q51 0 51 -24q0 -20 -33 -57t-49 -37h-31q-22 0 -40 -14.5t-32 -14.5h-215q-20 0 -41 12.5t-41 12.5q-23 0 -48.5 -12.5t-32.5 -12.5h-123 q-20 0 -51 22.5t-52 22.5q-39 0 -65.5 33t-26.5 49zM840 451l8 163q3 47 42 80t62 33q24 0 45 -30t21 -62l-27 -512q-1 -18 -11 -29.5t-22 -11.5q-35 0 -62.5 34.5t-27.5 67.5l6 123q0 27 -17 72.5t-17 71.5zM868 922l9 174q2 19 24.5 62.5t24.5 70.5l6 164q3 27 45 59.5 t57 32.5q11 0 20 -15.5t9 -35.5l-33 -574q-1 -17 -20.5 -29t-44.5 -12q-18 0 -57.5 37.5t-39.5 65.5z" />
<glyph unicode="&#xf5;" d="M6 92l27 553q3 32 28 57t52 25q31 0 57.5 -32t26.5 -70l-9 -164q-2 -33 -22.5 -69.5t-22.5 -53.5l-8 -174q-3 -34 -38 -68.5t-54 -34.5q-12 0 -24.5 8.5t-12.5 22.5zM41 20q0 5 4.5 10.5t18.5 18.5t18 17q1 1 6.5 5.5t7 5.5t7 5t8.5 5.5t8.5 4.5t9.5 4.5t10 3t12 2 t13 0.5q19 0 57.5 26t65.5 26h41q44 0 79.5 -15.5t63.5 -15.5q33 0 58.5 15.5t43.5 15.5h144q36 0 62 -10t40 -20.5t21 -10.5q30 0 61 -31q41 -41 41 -62q0 -7 -13 -13.5t-28 -6.5h-829q-14 0 -22.5 6t-8.5 14zM49 901l25 512q3 32 13 57t22 25q17 0 49 -44t32 -79l-8 -164 q0 -30 20.5 -71t20.5 -72l-6 -123q-3 -43 -34.5 -78t-69.5 -35q-29 0 -46.5 23t-17.5 49zM133 1536q0 8 8.5 14t22.5 6h799q51 0 51 -24q0 -20 -33 -57t-49 -37h-31q-22 0 -40 -14.5t-32 -14.5h-215q-20 0 -41 12.5t-41 12.5q-23 0 -48.5 -12.5t-32.5 -12.5h-123 q-20 0 -51 22.5t-52 22.5q-39 0 -65.5 33t-26.5 49zM840 451l8 163q3 47 42 80t62 33q24 0 45 -30t21 -62l-27 -512q-1 -18 -11 -29.5t-22 -11.5q-35 0 -62.5 34.5t-27.5 67.5l6 123q0 27 -17 72.5t-17 71.5zM868 922l9 174q2 19 24.5 62.5t24.5 70.5l6 164q3 27 45 59.5 t57 32.5q11 0 20 -15.5t9 -35.5l-33 -574q-1 -17 -20.5 -29t-44.5 -12q-18 0 -57.5 37.5t-39.5 65.5z" />
<glyph unicode="&#xf6;" d="M6 92l27 553q3 32 28 57t52 25q31 0 57.5 -32t26.5 -70l-9 -164q-2 -33 -22.5 -69.5t-22.5 -53.5l-8 -174q-3 -34 -38 -68.5t-54 -34.5q-12 0 -24.5 8.5t-12.5 22.5zM41 20q0 5 4.5 10.5t18.5 18.5t18 17q1 1 6.5 5.5t7 5.5t7 5t8.5 5.5t8.5 4.5t9.5 4.5t10 3t12 2 t13 0.5q19 0 57.5 26t65.5 26h41q44 0 79.5 -15.5t63.5 -15.5q33 0 58.5 15.5t43.5 15.5h144q36 0 62 -10t40 -20.5t21 -10.5q30 0 61 -31q41 -41 41 -62q0 -7 -13 -13.5t-28 -6.5h-829q-14 0 -22.5 6t-8.5 14zM49 901l25 512q3 32 13 57t22 25q17 0 49 -44t32 -79l-8 -164 q0 -30 20.5 -71t20.5 -72l-6 -123q-3 -43 -34.5 -78t-69.5 -35q-29 0 -46.5 23t-17.5 49zM133 1536q0 8 8.5 14t22.5 6h799q51 0 51 -24q0 -20 -33 -57t-49 -37h-31q-22 0 -40 -14.5t-32 -14.5h-215q-20 0 -41 12.5t-41 12.5q-23 0 -48.5 -12.5t-32.5 -12.5h-123 q-20 0 -51 22.5t-52 22.5q-39 0 -65.5 33t-26.5 49zM840 451l8 163q3 47 42 80t62 33q24 0 45 -30t21 -62l-27 -512q-1 -18 -11 -29.5t-22 -11.5q-35 0 -62.5 34.5t-27.5 67.5l6 123q0 27 -17 72.5t-17 71.5zM868 922l9 174q2 19 24.5 62.5t24.5 70.5l6 164q3 27 45 59.5 t57 32.5q11 0 20 -15.5t9 -35.5l-33 -574q-1 -17 -20.5 -29t-44.5 -12q-18 0 -57.5 37.5t-39.5 65.5z" />
<glyph unicode="&#xf8;" d="M6 92l27 553q3 32 28 57t52 25q31 0 57.5 -32t26.5 -70l-9 -164q-2 -33 -22.5 -69.5t-22.5 -53.5l-8 -174q-3 -34 -38 -68.5t-54 -34.5q-12 0 -24.5 8.5t-12.5 22.5zM41 20q0 5 4.5 10.5t18.5 18.5t18 17q1 1 6.5 5.5t7 5.5t7 5t8.5 5.5t8.5 4.5t9.5 4.5t10 3t12 2 t13 0.5q19 0 57.5 26t65.5 26h41q44 0 79.5 -15.5t63.5 -15.5q33 0 58.5 15.5t43.5 15.5h144q36 0 62 -10t40 -20.5t21 -10.5q30 0 61 -31q41 -41 41 -62q0 -7 -13 -13.5t-28 -6.5h-829q-14 0 -22.5 6t-8.5 14zM49 901l25 512q3 32 13 57t22 25q17 0 49 -44t32 -79l-8 -164 q0 -30 20.5 -71t20.5 -72l-6 -123q-3 -43 -34.5 -78t-69.5 -35q-29 0 -46.5 23t-17.5 49zM133 1536q0 8 8.5 14t22.5 6h799q51 0 51 -24q0 -20 -33 -57t-49 -37h-31q-22 0 -40 -14.5t-32 -14.5h-215q-20 0 -41 12.5t-41 12.5q-23 0 -48.5 -12.5t-32.5 -12.5h-123 q-20 0 -51 22.5t-52 22.5q-39 0 -65.5 33t-26.5 49zM840 451l8 163q3 47 42 80t62 33q24 0 45 -30t21 -62l-27 -512q-1 -18 -11 -29.5t-22 -11.5q-35 0 -62.5 34.5t-27.5 67.5l6 123q0 27 -17 72.5t-17 71.5zM868 922l9 174q2 19 24.5 62.5t24.5 70.5l6 164q3 27 45 59.5 t57 32.5q11 0 20 -15.5t9 -35.5l-33 -574q-1 -17 -20.5 -29t-44.5 -12q-18 0 -57.5 37.5t-39.5 65.5z" />
<glyph unicode="&#xf9;" d="M6 92l27 553q3 32 28 57t52 25q31 0 57.5 -32t26.5 -70l-9 -164q-2 -33 -22.5 -69.5t-22.5 -53.5l-8 -174q-3 -34 -38 -68.5t-54 -34.5q-12 0 -24.5 8.5t-12.5 22.5zM41 20q0 5 4.5 10.5t18.5 18.5t18 17q1 1 6.5 5.5t7 5.5t7 5t8.5 5.5t8.5 4.5t9.5 4.5t10 3t12 2 t13 0.5q19 0 57.5 26t65.5 26h41q44 0 79.5 -15.5t63.5 -15.5q33 0 58.5 15.5t43.5 15.5h144q36 0 62 -10t40 -20.5t21 -10.5q30 0 61 -31q41 -41 41 -62q0 -7 -13 -13.5t-28 -6.5h-829q-14 0 -22.5 6t-8.5 14zM49 901l25 512q3 32 13 57t22 25q17 0 49 -44t32 -79l-8 -164 q0 -30 20.5 -71t20.5 -72l-6 -123q-3 -43 -34.5 -78t-69.5 -35q-29 0 -46.5 23t-17.5 49zM840 451l8 163q3 47 42 80t62 33q24 0 45 -30t21 -62l-27 -512q-1 -18 -11 -29.5t-22 -11.5q-35 0 -62.5 34.5t-27.5 67.5l6 123q0 27 -17 72.5t-17 71.5zM868 922l9 174 q2 19 24.5 62.5t24.5 70.5l6 164q3 27 45 59.5t57 32.5q11 0 20 -15.5t9 -35.5l-33 -574q-1 -17 -20.5 -29t-44.5 -12q-18 0 -57.5 37.5t-39.5 65.5z" />
<glyph unicode="&#xfa;" d="M6 92l27 553q3 32 28 57t52 25q31 0 57.5 -32t26.5 -70l-9 -164q-2 -33 -22.5 -69.5t-22.5 -53.5l-8 -174q-3 -34 -38 -68.5t-54 -34.5q-12 0 -24.5 8.5t-12.5 22.5zM41 20q0 5 4.5 10.5t18.5 18.5t18 17q1 1 6.5 5.5t7 5.5t7 5t8.5 5.5t8.5 4.5t9.5 4.5t10 3t12 2 t13 0.5q19 0 57.5 26t65.5 26h41q44 0 79.5 -15.5t63.5 -15.5q33 0 58.5 15.5t43.5 15.5h144q36 0 62 -10t40 -20.5t21 -10.5q30 0 61 -31q41 -41 41 -62q0 -7 -13 -13.5t-28 -6.5h-829q-14 0 -22.5 6t-8.5 14zM49 901l25 512q3 32 13 57t22 25q17 0 49 -44t32 -79l-8 -164 q0 -30 20.5 -71t20.5 -72l-6 -123q-3 -43 -34.5 -78t-69.5 -35q-29 0 -46.5 23t-17.5 49zM840 451l8 163q3 47 42 80t62 33q24 0 45 -30t21 -62l-27 -512q-1 -18 -11 -29.5t-22 -11.5q-35 0 -62.5 34.5t-27.5 67.5l6 123q0 27 -17 72.5t-17 71.5zM868 922l9 174 q2 19 24.5 62.5t24.5 70.5l6 164q3 27 45 59.5t57 32.5q11 0 20 -15.5t9 -35.5l-33 -574q-1 -17 -20.5 -29t-44.5 -12q-18 0 -57.5 37.5t-39.5 65.5z" />
<glyph unicode="&#xfb;" d="M6 92l27 553q3 32 28 57t52 25q31 0 57.5 -32t26.5 -70l-9 -164q-2 -33 -22.5 -69.5t-22.5 -53.5l-8 -174q-3 -34 -38 -68.5t-54 -34.5q-12 0 -24.5 8.5t-12.5 22.5zM41 20q0 5 4.5 10.5t18.5 18.5t18 17q1 1 6.5 5.5t7 5.5t7 5t8.5 5.5t8.5 4.5t9.5 4.5t10 3t12 2 t13 0.5q19 0 57.5 26t65.5 26h41q44 0 79.5 -15.5t63.5 -15.5q33 0 58.5 15.5t43.5 15.5h144q36 0 62 -10t40 -20.5t21 -10.5q30 0 61 -31q41 -41 41 -62q0 -7 -13 -13.5t-28 -6.5h-829q-14 0 -22.5 6t-8.5 14zM49 901l25 512q3 32 13 57t22 25q17 0 49 -44t32 -79l-8 -164 q0 -30 20.5 -71t20.5 -72l-6 -123q-3 -43 -34.5 -78t-69.5 -35q-29 0 -46.5 23t-17.5 49zM840 451l8 163q3 47 42 80t62 33q24 0 45 -30t21 -62l-27 -512q-1 -18 -11 -29.5t-22 -11.5q-35 0 -62.5 34.5t-27.5 67.5l6 123q0 27 -17 72.5t-17 71.5zM868 922l9 174 q2 19 24.5 62.5t24.5 70.5l6 164q3 27 45 59.5t57 32.5q11 0 20 -15.5t9 -35.5l-33 -574q-1 -17 -20.5 -29t-44.5 -12q-18 0 -57.5 37.5t-39.5 65.5z" />
<glyph unicode="&#xfc;" d="M6 92l27 553q3 32 28 57t52 25q31 0 57.5 -32t26.5 -70l-9 -164q-2 -33 -22.5 -69.5t-22.5 -53.5l-8 -174q-3 -34 -38 -68.5t-54 -34.5q-12 0 -24.5 8.5t-12.5 22.5zM41 20q0 5 4.5 10.5t18.5 18.5t18 17q1 1 6.5 5.5t7 5.5t7 5t8.5 5.5t8.5 4.5t9.5 4.5t10 3t12 2 t13 0.5q19 0 57.5 26t65.5 26h41q44 0 79.5 -15.5t63.5 -15.5q33 0 58.5 15.5t43.5 15.5h144q36 0 62 -10t40 -20.5t21 -10.5q30 0 61 -31q41 -41 41 -62q0 -7 -13 -13.5t-28 -6.5h-829q-14 0 -22.5 6t-8.5 14zM49 901l25 512q3 32 13 57t22 25q17 0 49 -44t32 -79l-8 -164 q0 -30 20.5 -71t20.5 -72l-6 -123q-3 -43 -34.5 -78t-69.5 -35q-29 0 -46.5 23t-17.5 49zM840 451l8 163q3 47 42 80t62 33q24 0 45 -30t21 -62l-27 -512q-1 -18 -11 -29.5t-22 -11.5q-35 0 -62.5 34.5t-27.5 67.5l6 123q0 27 -17 72.5t-17 71.5zM868 922l9 174 q2 19 24.5 62.5t24.5 70.5l6 164q3 27 45 59.5t57 32.5q11 0 20 -15.5t9 -35.5l-33 -574q-1 -17 -20.5 -29t-44.5 -12q-18 0 -57.5 37.5t-39.5 65.5z" />
<glyph unicode="&#xfd;" d="M203 1229l6 164q2 15 11.5 28t19.5 13q20 0 41 -41l112 -236q2 -5 9 -17.5t9.5 -17t7 -14.5t6.5 -17t3.5 -16.5t1.5 -19.5l-8 -154q-1 -15 -9 -28t-16 -13q-15 0 -41 41l-129 232q-24 39 -24 96zM379 225l6 123q3 47 19 88t16 76l4 61q2 35 4.5 58t8.5 44.5t17 31.5 t27 10q23 0 37 -51t14 -93q0 -24 5.5 -77.5t5.5 -85.5l-6 -185q-2 -32 -24 -57t-52 -25q-27 0 -54.5 29t-27.5 53zM559 922q6 57 45 102l221 334q33 51 58 51q15 0 23.5 -20.5t8.5 -51.5l-6 -102q-1 -9 -2 -17t-3 -15t-3.5 -12.5t-4.5 -12t-5 -10t-6 -9.5t-6 -8.5t-6.5 -9 t-6.5 -8.5l-139 -222q-26 -37 -65 -37h-58q-45 0 -45 48z" />
<glyph unicode="&#xff;" d="M203 1229l6 164q2 15 11.5 28t19.5 13q20 0 41 -41l112 -236q2 -5 9 -17.5t9.5 -17t7 -14.5t6.5 -17t3.5 -16.5t1.5 -19.5l-8 -154q-1 -15 -9 -28t-16 -13q-15 0 -41 41l-129 232q-24 39 -24 96zM379 225l6 123q3 47 19 88t16 76l4 61q2 35 4.5 58t8.5 44.5t17 31.5 t27 10q23 0 37 -51t14 -93q0 -24 5.5 -77.5t5.5 -85.5l-6 -185q-2 -32 -24 -57t-52 -25q-27 0 -54.5 29t-27.5 53zM559 922q6 57 45 102l221 334q33 51 58 51q15 0 23.5 -20.5t8.5 -51.5l-6 -102q-1 -9 -2 -17t-3 -15t-3.5 -12.5t-4.5 -12t-5 -10t-6 -9.5t-6 -8.5t-6.5 -9 t-6.5 -8.5l-139 -222q-26 -37 -65 -37h-58q-45 0 -45 48z" />
<glyph unicode="&#x2dc;" d="M6 92l27 553q3 32 28 57t52 25q31 0 57.5 -32t26.5 -70l-9 -164q-2 -33 -22.5 -69.5t-22.5 -53.5l-8 -174q-3 -34 -38 -68.5t-54 -34.5q-12 0 -24.5 8.5t-12.5 22.5zM41 20q0 5 4.5 10.5t18.5 18.5t18 17q1 1 6.5 5.5t7 5.5t7 5t8.5 5.5t8.5 4.5t9.5 4.5t10 3t12 2 t13 0.5q19 0 57.5 26t65.5 26h41q44 0 79.5 -15.5t63.5 -15.5q33 0 58.5 15.5t43.5 15.5h144q36 0 62 -10t40 -20.5t21 -10.5q30 0 61 -31q41 -41 41 -62q0 -7 -13 -13.5t-28 -6.5h-829q-14 0 -22.5 6t-8.5 14zM49 901l25 512q3 32 13 57t22 25q17 0 49 -44t32 -79l-8 -164 q0 -30 20.5 -71t20.5 -72l-6 -123q-3 -43 -34.5 -78t-69.5 -35q-29 0 -46.5 23t-17.5 49zM133 1536q0 8 8.5 14t22.5 6h799q51 0 51 -24q0 -20 -33 -57t-49 -37h-31q-22 0 -40 -14.5t-32 -14.5h-215q-20 0 -41 12.5t-41 12.5q-23 0 -48.5 -12.5t-32.5 -12.5h-123 q-20 0 -51 22.5t-52 22.5q-39 0 -65.5 33t-26.5 49zM141 778q0 32 30.5 57t68.5 25h102q38 0 68 -25t30 -57t-31 -57t-71 -25h-94q-40 0 -71.5 25t-31.5 57zM147 164l7 133q2 22 7.5 39t10 25.5t15 23t14.5 21.5l133 225q3 4 12.5 17.5t16 21t17 15t21.5 7.5q6 0 10.5 -13 t4.5 -28l-10 -159q-4 -45 -25 -66l-154 -262q-9 -18 -25.5 -29.5t-31.5 -11.5q-23 0 -23 41zM203 1229l6 164q2 15 11.5 28t19.5 13q20 0 41 -41l112 -236q2 -5 9 -17.5t9.5 -17t7 -14.5t6.5 -17t3.5 -16.5t1.5 -19.5l-8 -154q-1 -15 -9 -28t-16 -13q-15 0 -41 41l-129 232 q-24 39 -24 96zM379 225l6 123q3 47 19 88t16 76l4 61q2 35 4.5 58t8.5 44.5t17 31.5t27 10q23 0 37 -51t14 -93q0 -24 5.5 -77.5t5.5 -85.5l-6 -185q-2 -32 -24 -57t-52 -25q-27 0 -54.5 29t-27.5 53zM420 1198l8 133q3 35 34.5 58.5t59.5 23.5q25 0 48.5 -21.5t23.5 -50.5 l-14 -235q-1 -18 -16.5 -64t-16.5 -79l-4 -72q-2 -20 -15.5 -46t-31.5 -26t-36 23t-18 39l9 143q0 29 -15.5 83t-15.5 91zM530 778q0 32 30.5 57t68.5 25h205q38 0 68 -25t30 -57t-31.5 -57t-71.5 -25h-196q-40 0 -71.5 25t-31.5 57zM547 610l2 41q1 14 10.5 22.5t20.5 8.5 h57q18 0 30.5 -6.5t19.5 -15.5l7 -9l123 -225q41 -75 41 -115l-6 -123q-3 -22 -12 -36.5t-17 -14.5q-7 0 -20 8.5t-19 18.5l-211 368q-11 20 -15 29t-7.5 21.5t-3.5 27.5zM559 922q6 57 45 102l221 334q33 51 58 51q15 0 23.5 -20.5t8.5 -51.5l-6 -102q-1 -9 -2 -17t-3 -15 t-3.5 -12.5t-4.5 -12t-5 -10t-6 -9.5t-6 -8.5t-6.5 -9t-6.5 -8.5l-139 -222q-26 -37 -65 -37h-58q-45 0 -45 48zM840 451l8 163q3 47 42 80t62 33q24 0 45 -30t21 -62l-27 -512q-1 -18 -11 -29.5t-22 -11.5q-35 0 -62.5 34.5t-27.5 67.5l6 123q0 27 -17 72.5t-17 71.5z M868 922l9 174q2 19 24.5 62.5t24.5 70.5l6 164q3 27 45 59.5t57 32.5q11 0 20 -15.5t9 -35.5l-33 -574q-1 -17 -20.5 -29t-44.5 -12q-18 0 -57.5 37.5t-39.5 65.5z" />
<glyph unicode="&#x2000;" horiz-adv-x="778" />
<glyph unicode="&#x2001;" horiz-adv-x="1556" />
<glyph unicode="&#x2002;" horiz-adv-x="778" />
<glyph unicode="&#x2003;" horiz-adv-x="1556" />
<glyph unicode="&#x2004;" horiz-adv-x="518" />
<glyph unicode="&#x2005;" horiz-adv-x="389" />
<glyph unicode="&#x2006;" horiz-adv-x="259" />
<glyph unicode="&#x2007;" horiz-adv-x="259" />
<glyph unicode="&#x2008;" horiz-adv-x="194" />
<glyph unicode="&#x2009;" horiz-adv-x="311" />
<glyph unicode="&#x200a;" horiz-adv-x="86" />
<glyph unicode="&#x2010;" d="M141 778q0 32 30.5 57t68.5 25h102q38 0 68 -25t30 -57t-31 -57t-71 -25h-94q-40 0 -71.5 25t-31.5 57zM530 778q0 32 30.5 57t68.5 25h205q38 0 68 -25t30 -57t-31.5 -57t-71.5 -25h-196q-40 0 -71.5 25t-31.5 57z" />
<glyph unicode="&#x2011;" d="M141 778q0 32 30.5 57t68.5 25h102q38 0 68 -25t30 -57t-31 -57t-71 -25h-94q-40 0 -71.5 25t-31.5 57zM530 778q0 32 30.5 57t68.5 25h205q38 0 68 -25t30 -57t-31.5 -57t-71.5 -25h-196q-40 0 -71.5 25t-31.5 57z" />
<glyph unicode="&#x2012;" d="M141 778q0 32 30.5 57t68.5 25h102q38 0 68 -25t30 -57t-31 -57t-71 -25h-94q-40 0 -71.5 25t-31.5 57zM530 778q0 32 30.5 57t68.5 25h205q38 0 68 -25t30 -57t-31.5 -57t-71.5 -25h-196q-40 0 -71.5 25t-31.5 57z" />
<glyph unicode="&#x2013;" horiz-adv-x="1564" d="M141 778q0 32 39.5 57t88.5 25h132q49 0 88 -25t39 -57t-40 -57t-92 -25h-122q-51 0 -92 25t-41 57zM645 778q0 32 39.5 57t88.5 25h265q49 0 88 -25t39 -57t-41 -57t-92 -25h-254q-52 0 -92.5 25t-40.5 57z" />
<glyph unicode="&#x2014;" horiz-adv-x="2588" d="M141 778q0 32 79 57t177 25h264q99 0 176.5 -25t77.5 -57t-80 -57t-184 -25h-243q-104 0 -185.5 25t-81.5 57zM1148 778q0 32 79 57t177 25h531q99 0 176.5 -25t77.5 -57t-81.5 -57t-185.5 -25h-507q-104 0 -185.5 25t-81.5 57z" />
<glyph unicode="&#x2018;" d="M203 1229l6 164q2 15 11.5 28t19.5 13q20 0 41 -41l112 -236q2 -5 9 -17.5t9.5 -17t7 -14.5t6.5 -17t3.5 -16.5t1.5 -19.5l-8 -154q-1 -15 -9 -28t-16 -13q-15 0 -41 41l-129 232q-24 39 -24 96z" />
<glyph unicode="&#x2019;" d="M559 922q6 57 45 102l221 334q33 51 58 51q15 0 23.5 -20.5t8.5 -51.5l-6 -102q-1 -9 -2 -17t-3 -15t-3.5 -12.5t-4.5 -12t-5 -10t-6 -9.5t-6 -8.5t-6.5 -9t-6.5 -8.5l-139 -222q-26 -37 -65 -37h-58q-45 0 -45 48z" />
<glyph unicode="&#x202f;" horiz-adv-x="311" />
<glyph unicode="&#x205f;" horiz-adv-x="389" />
<glyph unicode="&#x25fc;" horiz-adv-x="1433" d="M0 0v1434h1434v-1434h-1434z" />
</font>
</defs>
</svg>
